<svg viewBox="0 0 174 79" fill="none" xmlns="http://www.w3.org/2000/svg"><path d="M28.185 78.758l-2.806-7.108c.815-.362 2.878-1.257 2.878-4.279 0-1.644-.624-2.732-1.44-3.481-.983-.87-2.182-1.258-4.172-1.258h-6.931v16.126h2.878v-6.624h4.053l2.494 6.624h3.046zm-9.593-13.805h3.837c2.039 0 2.83 1.16 2.83 2.37 0 2.006-1.655 2.49-3.07 2.49h-3.597v-4.86zM55.696 62.632h-2.303v10.372c0 .774-.072 1.79-.551 2.466-.432.629-1.463.992-2.374.992-.816 0-1.727-.29-2.255-.847-.575-.604-.695-1.668-.695-2.61V62.631h-2.95v10.59c0 1.426.072 2.78 1.271 4.23C46.99 78.808 49.173 79 50.132 79c.504 0 2.038-.048 3.31-.822 2.254-1.402 2.254-3.409 2.254-5.174V62.632zM84.697 62.632h-2.302V74.02c-.552-1.064-.935-1.765-.983-1.886L75.8 62.632h-3.19v16.126h2.302V66.67c.144.29.72 1.523.888 1.789l6.26 10.3h2.637V62.631zM121.005 62.632h-2.542l-3.022 11.774-3.189-11.774h-2.902l-2.878 11.774-3.094-11.774h-3.069l4.364 16.126h2.974l2.878-11.846 3.19 11.846h3.021l4.269-16.126zM142.813 62.632h-3.525l-5.324 16.126h2.47l1.247-3.844h6.139l1.295 3.844h3.07l-5.372-16.126zm-4.413 9.961l2.327-7.205 2.326 7.205H138.4zM168.82 78.758v-6.793l5.18-9.333h-2.782l-3.621 6.649-3.789-6.649h-3.478l5.444 9.333v6.793h3.046z" fill="#fff"/><path fill-rule="evenodd" clip-rule="evenodd" d="M162.601 36.165c-.869-6.81-2.462-10.165-7.199-10.792h-3.372v23.1h5.683c6.579-.423 14.315-5.58 15.863-16.509v17.05h-33.808v-.562h5.018V3.29h-3.569v35.22c-.268 3.745-1.797 5.945-3.376 7.978a10.374 10.374 0 01-5.714 3.39c-7.086 1.61-15.121.086-18.694-5.308-.935-1.706-1.512-2.63-1.597-8.376V3.337h-4.184v-.541h15.666v.537h-4.241v39.112c-.109 2.06 1.304 4.66 4.923 6.78 2.022.908 5.292.682 7.254.313 1.495-.186 2.431-.624 3.721-1.265 2.57-1.287 5.788-6.226 5.721-9.678V3.333h-5.387v-.541h36.347v15.412c-.419-1.885-.728-4.817-2.297-7.706-2.658-5.28-5.957-7.337-11.766-7.168h-5.556v21.505h3.4c4.843-.466 6.397-3.079 7.167-9.319l-.003 20.649z" fill="#fff"/><path clip-rule="evenodd" d="M162.601 36.165c-.869-6.81-2.462-10.165-7.199-10.792h-3.372v23.1h5.683c6.579-.423 14.315-5.58 15.863-16.509v17.05h-33.808v-.562h5.018V3.29h-3.569v35.22c-.268 3.745-1.797 5.945-3.376 7.978a10.374 10.374 0 01-5.714 3.39c-7.086 1.61-15.121.086-18.694-5.308-.935-1.706-1.512-2.63-1.597-8.376V3.337h-4.184v-.541h15.666v.537h-4.241v39.112c-.109 2.06 1.304 4.66 4.923 6.78 2.022.908 5.292.682 7.254.313 1.495-.186 2.431-.624 3.721-1.265 2.57-1.287 5.788-6.226 5.721-9.678V3.333h-5.387v-.541h36.347v15.412c-.419-1.885-.728-4.817-2.297-7.706-2.658-5.28-5.957-7.337-11.766-7.168h-5.556v21.505h3.4c4.843-.466 6.397-3.079 7.167-9.319l-.003 20.649z" stroke="#fff" stroke-width=".25" stroke-linecap="square"/><path fill-rule="evenodd" clip-rule="evenodd" d="M109.352 30.34h-2.682v18.243c-1.07-1.915-2.307-2.98-5.007-2.177-3.797 1.869-8.36 3.795-10.92 3.73-2.75.072-5.512-.929-8.038-2.192-8.936-6.198-12.193-17.762-9.89-28.932 1.676-7.113 6.619-15.03 13.893-17.415 7.277-2.733 12.193 5.122 17.14-.409v17.218c-1.659-6.213-4.432-14.248-11.263-16.644-4.153-.922-7.863 1-9.612 4.269-3.73 8.454-3.964 30.54.697 39.672.589 1.38 3.156 4.05 7.079 3.856 3.922-.194 8.765-2.734 8.765-6.392V30.336h-2.693v-.549h12.541l-.01.553z" fill="#fff"/><path clip-rule="evenodd" d="M109.352 30.34h-2.682v18.243c-1.07-1.915-2.307-2.98-5.007-2.177-3.797 1.869-8.36 3.795-10.92 3.73-2.75.072-5.512-.929-8.038-2.192-8.936-6.198-12.193-17.762-9.89-28.932 1.676-7.113 6.619-15.03 13.893-17.415 7.277-2.733 12.193 5.122 17.14-.409v17.218c-1.659-6.213-4.432-14.248-11.263-16.644-4.153-.922-7.863 1-9.612 4.269-3.73 8.454-3.964 30.54.697 39.672.589 1.38 3.156 4.05 7.079 3.856 3.922-.194 8.765-2.734 8.765-6.392V30.336h-2.693v-.549h12.541l-.01.553z" stroke="#fff" stroke-width=".25" stroke-linecap="square"/><path fill-rule="evenodd" clip-rule="evenodd" d="M58.406 5.197c-2.178-2.33-6.81-3.11-10.475-1.704-6.578 3.376-7.07 12.07-7.647 19.325-.418 4.95-.557 17.846 4.824 24.522 2.192 2.15 6.463 2.484 9.202 1.683 8.15-2.965 8.47-12.087 9.045-19.634v-.162c.438-8.394-.492-18.69-4.949-24.03zm2.77 41.943c-3.98 2.677-8.882 4.083-14.034 2.955-6.439-1.335-12.31-7.305-14.454-13.352-2.809-8.94-1.74-20.148 4.493-27.214 4.899-4.796 10.856-7.853 17.898-6.353 6.378 1.367 13.035 7.783 14.764 13.981 3.611 10.798.713 23.018-8.668 29.983z" fill="#fff"/><path d="M58.5 5.112l-.092.085.091-.085zM53.747 2.82l-.02.123.02-.123zm4.756 2.296l.08.096.101-.085-.09-.097-.091.086zm0 0l-.08-.096-.096.08.08.096.096-.08zm4.337 10.93l.123-.022-.123.021zm.64 13.184l-.125-.007v.007h.125zm0 .167l-.01.125.135.01v-.135h-.125zm0 0l.01-.124-.125-.01-.01.125.125.01zm-.073.977l-.125-.01.125.01zm-1.614 10.588l.119.039-.12-.039zm-7.44 8.178l-.043-.118.043.118zm-.008.002l-.12.035.038.129.125-.046-.043-.118zm0 0l.12-.035-.035-.12-.12.035.035.12zm-4.859.27l.019-.124-.019.123zm-4.465-1.983l-.088.089.088-.09zm-.006-.005l-.097.078.005.006.005.005.087-.09zm-.004-.006l-.098.078.098-.078zm-4.613-12.971l.124-.016-.124.016zm-.238-11.64l.124.01-.124-.01zm.051-.652l.125.01-.125-.01zm1.527-10.49l.12.035-.12-.035zm6.137-8.284l-.057-.111.057.11zm.012-.006l.117-.045-.05-.13-.124.063.057.112zm0 0l-.117.045.045.117.117-.045-.045-.117zm-5.91 8.36l.12.035-.12-.035zm6.006-8.129l-.045-.117-.012.006.057.111zM40.46 22.182l.125.01-.125-.01zm-.051.646l.124.01-.124-.01zm0 0l.124.011-.124-.01zm.237 11.589l.124-.016-.124.016zm4.555 12.84l-.098.078.005.005.005.006.088-.09zm4.322 1.908l.019-.123-.019.123zm4.748-.26l.035.12.008-.003-.043-.118zm7.284-8.02l.119.04-.119-.04zm1.603-10.532l-.124-.01.124.01zm.072-.969l.125.01v-.01h-.125zm0-.163l.007-.125-.132-.007v.132h.125zm0 0l-.006.125.125.007.006-.126-.124-.006zm-.636-13.133l.123-.02-.123.02zM58.315 5.28l.095-.08-.005-.006-.09.086zm-4.607-2.212l.02-.124-.02.124zm-20.9 33.634l-.12.038.002.004.117-.042zm4.464-27.088l-.088-.09-.006.007.094.083zm9.896 40.357l.026-.122-.026.122zm.001 0l.027-.121-.027.122zm13.934-2.934l.07.104.005-.004-.075-.1zm8.621-29.841l.119-.04-.119.04zm-.002-.006l-.033-.12-.127.035.042.125.118-.04zm0 0l.034.12.12-.034-.033-.12-.12.034zm-5.604-8.745l.086-.091-.086.09zm-9.065-5.148l.026-.122-.026.122zm.052-.244l-.026.122.026-.122zM37.094 9.439l-.09.087.088.09.089-.088-.087-.09zm18.011-6.386l.026-.122-.026.122zm9.186 5.21l-.087.091.087-.09zm5.672 8.857l-.121.033.002.006.119-.04zM61.25 47.24l-.074-.101.074.1zm-.005.003l-.104.068.072.111.107-.08-.075-.1zm0 0l.105-.069-.069-.106-.105.07.07.105zm-14.128 2.973l.026-.122h-.001l-.026.122zM32.57 36.783l-.118.042.118-.042zm-.002-.004l-.035-.12-.127.038.045.124.117-.042zm0 0l.036.12.122-.036-.038-.121-.12.037zm4.518-27.334l.094.083-.094-.083zm.006-.007l.09-.087-.094-.096-.09.1.094.083zM58.59 5.026c-1.137-1.216-2.897-2.012-4.822-2.328l-.04.246c1.888.31 3.59 1.088 4.68 2.253l.182-.17zm.005.005l-.005-.005-.182.171.005.005.182-.17zm-.011.182l-.16-.192.16.192zm4.38 10.812c-.738-4.309-2.095-8.268-4.364-10.988l-.192.16c2.228 2.67 3.575 6.58 4.31 10.87l.246-.042zm.642 13.212c.22-4.209.097-8.9-.642-13.212l-.246.042c.734 4.29.858 8.96.639 13.157l.25.013zm0 .152v-.158h-.25v.158h.25zm0 .01v-.01h-.25v.01h.25zm-.135.124l.02-.25-.02.25zm.062.861l.073-.976-.25-.019-.073.977.25.018zm-1.62 10.618c1.08-3.32 1.361-7.118 1.62-10.618l-.25-.018c-.259 3.507-.538 7.273-1.608 10.558l.238.078zm-7.516 8.256c4.167-1.516 6.329-4.612 7.516-8.256l-.238-.078c-1.17 3.595-3.289 6.617-7.364 8.1l.086.234zm-.008.003l.008-.003-.086-.235-.007.003.085.235zm-.163-.083l.24-.07-.24.07zm-4.757.358c1.716.257 3.505.139 4.912-.273l-.07-.24c-1.369.401-3.121.518-4.805.266l-.037.247zm-4.535-2.017c1.147 1.125 2.82 1.76 4.535 2.017l.037-.247c-1.685-.252-3.3-.873-4.397-1.949l-.175.179zm-.005-.005l.005.005.175-.178-.005-.006-.175.179zm-.015-.017l.005.006.195-.157-.005-.005-.195.156zm-4.639-13.033c.587 4.69 1.905 9.64 4.64 13.033l.194-.157c-2.69-3.338-4-8.23-4.586-12.908l-.248.032zm-.239-11.666c-.21 2.487-.35 6.967.24 11.666l.247-.032c-.585-4.677-.446-9.138-.238-11.613l-.249-.021zm.051-.652l-.051.652.25.02.05-.652-.248-.02zm1.532-10.515c-.965 3.322-1.26 7.071-1.532 10.515l.25.02c.271-3.45.565-7.172 1.522-10.465l-.24-.07zm6.2-8.36c-3.374 1.731-5.172 4.822-6.2 8.36l.24.07c1.017-3.502 2.785-6.52 6.074-8.208l-.114-.222zm.012-.007l-.012.007.114.222.012-.006-.114-.223zm.174.067l-.234.09.234-.09zm5.763-.633c-1.927-.317-4.047-.159-5.925.561l.09.234c1.832-.703 3.907-.86 5.795-.549l.04-.246zm-11.67 9.073c1.007-3.465 2.742-6.407 5.943-8.053l-.114-.222c-3.285 1.689-5.051 4.705-6.068 8.205l.24.07zm-1.512 10.421c.272-3.456.564-7.154 1.513-10.421l-.24-.07c-.958 3.296-1.25 7.021-1.523 10.472l.25.02zm-.052.646l.052-.646-.25-.02-.05.646.248.02zm0 .001l-.249-.021.25.021zm.237 11.562c-.583-4.655-.444-9.099-.237-11.562l-.249-.02c-.208 2.475-.347 6.936.238 11.613l.248-.03zM45.3 47.178c-2.642-3.283-3.944-8.116-4.528-12.777l-.248.031c.585 4.675 1.894 9.565 4.581 12.903l.195-.157zm4.244 1.864c-1.652-.248-3.208-.853-4.254-1.875l-.175.179c1.097 1.072 2.71 1.691 4.392 1.943l.037-.247zm4.694-.258c-1.33.39-3.044.505-4.694.258l-.037.247c1.682.252 3.433.135 4.801-.265l-.07-.24zm7.2-7.937c-1.154 3.544-3.227 6.49-7.207 7.94l.085.235c4.073-1.483 6.19-4.504 7.36-8.098l-.238-.077zm1.598-10.504c-.26 3.513-.537 7.249-1.598 10.504l.238.077c1.071-3.289 1.35-7.056 1.609-10.562l-.25-.019zm.072-.968c-.025.32-.048.643-.072.968l.249.019.072-.968-.25-.02zm0-.148v.157h.25v-.157h-.25zm0-.006v.006h.25v-.006h-.25zm.132-.125l-.015.25.015-.25zm-.768-12.987c.731 4.268.854 8.92.636 13.105l.25.013c.219-4.197.096-8.87-.64-13.16l-.246.042zM58.218 5.36c2.186 2.622 3.522 6.479 4.253 10.75l.247-.042C61.983 11.778 60.637 7.87 58.41 5.2l-.192.16zm-4.53-2.168c1.85.304 3.494 1.063 4.535 2.174l.182-.17c-1.089-1.164-2.79-1.94-4.677-2.25l-.04.246zm-5.66.533c1.786-.683 3.813-.837 5.66-.533l.04-.247c-1.886-.31-3.958-.154-5.789.546l.09.234zm-15.102 32.94c-2.79-8.878-1.716-19.985 4.44-26.967l-.188-.166c-6.229 7.066-7.298 18.271-4.49 27.209l.238-.075zM47.194 49.85c-6.337-1.314-12.148-7.209-14.268-13.189l-.235.084c2.143 6.046 8.014 12.015 14.453 13.35l.05-.245zm.002 0h-.001l-.052.245h.001l.052-.245zm13.839-2.916c-3.934 2.646-8.767 4.027-13.838 2.917l-.053.244c5.15 1.127 10.052-.277 14.03-2.954l-.14-.207zm8.572-29.697c3.582 10.709.703 22.81-8.577 29.7l.149.201c9.379-6.965 12.276-19.184 8.665-29.98l-.237.079zm-.002-.006l.002.006.237-.08-.002-.006-.237.08zm.085-.16l.067.24-.067-.24zm-5.657-8.535c2.654 2.527 4.72 5.643 5.57 8.689l.241-.068c-.865-3.099-2.961-6.252-5.639-8.802l-.172.181zM55.027 3.42c3.132.671 6.351 2.588 9.005 5.115l.172-.181c-2.677-2.55-5.936-4.495-9.125-5.179l-.052.245zM37.359 9.703C42.225 4.941 48.1 1.943 55.027 3.42l.052-.245c-7.04-1.5-12.997 1.555-17.895 6.35l.175.178zm17.772-6.772c-7.155-1.525-13.194 1.59-18.125 6.418l.175.179c4.899-4.796 10.856-7.853 17.898-6.353l.052-.244zm0 0l-.052.244.052-.244zm9.246 5.242c-2.701-2.572-6-4.547-9.246-5.242l-.052.244c3.19.684 6.448 2.63 9.125 5.179l.173-.181zm5.706 8.913c-.88-3.152-3.006-6.342-5.706-8.913l-.173.181c2.677 2.549 4.773 5.701 5.638 8.8l.24-.068zM61.325 47.34c9.478-7.037 12.395-19.375 8.756-30.26l-.237.08c3.61 10.796.711 23.015-8.668 29.979l.149.2zm-.005.003l.005-.004-.15-.2-.004.003.15.2zm-.18-.032l.21-.136-.21.136zm-14.05 3.027c5.23 1.145 10.202-.284 14.225-2.992l-.14-.207c-3.978 2.677-8.88 4.083-14.032 2.955l-.053.244zM32.453 36.825c2.166 6.113 8.098 12.157 14.638 13.514l.05-.245c-6.438-1.336-12.31-7.305-14.452-13.352l-.236.083zm-.002-.004l.002.004.236-.083-.002-.005-.235.084zm.083-.162l.07.24-.07-.24zm4.46-27.296c-6.306 7.149-7.372 18.457-4.544 27.454l.239-.075c-2.81-8.94-1.74-20.148 4.492-27.214l-.188-.165zM37 9.356l-.007.007.188.165.006-.007L37 9.356zm.183-.005l-.179.175.179-.175z" fill="#fff"/><path fill-rule="evenodd" clip-rule="evenodd" d="M39.694 3.319c-.122.036-3.887 0-4.396 0-4.641 15-9.561 30.833-14.188 45.722-.97-2.385-1.811-4.6-2.764-7.227L4.273 3.322H1v-.53h14.436v.53h-3.444L24.02 36.498l.21.637 10.6-33.823h-4.798v-.52h9.656l.006.527z" fill="#fff"/><path clip-rule="evenodd" d="M39.694 3.319c-.122.036-3.887 0-4.396 0-4.641 15-9.561 30.833-14.188 45.722-.97-2.385-1.811-4.6-2.764-7.227L4.273 3.322H1v-.53h14.436v.53h-3.444L24.02 36.498l.21.637 10.6-33.823h-4.798v-.52h9.656l.006.527z" stroke="#fff" stroke-width=".25" stroke-linecap="square"/></svg>
