<svg xmlns="http://www.w3.org/2000/svg" xmlns:xlink="http://www.w3.org/1999/xlink" viewBox="0 0 48 48" width="48px" height="48px"><defs><radialGradient id="yF4pel2LrPkZNiFPLqfoqd" cx="26.292" cy="67.332" r="1.455" gradientTransform="matrix(.994 .17 -.446 2.108 47.359 -110.414)" gradientUnits="userSpaceOnUse"><stop offset="0" stop-color="#fcd854"/><stop offset=".625" stop-color="#fac600"/><stop offset=".737" stop-color="#f8c200"/><stop offset=".859" stop-color="#f2b500"/><stop offset=".984" stop-color="#e89f00"/><stop offset=".999" stop-color="#e69c00"/></radialGradient><radialGradient id="yF4pel2LrPkZNiFPLqfoqa" cx="3.947" cy="67.203" r="1.494" gradientTransform="matrix(.994 .17 -.446 2.108 46.903 -106.457)" gradientUnits="userSpaceOnUse"><stop offset="0" stop-color="#fcd854"/><stop offset=".461" stop-color="#fac600"/><stop offset=".701" stop-color="#f2b600"/><stop offset=".999" stop-color="#e69c00"/></radialGradient><radialGradient id="yF4pel2LrPkZNiFPLqfoqe" cx="193.306" cy="21.799" r="11.239" gradientTransform="matrix(.873 0 0 1.071 -156.892 10.85)" gradientUnits="userSpaceOnUse"><stop offset="0" stop-color="#fcd854"/><stop offset=".629" stop-color="#fac600"/><stop offset=".737" stop-color="#f7c100"/><stop offset=".871" stop-color="#f0b100"/><stop offset=".999" stop-color="#e69c00"/></radialGradient><radialGradient id="yF4pel2LrPkZNiFPLqfoqf" cx="11.874" cy="37.89" r="2.046" gradientTransform="matrix(1 -.011 .006 .537 -.224 17.672)" gradientUnits="userSpaceOnUse"><stop offset=".479" stop-color="#fccc24"/><stop offset=".673" stop-color="#fccc24" stop-opacity=".993"/><stop offset=".744" stop-color="#fccc24" stop-opacity=".966"/><stop offset=".794" stop-color="#fccc23" stop-opacity=".919"/><stop offset=".834" stop-color="#fccb23" stop-opacity=".852"/><stop offset=".869" stop-color="#fbcb22" stop-opacity=".764"/><stop offset=".899" stop-color="#fbca21" stop-opacity=".656"/><stop offset=".927" stop-color="#fbca20" stop-opacity=".527"/><stop offset=".953" stop-color="#fac91f" stop-opacity=".378"/><stop offset=".976" stop-color="#fac81e" stop-opacity=".207"/><stop offset=".997" stop-color="#f9c71c" stop-opacity=".025"/><stop offset="1" stop-color="#f9c71c" stop-opacity="0"/></radialGradient><radialGradient id="yF4pel2LrPkZNiFPLqfoqg" cx="11.873" cy="206.614" r="1.084" gradientTransform="matrix(1 0 0 .558 0 -77.319)" gradientUnits="userSpaceOnUse"><stop offset=".004" stop-color="#fdf0b9"/><stop offset=".112" stop-color="#fdf0b9" stop-opacity=".881"/><stop offset=".556" stop-color="#fdf0b9" stop-opacity=".412"/><stop offset=".86" stop-color="#fdf0b9" stop-opacity=".116"/><stop offset="1" stop-color="#fdf0b9" stop-opacity="0"/></radialGradient><radialGradient id="yF4pel2LrPkZNiFPLqfoqh" cx="11.892" cy="38.496" r="1.633" gradientTransform="matrix(.002 1 -1.211 .003 58.476 26.504)" gradientUnits="userSpaceOnUse"><stop offset=".415" stop-opacity=".3"/><stop offset="1" stop-opacity="0"/></radialGradient><radialGradient id="yF4pel2LrPkZNiFPLqfoqm" cx="2.288" cy="-454.06" r="10.727" gradientTransform="matrix(1.009 0 0 -.817 9.484 -342.65)" gradientUnits="userSpaceOnUse"><stop offset="0" stop-color="#fff"/><stop offset=".077" stop-color="#fef6da"/><stop offset=".204" stop-color="#feeaa3"/><stop offset=".328" stop-color="#fddf76"/><stop offset=".445" stop-color="#fdd752"/><stop offset=".555" stop-color="#fcd139"/><stop offset=".655" stop-color="#fccd29"/><stop offset=".735" stop-color="#fccc24"/><stop offset=".807" stop-color="#fac720"/><stop offset=".897" stop-color="#f3b714"/><stop offset=".996" stop-color="#e79e01"/><stop offset=".999" stop-color="#e79d00"/></radialGradient><radialGradient id="yF4pel2LrPkZNiFPLqfoqi" cx="-159.386" cy="100.145" r="2.297" gradientTransform="matrix(1.093 0 0 1.309 186.024 -89.63)" gradientUnits="userSpaceOnUse"><stop offset=".696" stop-opacity=".2"/><stop offset="1" stop-opacity="0"/></radialGradient><radialGradient id="yF4pel2LrPkZNiFPLqfoqj" cx="341.684" cy="270.801" r="3.544" gradientTransform="matrix(.791 0 0 .477 -258.365 -87.39)" gradientUnits="userSpaceOnUse"><stop offset=".572" stop-color="#fff" stop-opacity=".4"/><stop offset=".621" stop-color="#fff" stop-opacity=".376"/><stop offset=".689" stop-color="#fff" stop-opacity=".307"/><stop offset=".767" stop-color="#fff" stop-opacity=".193"/><stop offset=".853" stop-color="#fff" stop-opacity=".037"/><stop offset=".871" stop-color="#fff" stop-opacity="0"/></radialGradient><radialGradient id="yF4pel2LrPkZNiFPLqfoqb" cx="11.915" cy="40.966" r="2.622" gradientUnits="userSpaceOnUse"><stop offset="0" stop-color="#15130e"/><stop offset=".999" stop-color="#121210"/></radialGradient><radialGradient id="yF4pel2LrPkZNiFPLqfoqC" cx="-3122.719" cy="35.334" r=".746" gradientTransform="matrix(-1 0 0 1 -3083 0)" xlink:href="#yF4pel2LrPkZNiFPLqfoqb"/><radialGradient id="yF4pel2LrPkZNiFPLqfoqn" cx="7.338" cy="35.199" r=".765" xlink:href="#yF4pel2LrPkZNiFPLqfoqb"/><radialGradient id="yF4pel2LrPkZNiFPLqfoqA" cx="30.881" cy="35.334" r=".746" xlink:href="#yF4pel2LrPkZNiFPLqfoqb"/><radialGradient id="yF4pel2LrPkZNiFPLqfoqp" cx="-3099.41" cy="35.199" r=".765" gradientTransform="matrix(-1 0 0 1 -3083 0)" xlink:href="#yF4pel2LrPkZNiFPLqfoqb"/><radialGradient id="yF4pel2LrPkZNiFPLqfoqq" cx="35.3" cy="32.502" r="14.612" gradientTransform="matrix(1 0 0 1.214 0 -6.947)" gradientUnits="userSpaceOnUse"><stop offset=".595" stop-color="#251105"/><stop offset=".661" stop-color="#391f0b"/><stop offset=".797" stop-color="#6d421b"/><stop offset=".82" stop-color="#76481e"/><stop offset="1" stop-color="#d9883e"/></radialGradient><radialGradient id="yF4pel2LrPkZNiFPLqfoql" cx="-2897.058" cy="67.203" r="1.494" gradientTransform="matrix(-.994 .17 .446 2.108 -2906.035 387.092)" xlink:href="#yF4pel2LrPkZNiFPLqfoqa"/><radialGradient id="yF4pel2LrPkZNiFPLqfoqr" cx="-2921.028" cy="67.332" r="1.455" gradientTransform="matrix(-.994 .17 .446 2.108 -2905.665 391.014)" xlink:href="#yF4pel2LrPkZNiFPLqfoqd"/><radialGradient id="yF4pel2LrPkZNiFPLqfoqs" cx="224.325" cy="17.327" r="11.098" gradientTransform="matrix(.873 0 0 1.095 -160.547 14.787)" xlink:href="#yF4pel2LrPkZNiFPLqfoqe"/><radialGradient id="yF4pel2LrPkZNiFPLqfoqt" cx="-936.914" cy="616.473" r="6.583" gradientTransform="matrix(-.012 1.038 1.466 .017 -879.249 989.162)" gradientUnits="userSpaceOnUse"><stop offset="0" stop-color="#b58858"/><stop offset=".232" stop-color="#956c41"/><stop offset=".474" stop-color="#7e572f"/><stop offset=".629" stop-color="#764f2a"/><stop offset=".734" stop-color="#724a25"/><stop offset=".865" stop-color="#623c1c"/><stop offset=".999" stop-color="#4b2a0e"/></radialGradient><radialGradient id="yF4pel2LrPkZNiFPLqfoqu" cx="35.3" cy="37.956" r="1.994" gradientTransform="matrix(1 -.011 .006 .537 -.223 17.96)" xlink:href="#yF4pel2LrPkZNiFPLqfoqf"/><radialGradient id="yF4pel2LrPkZNiFPLqfoqv" cx="35.299" cy="206.73" r="1.056" xlink:href="#yF4pel2LrPkZNiFPLqfoqg"/><radialGradient id="yF4pel2LrPkZNiFPLqfoqw" cx="35.317" cy="38.546" r="1.591" gradientTransform="matrix(.002 1 -1.211 .003 81.911 3.129)" xlink:href="#yF4pel2LrPkZNiFPLqfoqh"/><radialGradient id="yF4pel2LrPkZNiFPLqfoqx" cx="-137.947" cy="100.113" r="2.238" gradientTransform="matrix(1.093 0 0 1.309 186.024 -89.615)" xlink:href="#yF4pel2LrPkZNiFPLqfoqi"/><radialGradient id="yF4pel2LrPkZNiFPLqfoqy" cx="371.303" cy="270.734" r="3.453" xlink:href="#yF4pel2LrPkZNiFPLqfoqj"/><radialGradient id="yF4pel2LrPkZNiFPLqfoqz" cx="211.79" cy="273.542" r="2.856" gradientTransform="matrix(.866 0 0 1.006 -148.14 -234.129)" xlink:href="#yF4pel2LrPkZNiFPLqfoqb"/><radialGradient id="yF4pel2LrPkZNiFPLqfoqD" cx="39.335" cy="-436.084" r="14.298" gradientTransform="matrix(.984 0 0 -1 -19.533 -428)" gradientUnits="userSpaceOnUse"><stop offset="0" stop-color="#f55d53"/><stop offset=".126" stop-color="#ef5346"/><stop offset=".714" stop-color="#dc2718"/><stop offset="1" stop-color="#d5160a"/></radialGradient><linearGradient id="yF4pel2LrPkZNiFPLqfoqk" x1="29.408" x2="32.354" y1="35.334" y2="35.334" gradientUnits="userSpaceOnUse"><stop offset="0" stop-color="#b58858"/><stop offset="1" stop-color="#603a1a"/></linearGradient><linearGradient id="yF4pel2LrPkZNiFPLqfoqo" x1=".898" x2="3.922" y1="35.199" y2="35.199" gradientTransform="translate(14)" xlink:href="#yF4pel2LrPkZNiFPLqfoqc"/><linearGradient id="yF4pel2LrPkZNiFPLqfoqB" x1="24.246" x2="27.192" y1="35.334" y2="35.334" gradientTransform="translate(14)" xlink:href="#yF4pel2LrPkZNiFPLqfoqk"/><linearGradient id="yF4pel2LrPkZNiFPLqfoqc" x1="5.826" x2="8.85" y1="35.199" y2="35.199" gradientUnits="userSpaceOnUse"><stop offset="0" stop-color="#80aefd"/><stop offset="1" stop-color="#2061f9"/></linearGradient></defs><path fill="url(#yF4pel2LrPkZNiFPLqfoqa)" d="M20.341,39.13c-.362,0-.564-.141-.511-.456.105-.628.517-4.988.517-4.988,1.039,0,2.414,0,2.414,1.815C22.761,37.521,21.851,39.13,20.341,39.13Z"/><path fill="url(#yF4pel2LrPkZNiFPLqfoql)" d="M3.406,39.13c.363,0,.564-.141.512-.456-.1-.628-.518-4.988-.518-4.988-1.038,0-2.413,0-2.413,1.815C.987,37.521,1.9,39.13,3.406,39.13Z"/><path fill="url(#yF4pel2LrPkZNiFPLqfoqe)" d="M21.551,33.861c0,2.223-.146,5.122-1.013,6.9a11.219,11.219,0,0,1-8.664,5.626,11.148,11.148,0,0,1-8.712-5.626c-.867-1.779-.965-4.678-.965-6.9,0-.489.013-.95.039-1.387a13.135,13.135,0,0,1,1.585-5.856,8.717,8.717,0,0,1,8.053-4.625A8.7,8.7,0,0,1,19.9,26.566,14.114,14.114,0,0,1,21.551,33.861Z"/><ellipse cx="11.874" cy="37.92" fill="url(#yF4pel2LrPkZNiFPLqfoqf)" rx="2.117" ry="1.21"/><ellipse cx="11.873" cy="37.92" fill="url(#yF4pel2LrPkZNiFPLqfoqg)" rx="1.084" ry=".605"/><path fill="url(#yF4pel2LrPkZNiFPLqfoqh)" d="M13.54,38.669a2.942,2.942,0,0,1-1.666.461,2.942,2.942,0,0,1-1.666-.461c-.175-.09-.29-.047-.29.12a2.009,2.009,0,0,0,3.912,0C13.83,38.622,13.715,38.579,13.54,38.669Z"/><path style="isolation:isolate" d="M22.014,34.732c-.3.048-.241-.214-.24-.472A23.471,23.471,0,0,0,21.443,30c-.024-.078-.223-.152-.29-.193a8.532,8.532,0,0,1-3.017-2.735.313.313,0,0,0-.34-.1c-6.49,2.169-10.84-.064-12.426-1.171a.3.3,0,0,0-.475.257C4.812,28.063,3.141,29.4,2.387,29.97a.471.471,0,0,0-.185.342,33.292,33.292,0,0,1-.155,3.871c-.043.177-.076.367-.179.42H1.88l0,0,.009,0a.391.391,0,0,0,.373-.228,10.417,10.417,0,0,0,.974-3.514.381.381,0,0,1,.157-.276,5.927,5.927,0,0,0,2.265-2.907c.069-.213.168-.294.36-.189a14.475,14.475,0,0,0,11.227.79c.139-.043.347-.06.441.054a7.093,7.093,0,0,0,2.611,2.387.392.392,0,0,1,.191.19c.474,1.053.5,3.466,1.193,3.81a.462.462,0,0,0,.122.029.2.2,0,0,0,.035.008.412.412,0,0,0,.175-.021H22A.069.069,0,0,1,22.014,34.732Z" opacity=".1"/><path style="isolation:isolate" d="M22.01,34.612c-.3.048-.28-.215-.278-.472a23.6,23.6,0,0,0-.341-4.261c-.024-.077-.175-.149-.243-.19a8.528,8.528,0,0,1-3.015-2.733.311.311,0,0,0-.34-.1c-6.487,2.168-10.836-.064-12.42-1.171a.3.3,0,0,0-.475.257c-.083,2.008-1.753,3.347-2.506,3.914a.412.412,0,0,0-.164.325A35.191,35.191,0,0,1,2.084,34.1a.592.592,0,0,1-.211.387l.012,0-.005,0,.01,0a.392.392,0,0,0,.373-.228c.491-.631.722-2.671.82-3.482a.381.381,0,0,1,.156-.275,6.287,6.287,0,0,0,2.319-3.08c.063-.215.168-.293.36-.189a14.815,14.815,0,0,0,11.392.883c.138-.043.346-.061.44.053a6.946,6.946,0,0,0,2.612,2.356.4.4,0,0,1,.191.19c.473,1.053.425,3.546,1.12,3.89a.442.442,0,0,0,.122.029c.012,0,.023.007.035.009a.4.4,0,0,0,.175-.022H22S22.005,34.614,22.01,34.612Z" opacity=".1"/><path style="isolation:isolate" d="M22.005,34.492c-.3.049-.317-.216-.315-.472a23.879,23.879,0,0,0-.35-4.262c-.024-.077-.128-.145-.2-.186a8.523,8.523,0,0,1-3.014-2.732.313.313,0,0,0-.339-.1C11.308,28.9,6.961,26.673,5.377,25.567a.3.3,0,0,0-.475.256C4.819,27.83,3.15,29.168,2.4,29.735a.364.364,0,0,0-.143.309,36.792,36.792,0,0,1-.131,3.968.526.526,0,0,1-.244.352h.012l-.005,0,.01,0a.389.389,0,0,0,.372-.229c.492-.63.569-2.639.666-3.449a.379.379,0,0,1,.156-.275,6.639,6.639,0,0,0,2.372-3.254c.056-.217.168-.294.359-.19a15.15,15.15,0,0,0,11.556.976c.138-.043.346-.061.44.053a6.8,6.8,0,0,0,2.613,2.324.39.39,0,0,1,.19.19c.474,1.053.354,3.626,1.048,3.97a.428.428,0,0,0,.121.029c.013,0,.023.007.036.009A.4.4,0,0,0,22,34.495h-.008S22,34.495,22.005,34.492Z" opacity=".1"/><path style="isolation:isolate" d="M22,34.373c-.3.048-.356-.217-.354-.474a23.9,23.9,0,0,0-.36-4.262.337.337,0,0,0-.147-.183,8.5,8.5,0,0,1-3.012-2.731.314.314,0,0,0-.339-.1c-6.482,2.166-10.827-.063-12.41-1.169a.3.3,0,0,0-.474.257c-.083,2.005-1.751,3.343-2.5,3.91a.32.32,0,0,0-.122.293,38.651,38.651,0,0,1-.119,4.015.49.49,0,0,1-.277.318H1.9l-.005,0,.009,0a.39.39,0,0,0,.373-.229c.491-.63.414-2.607.511-3.417a.379.379,0,0,1,.156-.275A6.975,6.975,0,0,0,5.365,26.9c.049-.218.167-.293.359-.189a15.5,15.5,0,0,0,11.72,1.068c.138-.043.346-.061.44.053A6.672,6.672,0,0,0,20.5,30.12a.388.388,0,0,1,.19.189c.474,1.053.281,3.706.975,4.05a.428.428,0,0,0,.121.029c.012,0,.023.007.035.009A.432.432,0,0,0,22,34.375h-.008S22,34.375,22,34.373Z" opacity=".1"/><path fill="url(#yF4pel2LrPkZNiFPLqfoqm)" d="M2.467,34.334A31.88,31.88,0,0,0,2.5,30.321c.705-.5,2.8-2.254,2.489-4.606.9.732,5.427,3.808,12.834,1.38,1.646,1.966,1.966,2.309,3.22,3.041a18.3,18.3,0,0,1,.4,4.134c-.04.463.465.763.739-.2a35.673,35.673,0,0,0,.531-4.7c.12-3.891-1.343-9.667-10.956-9.667C2.434,19.7.948,25.51.948,29.459a27.236,27.236,0,0,0,.427,4.61C1.484,34.646,2.321,34.836,2.467,34.334Z"/><path fill="#c78e24" d="M4.1,24.347c.02,2.773-1,4.222-1.928,4.85-.112.076-.217.153-.306.222a.394.394,0,0,0-.145.323c-.017.882-.022,2.444.054,3.365.021.275.044.534.076.747a1.759,1.759,0,0,0,.131.522.264.264,0,0,0,.2.155c.107.039.233-.04.292-.282.007-.139.127-2.726.027-3.727a.394.394,0,0,1,.18-.3,5.18,5.18,0,0,0,2.394-3.593A.412.412,0,0,1,5.61,26.3q.115.063.255.153c1.717,1.074,5.785,2.837,11.707.945a.452.452,0,0,1,.387.061c.046.04.092.083.136.127.073.078.156.171.221.247a7.39,7.39,0,0,0,2.523,2.148.65.65,0,0,1,.213.214c.026.058.053.123.079.193a1.432,1.432,0,0,1,.045.148c.005.021.011.043.015.065.054.278.1.622.134.988a24.468,24.468,0,0,1,.109,2.591c-.018.277.125.507.265.473h0a.147.147,0,0,0,.088-.048.441.441,0,0,0,.108-.174,1.807,1.807,0,0,0,.083-.234,6.661,6.661,0,0,0,.1-.963,15.964,15.964,0,0,0-.279-4.2.314.314,0,0,0-.139-.172l-.041-.026c-1.106-.668-1.954-1.855-3.4-3.6a.319.319,0,0,0-.339-.1A16.384,16.384,0,0,1,4.721,24.006.451.451,0,0,0,4.1,24.347Z" opacity=".167"/><path fill="#c78e24" d="M4.187,24.582c.049,2.662-1.062,4.126-2.005,4.734a1.22,1.22,0,0,0-.281.241.464.464,0,0,0-.111.328c0,.934-.01,2.559.051,3.3.017.266.035.525.062.738.025.239.1.512.135.5.06.056.128.106.2.076.086.032.189-.064.239-.309.014-.278.126-2.714.03-3.657a.377.377,0,0,1,.168-.3A5.2,5.2,0,0,0,5.08,26.68c.011-.187.275-.457.512-.365a1.69,1.69,0,0,1,.265.146c1.711,1.07,5.756,2.825,11.643.969a.582.582,0,0,1,.395.022,1.042,1.042,0,0,1,.146.1,2.942,2.942,0,0,1,.225.237A7.391,7.391,0,0,0,20.76,29.95a.787.787,0,0,1,.219.2c.035.054.07.115.106.18a.785.785,0,0,1,.059.141c.006.021.014.042.019.064a9.349,9.349,0,0,1,.141.978,24.789,24.789,0,0,1,.118,2.566c-.012.278.1.506.217.5l0,0a.085.085,0,0,0,.072-.009.2.2,0,0,0,.1-.094.988.988,0,0,0,.111-.173,3.777,3.777,0,0,0,.123-.959,17.219,17.219,0,0,0-.318-4.22.314.314,0,0,0-.132-.168l-.042-.026a14.458,14.458,0,0,1-3.338-3.394.319.319,0,0,0-.339-.1,16.162,16.162,0,0,1-13.1-1.187A.421.421,0,0,0,4.187,24.582Z" opacity=".333"/><path fill="#c78e24" d="M4.28,24.816A5.038,5.038,0,0,1,2.2,29.434a.69.69,0,0,0-.256.26.629.629,0,0,0-.075.334c.02.985,0,2.675.046,3.228.015.257.027.516.05.728.021.244.087.494.139.469.071.027.133.06.2,0,.065.024.144-.089.185-.338.021-.415.125-2.7.034-3.587a.352.352,0,0,1,.155-.291,5.207,5.207,0,0,0,2.418-3.5c.01-.156.234-.467.487-.4a1.061,1.061,0,0,1,.274.14c1.7,1.065,5.727,2.812,11.578.992a.839.839,0,0,1,.405-.017.617.617,0,0,1,.155.076,2.045,2.045,0,0,1,.229.227,7.372,7.372,0,0,0,2.465,2.17,1.053,1.053,0,0,1,.225.184c.043.052.088.107.134.167a.6.6,0,0,1,.072.136c.007.02.016.04.022.062a8.131,8.131,0,0,1,.15.967c.1.949.13,2.067.127,2.541-.007.28.08.5.168.529l0,0a.086.086,0,0,0,.057.028.089.089,0,0,0,.1-.013.377.377,0,0,0,.139-.112,2.4,2.4,0,0,0,.144-.955,18.878,18.878,0,0,0-.357-4.243.312.312,0,0,0-.125-.163l-.042-.027a12.665,12.665,0,0,1-3.273-3.187.319.319,0,0,0-.339-.1A15.943,15.943,0,0,1,4.847,24.492.391.391,0,0,0,4.28,24.816Z" opacity=".5"/><path fill="#c78e24" d="M4.373,25.051a4.861,4.861,0,0,1-2.162,4.5.478.478,0,0,0-.231.279.971.971,0,0,0-.04.34c.038,1.037.012,2.79.042,3.159.012.248.019.508.037.719.018.249.073.476.142.443.083,0,.139.013.194-.079.043.016.1-.113.131-.366a35.157,35.157,0,0,0,.038-3.517.332.332,0,0,1,.143-.286A5.229,5.229,0,0,0,5.1,26.782c.009-.124.193-.477.463-.431a.792.792,0,0,1,.283.133c1.7,1.061,5.7,2.8,11.513,1.016a1.392,1.392,0,0,1,.414-.056.411.411,0,0,1,.164.051,1.367,1.367,0,0,1,.234.216A7.378,7.378,0,0,0,20.6,29.892a1.586,1.586,0,0,1,.232.17c.052.048.105.1.161.154a.616.616,0,0,1,.111.19,6.957,6.957,0,0,1,.158.957c.1.9.133,1.982.137,2.516a.942.942,0,0,0,.118.556l0,.006a.179.179,0,0,0,.042.066c.026.038.051.066.093.067s.086,0,.167-.049a1.691,1.691,0,0,0,.164-.952,21.043,21.043,0,0,0-.4-4.266.305.305,0,0,0-.118-.158.494.494,0,0,0-.042-.027,11.076,11.076,0,0,1-3.208-2.98.319.319,0,0,0-.339-.1A15.723,15.723,0,0,1,4.91,24.734.364.364,0,0,0,4.373,25.051Z" opacity=".667"/><path fill="#c78e24" d="M4.465,25.286a4.7,4.7,0,0,1-2.24,4.385.374.374,0,0,0-.206.3,2.394,2.394,0,0,0-.005.344c.058,1.089.023,2.907.038,3.091.01.239.011.5.025.71.015.254.059.458.145.416s.146-.033.191-.156c.022.007.055-.138.077-.394a33.051,33.051,0,0,0,.042-3.448.314.314,0,0,1,.131-.281c.706-.515,2.254-1.649,2.44-3.418.008-.093.152-.487.438-.464a.632.632,0,0,1,.292.126c1.691,1.057,5.668,2.788,11.448,1.04a3.419,3.419,0,0,1,.424-.095.327.327,0,0,1,.173.026,1.048,1.048,0,0,1,.238.2,7.392,7.392,0,0,0,2.406,2.192c.076.044.163.1.238.156.06.044.123.09.188.14a.371.371,0,0,1,.1.123.364.364,0,0,1,.03.059,6.292,6.292,0,0,1,.166.948c.1.857.135,1.9.146,2.491a2,2,0,0,0,.069.584v.008a.457.457,0,0,0,.027.1.283.283,0,0,0,.088.148.188.188,0,0,0,.195.012c.085-.065.193-.259.184-.948a23.988,23.988,0,0,0-.436-4.289.3.3,0,0,0-.11-.153l-.042-.028a9.643,9.643,0,0,1-3.143-2.773.319.319,0,0,0-.339-.1,15.511,15.511,0,0,1-12.91-1.367A.338.338,0,0,0,4.465,25.286Z" opacity=".833"/><path fill="#c78e24" d="M21.445,29.49a.32.32,0,0,0-.145-.178,8.366,8.366,0,0,1-3.078-2.565.319.319,0,0,0-.339-.1A15.3,15.3,0,0,1,5.036,25.22a.313.313,0,0,0-.478.3A4.56,4.56,0,0,1,2.24,29.789a.321.321,0,0,0-.181.317c.116,1.048.064,3.372.064,3.372.014.516-.027,1.182.16,1.091a.289.289,0,0,0,.189-.235s.171-2.861.069-3.8a.3.3,0,0,1,.118-.276c.7-.511,2.248-1.625,2.451-3.375.009-.079.178-.768.714-.377,1.727,1.079,5.838,2.862,11.817.929a.3.3,0,0,1,.183,0,.853.853,0,0,1,.242.2A7.611,7.611,0,0,0,20.9,30.1a.322.322,0,0,1,.112.117.249.249,0,0,1,.033.057,5.493,5.493,0,0,1,.174.938c.15,1.162.152,2.714.176,3.077v.01a.833.833,0,0,0,.012.142.543.543,0,0,0,.082.227.219.219,0,0,0,.224.074c.095-.016.219-.183.2-.944A28.031,28.031,0,0,0,21.445,29.49Z"/><g><path fill="url(#yF4pel2LrPkZNiFPLqfoqi)" d="M11.844,43.251c-2.514,0-2.6-1.47-2.6-1.47s.062,2.939,2.6,2.939,2.6-2.939,2.6-2.939S14.359,43.251,11.844,43.251Z"/><path fill="url(#yF4pel2LrPkZNiFPLqfoqj)" d="M14.633,41.549s.035,1.815-2.76,1.815-2.76-1.815-2.76-1.815.613.553,2.76.553S14.633,41.549,14.633,41.549Z"/><path fill="url(#yF4pel2LrPkZNiFPLqfoqb)" d="M14.558,41.072a6.152,6.152,0,0,1-2.684.477,6.152,6.152,0,0,1-2.684-.477C8.9,40.9,8.7,41.329,9,41.649a4.273,4.273,0,0,0,5.746,0C15.049,41.329,14.852,40.9,14.558,41.072Z"/></g><path fill="#6b481d" d="M4.619,35.224c-.017.265.042.242.149.375,0,0,1.211,1.591,4.862.5.264-.09.454-.26.427-.466A2.761,2.761,0,0,0,4.619,35.224Z"/><path fill="#fff" d="M4.674,35.189a.546.546,0,0,0,0,.488c.26.657,2.351,3,5.172.54a.469.469,0,0,0,.192-.543,2.936,2.936,0,0,0-2.7-1.988A2.815,2.815,0,0,0,4.674,35.189Z"/><circle cx="7.338" cy="35.199" r="1.512" fill="url(#yF4pel2LrPkZNiFPLqfoqc)"/><circle cx="7.338" cy="35.199" r=".765" fill="url(#yF4pel2LrPkZNiFPLqfoqn)"/><path fill="#6b481d" d="M19.129,35.217c.017.266-.042.244-.149.377,0,0-1.211,1.6-4.862.5-.264-.091-.454-.262-.427-.468A2.758,2.758,0,0,1,19.129,35.217Z"/><path fill="#fff" d="M19.074,35.189a.546.546,0,0,1,0,.488c-.26.657-2.351,3-5.172.54a.469.469,0,0,1-.192-.543,2.936,2.936,0,0,1,2.7-1.988A2.817,2.817,0,0,1,19.074,35.189Z"/><circle cx="16.41" cy="35.199" r="1.512" fill="url(#yF4pel2LrPkZNiFPLqfoqo)"/><circle cx="16.41" cy="35.199" r=".765" fill="url(#yF4pel2LrPkZNiFPLqfoqp)"/><circle cx="6.733" cy="34.594" r=".302" fill="#fff"/><circle cx="15.805" cy="34.594" r=".302" fill="#fff"/><path fill="#ba7d0d" d="M5.579,31.925a7.748,7.748,0,0,1,.819-.27c.272-.074.546-.137.821-.194a16.122,16.122,0,0,1,1.669-.241h0a.618.618,0,1,1,.115,1.23.664.664,0,0,1-.118,0,15.257,15.257,0,0,0-1.571-.076c-.263,0-.525.012-.786.032a7.064,7.064,0,0,0-.761.094l-.022,0a.3.3,0,0,1-.169-.578Z"/><path fill="#ba7d0d" d="M17.9,32.429c-.241-.031-.515-.051-.776-.061s-.529-.013-.794-.01c-.529.008-1.059.039-1.585.091a.617.617,0,1,1,0-1.229c.557.052,1.113.126,1.663.224.275.05.55.105.822.17s.538.135.824.23a.3.3,0,0,1-.136.588Z"/><g><path fill="url(#yF4pel2LrPkZNiFPLqfoqq)" d="M47.431,41.31c-1.831-4.219-1.419-6.856-1.635-7.682a12.43,12.43,0,0,1-.009-2.877A26.159,26.159,0,0,0,35.3,28.712a26.168,26.168,0,0,0-10.488,2.039,12.372,12.372,0,0,1-.009,2.877c-.215.826.2,3.463-1.634,7.682-.632,1.176.17,1.657.17,1.657A33.7,33.7,0,0,0,35.3,45.056a33.691,33.691,0,0,0,11.96-2.089S48.063,42.486,47.431,41.31Z"/><path fill="#4b2a0e" d="M47.431,41.31c-1.831-4.219-1.419-6.856-1.635-7.682a12.43,12.43,0,0,1-.009-2.877l-1.8.371c-.051.682.072,3.069.089,3.432a14.449,14.449,0,0,0,1.005,6.357c.271.623.159.834.085.9-.564.224-3.466,1.474-9.864,1.474s-9.3-1.25-9.865-1.474c-.074-.069-.186-.28.086-.9a14.464,14.464,0,0,0,1-6.357c.017-.363.14-2.75.088-3.432l-1.8-.371a12.372,12.372,0,0,1-.009,2.877c-.215.826.2,3.463-1.634,7.682-.632,1.176.17,1.657.17,1.657A33.7,33.7,0,0,0,35.3,45.056a33.691,33.691,0,0,0,11.96-2.089S48.063,42.486,47.431,41.31Z" opacity=".19"/><path fill="#4b2a0e" d="M47.431,41.31c-1.831-4.219-1.419-6.856-1.635-7.682a12.43,12.43,0,0,1-.009-2.877l-1.6.371c-.052.682.078,3.077.1,3.44a15.322,15.322,0,0,0,1.1,6.455c.271.622.159.834.085.9-.564.225-3.768,1.566-10.166,1.566s-9.6-1.341-10.166-1.566c-.074-.068-.186-.28.085-.9a15.322,15.322,0,0,0,1.1-6.455c.017-.363.147-2.758.1-3.44l-1.606-.371a12.372,12.372,0,0,1-.009,2.877c-.215.826.2,3.463-1.634,7.682-.632,1.176.17,1.657.17,1.657A33.7,33.7,0,0,0,35.3,45.056a33.691,33.691,0,0,0,11.96-2.089S48.063,42.486,47.431,41.31Z" opacity=".325"/><path fill="#4b2a0e" d="M47.431,41.31c-1.831-4.219-1.419-6.856-1.635-7.682a12.43,12.43,0,0,1-.009-2.877l-1.409.371c-.051.682.086,3.084.1,3.447a16.26,16.26,0,0,0,1.2,6.553c.271.623.159.834.085.9-.564.224-4.07,1.656-10.468,1.656s-9.9-1.432-10.468-1.656c-.074-.069-.186-.28.085-.9a16.237,16.237,0,0,0,1.2-6.553c.018-.363.155-2.765.1-3.447l-1.409-.371a12.372,12.372,0,0,1-.009,2.877c-.215.826.2,3.463-1.634,7.682-.632,1.176.17,1.657.17,1.657A33.7,33.7,0,0,0,35.3,45.056a33.691,33.691,0,0,0,11.96-2.089S48.063,42.486,47.431,41.31Z" opacity=".46"/><path fill="#4b2a0e" d="M47.431,41.31c-1.831-4.219-1.419-6.856-1.635-7.682a12.43,12.43,0,0,1-.009-2.877l-1.212.371c-.052.682.093,3.091.11,3.454a17.216,17.216,0,0,0,1.3,6.652c.271.622.159.834.085.9A29.3,29.3,0,0,1,35.3,43.877,29.3,29.3,0,0,1,24.53,42.13c-.074-.068-.186-.28.085-.9a17.235,17.235,0,0,0,1.3-6.652c.017-.363.161-2.772.11-3.454l-1.213-.371a12.372,12.372,0,0,1-.009,2.877c-.215.826.2,3.463-1.634,7.682-.632,1.176.17,1.657.17,1.657A33.7,33.7,0,0,0,35.3,45.056a33.691,33.691,0,0,0,11.96-2.089S48.063,42.486,47.431,41.31Z" opacity=".595"/><path fill="#4b2a0e" d="M47.431,41.31c-1.831-4.219-1.419-6.856-1.635-7.682a12.43,12.43,0,0,1-.009-2.877l-1.016.371c-.051.682.1,3.1.118,3.461a18.241,18.241,0,0,0,1.4,6.75c.272.623.16.834.086.9A30.783,30.783,0,0,1,35.3,44.074a30.777,30.777,0,0,1-11.072-1.838c-.074-.069-.186-.28.085-.9a18.226,18.226,0,0,0,1.4-6.75c.017-.363.169-2.779.118-3.461l-1.017-.371a12.372,12.372,0,0,1-.009,2.877c-.215.826.2,3.463-1.634,7.682-.632,1.176.17,1.657.17,1.657A33.7,33.7,0,0,0,35.3,45.056a33.691,33.691,0,0,0,11.96-2.089S48.063,42.486,47.431,41.31Z" opacity=".73"/><path fill="#4b2a0e" d="M47.431,41.31c-1.831-4.219-1.419-6.856-1.635-7.682a12.43,12.43,0,0,1-.009-2.877l-.82.371c-.051.682.108,3.106.125,3.469a19.327,19.327,0,0,0,1.5,6.848c.272.622.16.834.086.9A32.24,32.24,0,0,1,35.3,44.27a32.234,32.234,0,0,1-11.374-1.929c-.074-.068-.186-.28.085-.9a19.3,19.3,0,0,0,1.5-6.848c.018-.363.177-2.787.125-3.469l-.82-.371a12.372,12.372,0,0,1-.009,2.877c-.215.826.2,3.463-1.634,7.682-.632,1.176.17,1.657.17,1.657A33.7,33.7,0,0,0,35.3,45.056a33.691,33.691,0,0,0,11.96-2.089S48.063,42.486,47.431,41.31Z" opacity=".865"/><path fill="#4b2a0e" d="M47.431,41.31c-1.831-4.219-1.419-6.856-1.635-7.682a12.43,12.43,0,0,1-.009-2.877l-.623.371c-.052.682.115,3.113.132,3.476a20.425,20.425,0,0,0,1.594,6.946c.271.623.159.834.085.9a34.736,34.736,0,0,1-23.351,0c-.074-.068-.186-.279.085-.9A20.457,20.457,0,0,0,25.3,34.6c.017-.363.183-2.794.132-3.476l-.624-.371a12.372,12.372,0,0,1-.009,2.877c-.215.826.2,3.463-1.634,7.682-.632,1.176.17,1.657.17,1.657A33.7,33.7,0,0,0,35.3,45.056a33.691,33.691,0,0,0,11.96-2.089S48.063,42.486,47.431,41.31Z"/><path fill="url(#yF4pel2LrPkZNiFPLqfoqd)" d="M42.96,39.164c-.354,0-.55-.138-.5-.444.1-.613.5-4.859.5-4.859,1.012,0,2.352,0,2.352,1.767C45.317,37.6,44.43,39.164,42.96,39.164Z"/><path fill="url(#yF4pel2LrPkZNiFPLqfoqr)" d="M27.64,39.164c.353,0,.549-.138.5-.444-.1-.613-.5-4.859-.5-4.859-1.011,0-2.351,0-2.351,1.767C25.283,37.6,26.17,39.164,27.64,39.164Z"/><path fill="url(#yF4pel2LrPkZNiFPLqfoqs)" d="M44.727,34.309a15.194,15.194,0,0,1-2.144,6.877c-2.11,3.382-5.365,5.048-7.3,5.048-1.88,0-5.3-1.691-7.318-5.048a15.593,15.593,0,0,1-2.1-6.877c0-.486.013-3.93.038-4.366.144-2.508,1.867-8.653,9.39-8.653s9.2,6,9.369,8.356C44.708,30.17,44.727,33.712,44.727,34.309Z"/><g><path style="isolation:isolate" d="M44.912,32.961c-.2-.672-2.185-2.889-3.532-4.5a.732.732,0,0,0-.676-.246,12.2,12.2,0,0,1-8.121-1.666.724.724,0,0,0-.958.146c-1.551,1.947-5.957,6.653-5.955,6.651s.146.046.146.053c3.167-1.123,4.615-3.1,6.205-5.1.232-.29.326-.284.639-.086a11.635,11.635,0,0,0,7.61,1.522.7.7,0,0,1,.677.246,15.3,15.3,0,0,0,4.037,3.768C44.985,33.743,44.938,33.02,44.912,32.961Z" opacity=".1"/><path style="isolation:isolate" d="M44.869,32.74c-.2-.672-2.185-2.889-3.532-4.5A.732.732,0,0,0,40.661,28a12.2,12.2,0,0,1-8.121-1.666.726.726,0,0,0-.959.146c-1.549,1.947-5.956,6.653-5.953,6.651s.2.221.2.229c2.958-1.3,4.5-3.283,6.088-5.28.232-.291.385-.326.7-.127a11.815,11.815,0,0,0,7.777,1.561.636.636,0,0,1,.645.238,18.658,18.658,0,0,0,3.9,3.866C44.936,33.606,44.9,32.8,44.869,32.74Z" opacity=".1"/><path style="isolation:isolate" d="M44.827,32.519c-.2-.672-2.185-2.889-3.532-4.5a.736.736,0,0,0-.677-.246A12.2,12.2,0,0,1,32.5,26.108a.725.725,0,0,0-.958.146c-1.551,1.947-5.957,6.653-5.955,6.652s.254.4.254.4a18.883,18.883,0,0,0,5.971-5.46c.232-.29.444-.366.757-.168a12.008,12.008,0,0,0,7.945,1.6.577.577,0,0,1,.613.23,24.026,24.026,0,0,0,3.763,3.964C44.887,33.469,44.852,32.578,44.827,32.519Z" opacity=".1"/><path style="isolation:isolate" d="M44.784,32.3c-.2-.672-2.185-2.889-3.532-4.5a.736.736,0,0,0-.677-.246,12.2,12.2,0,0,1-8.121-1.666.725.725,0,0,0-.958.146c-1.55,1.947-5.957,6.653-5.954,6.652s.307.573.307.581A24.383,24.383,0,0,0,31.7,27.625c.232-.291.5-.407.816-.209a12.189,12.189,0,0,0,8.111,1.639.524.524,0,0,1,.583.222,34.5,34.5,0,0,0,3.625,4.062C44.838,33.332,44.809,32.357,44.784,32.3Z" opacity=".1"/></g><path fill="url(#yF4pel2LrPkZNiFPLqfoqt)" d="M25.67,33.347a58.215,58.215,0,0,0,5.947-6.321.706.706,0,0,1,.951-.149,11.838,11.838,0,0,0,8.058,1.7.718.718,0,0,1,.671.252c1.377,1.691,2.44,3.945,3.59,4.649.623.966.782-.074.871.532.332-2.762.98-13.7-10.54-13.7a4.988,4.988,0,0,0-3.265.955,3.512,3.512,0,0,0-1.97.23c-6.347,3.025-5.122,11.219-5.195,12.454A2.505,2.505,0,0,1,25.67,33.347Z"/><g><path fill="#4b2a0e" d="M44.724,31.385a37.388,37.388,0,0,0-2.75-4.184.723.723,0,0,0-.675-.242,11.779,11.779,0,0,1-7.723-1.224c-.384-.325-1.084-.751-.93-2.575.08-.941-1.395-.954-1.789.054a4.845,4.845,0,0,0-.4,2.634c.083.267-.413.761-.448.8A36.647,36.647,0,0,1,25.67,31.63c-.867.784-.94,3.323-.946,3.444a2.164,2.164,0,0,1,1.219-2.119,33.513,33.513,0,0,0,5.69-5.687.8.8,0,0,1,1-.136,12.094,12.094,0,0,0,8.037,1.654.958.958,0,0,1,.784.276c1.331,1.641,1.775,2.582,2.8,3.677.725.757,1.55,1.477,1.641,2.069A9.769,9.769,0,0,0,44.724,31.385Z" opacity=".167"/><path fill="#4b2a0e" d="M44.648,31.623c-.709-1.1-1.469-2.445-2.771-4.17a.708.708,0,0,0-.674-.242,11.968,11.968,0,0,1-7.8-1.291c-.384-.325-1.068-.784-.907-2.7.074-.865-1.177-.821-1.508.035a5.08,5.08,0,0,0-.312,2.672c.083.267-.33.681-.364.726a34.2,34.2,0,0,1-4.585,5.222c-.865.769-.991,2.96-1,3.2a2.224,2.224,0,0,1,1.225-2.007,32.4,32.4,0,0,0,5.688-5.787.781.781,0,0,1,.995-.137,12.147,12.147,0,0,0,8.049,1.65.893.893,0,0,1,.762.269c1.279,1.654,1.735,2.519,2.833,3.762.7.767,1.533,1.464,1.625,2.065A9.049,9.049,0,0,0,44.648,31.623Z" opacity=".333"/><path fill="#4b2a0e" d="M44.571,31.86c-.732-1.129-1.529-2.383-2.79-4.155a.693.693,0,0,0-.675-.242A12.162,12.162,0,0,1,33.225,26.1c-.385-.324-1.054-.816-.885-2.828.069-.789-.958-.689-1.227.016a5.308,5.308,0,0,0-.22,2.71c.083.267-.247.6-.281.647a32.47,32.47,0,0,1-4.834,5.467,4.976,4.976,0,0,0-1.061,2.958,2.327,2.327,0,0,1,1.232-1.9,30.738,30.738,0,0,0,5.686-5.886.768.768,0,0,1,.984-.139A12.189,12.189,0,0,0,40.68,28.8a.833.833,0,0,1,.741.262c1.226,1.667,1.7,2.456,2.869,3.846.683.779,1.516,1.453,1.61,2.062A8.247,8.247,0,0,0,44.571,31.86Z" opacity=".5"/><path fill="#4b2a0e" d="M44.494,32.1c-.755-1.155-1.59-2.321-2.81-4.141a.682.682,0,0,0-.675-.242,12.351,12.351,0,0,1-7.96-1.425c-.384-.325-1.038-.849-.862-2.955.063-.712-.74-.556-.945,0a5.542,5.542,0,0,0-.129,2.746c.083.267-.164.523-.2.569a31.145,31.145,0,0,1-5.083,5.712,4.293,4.293,0,0,0-1.118,2.715,2.486,2.486,0,0,1,1.238-1.785A28.819,28.819,0,0,0,31.635,27.3a.756.756,0,0,1,.975-.141,12.224,12.224,0,0,0,8.073,1.644.77.77,0,0,1,.718.255c1.175,1.68,1.658,2.393,2.906,3.931.662.789,1.5,1.441,1.595,2.059A7.356,7.356,0,0,0,44.494,32.1Z" opacity=".667"/><path fill="#4b2a0e" d="M44.417,32.335c-.777-1.181-1.651-2.259-2.83-4.127a.669.669,0,0,0-.674-.242,12.544,12.544,0,0,1-8.04-1.493c-.384-.324-1.022-.881-.838-3.081.056-.636-.523-.423-.665-.021a5.792,5.792,0,0,0-.037,2.784.514.514,0,0,1-.114.49A30.12,30.12,0,0,1,25.886,32.6a3.659,3.659,0,0,0-1.175,2.473A2.741,2.741,0,0,1,25.955,33.4c3.158-2.452,3.664-3.59,5.681-6.085a.742.742,0,0,1,.965-.142,12.272,12.272,0,0,0,8.085,1.64.717.717,0,0,1,.7.248,49.446,49.446,0,0,0,2.942,4.015c.641.8,1.482,1.429,1.58,2.056C45.84,34.077,44.948,33.142,44.417,32.335Z" opacity=".833"/><path fill="#4b2a0e" d="M44.341,32.572c-.8-1.206-1.712-2.2-2.85-4.112a.656.656,0,0,0-.675-.242,12.75,12.75,0,0,1-8.118-1.56c-.384-.325-1.007-.914-.816-3.208.05-.56-.3-.29-.383-.04a6.036,6.036,0,0,0,.054,2.822c.082.267,0,.365-.031.411a29.385,29.385,0,0,1-5.582,6.2,3.084,3.084,0,0,0-1.233,2.23,3.19,3.19,0,0,1,1.251-1.562c3.606-2.827,3.662-3.689,5.679-6.185a.73.73,0,0,1,.955-.143,12.3,12.3,0,0,0,8.1,1.636.67.67,0,0,1,.675.243,44.758,44.758,0,0,0,2.978,4.1c.62.811,1.465,1.418,1.565,2.053C45.823,34.036,44.858,33.35,44.341,32.572Z"/></g><ellipse cx="35.3" cy="37.985" fill="url(#yF4pel2LrPkZNiFPLqfoqu)" rx="2.062" ry="1.178"/><ellipse cx="35.299" cy="37.985" fill="url(#yF4pel2LrPkZNiFPLqfoqv)" rx="1.056" ry=".589"/><path fill="url(#yF4pel2LrPkZNiFPLqfoqw)" d="M36.923,38.715a3.158,3.158,0,0,1-3.246,0c-.17-.088-.283-.046-.283.116a1.957,1.957,0,0,0,3.811,0C37.205,38.669,37.093,38.627,36.923,38.715Z"/></g><g><path fill="url(#yF4pel2LrPkZNiFPLqfoqx)" d="M35.271,43.178c-2.45,0-2.533-1.432-2.533-1.432s.06,2.864,2.533,2.864S37.8,41.746,37.8,41.746,37.721,43.178,35.271,43.178Z"/><path fill="url(#yF4pel2LrPkZNiFPLqfoqy)" d="M37.988,41.52s.034,1.768-2.689,1.768S32.61,41.52,32.61,41.52s.6.539,2.689.539S37.988,41.52,37.988,41.52Z"/><path fill="url(#yF4pel2LrPkZNiFPLqfoqz)" d="M32.68,41.056c-.285-.173-.476.25-.183.562A4.218,4.218,0,0,0,35.27,42.7a5.226,5.226,0,0,0,2.764-1.081c.316-.222.283-.832-.149-.562a5.51,5.51,0,0,1-2.6.483A5.442,5.442,0,0,1,32.68,41.056Z"/></g><path fill="#6b481d" d="M28.232,35.358c-.017.258.041.237.145.366,0,0,1.18,1.55,4.737.489.257-.088.442-.254.416-.454A2.69,2.69,0,0,0,28.232,35.358Z"/><path fill="#fff" d="M28.286,35.324a.528.528,0,0,0,0,.475c.253.641,2.29,2.921,5.038.527a.458.458,0,0,0,.187-.529,2.861,2.861,0,0,0-2.629-1.936A2.742,2.742,0,0,0,28.286,35.324Z"/><circle cx="30.881" cy="35.334" r="1.473" fill="url(#yF4pel2LrPkZNiFPLqfoqk)"/><circle cx="30.881" cy="35.334" r=".746" fill="url(#yF4pel2LrPkZNiFPLqfoqA)"/><path fill="#6b481d" d="M42.367,35.351c.018.26-.04.238-.145.368,0,0-1.179,1.559-4.736.491-.257-.087-.443-.254-.416-.455A2.687,2.687,0,0,1,42.367,35.351Z"/><path fill="#fff" d="M42.314,35.324a.528.528,0,0,1,0,.475c-.254.641-2.29,2.921-5.039.527a.457.457,0,0,1-.186-.529,2.859,2.859,0,0,1,2.628-1.936A2.744,2.744,0,0,1,42.314,35.324Z"/><circle cx="39.719" cy="35.334" r="1.473" fill="url(#yF4pel2LrPkZNiFPLqfoqB)"/><circle cx="39.719" cy="35.334" r=".746" fill="url(#yF4pel2LrPkZNiFPLqfoqC)"/><circle cx="30.291" cy="34.744" r=".295" fill="#fff"/><circle cx="39.13" cy="34.744" r=".295" fill="#fff"/><path fill="#6b481d" d="M29.167,32.145a7.355,7.355,0,0,1,.8-.263c.265-.073.532-.134.8-.189a15.878,15.878,0,0,1,1.626-.236h0a.6.6,0,1,1,.112,1.2.631.631,0,0,1-.115,0,14.763,14.763,0,0,0-1.531-.074c-.255,0-.511.011-.765.031a6.963,6.963,0,0,0-.742.092l-.021,0a.295.295,0,0,1-.165-.563Z"/><path fill="#6b481d" d="M41.172,32.636c-.235-.031-.5-.05-.755-.06s-.516-.013-.774-.01q-.774.012-1.544.089a.6.6,0,0,1-.118-1.2.775.775,0,0,1,.118,0q.815.076,1.62.219c.268.049.535.1.8.166s.524.131.8.224a.295.295,0,0,1-.132.572Z"/><path fill="url(#yF4pel2LrPkZNiFPLqfoqD)" d="M29.57,2.537A8.554,8.554,0,0,0,24,4.8a8.517,8.517,0,0,0-5.573-2.264,6.741,6.741,0,0,0-6.689,6.794C11.736,16.126,24,22.919,24,22.919s12.261-6.8,12.261-13.588A6.741,6.741,0,0,0,29.57,2.537Z"/></svg>