<?xml version="1.0" encoding="utf-8"?>
<!-- Generator: Adobe Illustrator 24.0.1, SVG Export Plug-In . SVG Version: 6.00 Build 0)  -->
<svg version="1.1" id="Layer_1" xmlns="http://www.w3.org/2000/svg" xmlns:xlink="http://www.w3.org/1999/xlink" x="0px" y="0px"
	 viewBox="0 0 48 48" style="enable-background:new 0 0 48 48;" xml:space="preserve">
<style type="text/css">
	.st0{fill:url(#SVGID_1_);}
	.st1{fill:#1662D4;}
	.st2{fill:url(#SVGID_2_);}
	.st3{fill:url(#SVGID_3_);}
	.st4{fill:#155728;}
	.st5{fill:url(#SVGID_4_);}
	.st6{fill:url(#SVGID_5_);}
	.st7{fill:url(#SVGID_6_);}
	.st8{fill:url(#SVGID_7_);}
	.st9{fill:url(#SVGID_8_);}
	.st10{fill:url(#SVGID_9_);}
	.st11{fill:url(#SVGID_10_);}
	.st12{fill:url(#SVGID_11_);}
	.st13{fill:url(#SVGID_12_);}
	.st14{fill:url(#SVGID_13_);}
	.st15{fill:url(#SVGID_14_);}
	.st16{fill:url(#SVGID_15_);}
	.st17{fill:url(#SVGID_16_);}
	.st18{fill:url(#SVGID_17_);}
	.st19{fill:url(#SVGID_18_);}
	.st20{fill:url(#SVGID_19_);}
	.st21{fill:url(#SVGID_20_);}
	.st22{fill:url(#SVGID_21_);}
	.st23{fill:#C7B299;}
	.st24{fill:url(#SVGID_22_);}
	.st25{fill:url(#SVGID_23_);}
	.st26{fill:url(#SVGID_24_);}
	.st27{fill:url(#SVGID_25_);}
	.st28{fill:url(#SVGID_26_);}
	.st29{fill:url(#SVGID_27_);}
	.st30{fill:url(#SVGID_28_);}
	.st31{fill:url(#SVGID_29_);}
	.st32{fill:url(#SVGID_30_);}
	.st33{fill:url(#SVGID_31_);}
	.st34{fill:url(#SVGID_32_);}
	.st35{fill:url(#SVGID_33_);}
	.st36{fill:url(#SVGID_34_);}
	.st37{fill:url(#SVGID_35_);}
	.st38{fill:url(#SVGID_36_);}
	.st39{fill:url(#SVGID_37_);}
	.st40{fill:url(#SVGID_38_);}
	.st41{fill:url(#SVGID_39_);}
	.st42{fill:url(#SVGID_40_);}
	.st43{fill:url(#SVGID_41_);}
	.st44{fill:#8E2809;}
	.st45{fill:#601808;}
	.st46{fill:url(#SVGID_42_);}
	.st47{fill:#F1B31F;}
	.st48{fill:#ECB125;}
	.st49{fill:#E7AF2C;}
	.st50{fill:#E2AD32;}
	.st51{fill:#DDAB38;}
	.st52{fill:#D9A93F;}
	.st53{fill:#D4A745;}
	.st54{fill:#CFA54B;}
	.st55{fill:#CAA352;}
	.st56{fill:#C5A058;}
	.st57{fill:#C09E5E;}
	.st58{fill:#BB9C64;}
	.st59{fill:#B69A6B;}
	.st60{fill:#B29871;}
	.st61{fill:#AD9677;}
	.st62{fill:#A8947E;}
	.st63{fill:#A39284;}
	.st64{fill:url(#SVGID_43_);}
	.st65{fill:url(#SVGID_44_);}
	.st66{fill:url(#SVGID_45_);}
	.st67{fill:url(#SVGID_46_);}
	.st68{fill:url(#SVGID_47_);}
	.st69{fill:url(#SVGID_48_);}
	.st70{fill:url(#SVGID_49_);}
	.st71{fill:url(#SVGID_50_);}
	.st72{fill:url(#SVGID_51_);}
	.st73{fill:url(#SVGID_52_);}
	.st74{fill:url(#SVGID_53_);}
	.st75{fill:url(#SVGID_54_);}
	.st76{fill:url(#SVGID_55_);}
	.st77{fill:url(#SVGID_56_);}
	.st78{fill:url(#SVGID_57_);}
	.st79{fill:url(#SVGID_58_);}
	.st80{fill:#805B2A;}
	.st81{fill:#FFFFFF;}
	.st82{fill:url(#SVGID_59_);}
	.st83{fill:url(#SVGID_60_);}
	.st84{fill:url(#SVGID_61_);}
	.st85{fill:url(#SVGID_62_);}
	.st86{fill:#F9F9F9;}
	.st87{fill:url(#SVGID_63_);}
	.st88{fill:url(#SVGID_64_);}
	.st89{fill:url(#SVGID_65_);}
	.st90{fill:url(#SVGID_66_);}
	.st91{fill:url(#SVGID_67_);}
	.st92{fill:url(#SVGID_68_);}
	.st93{fill:url(#SVGID_69_);}
	.st94{fill:url(#SVGID_70_);}
	.st95{fill:url(#SVGID_71_);}
	.st96{fill:url(#SVGID_72_);}
	.st97{fill:url(#SVGID_73_);}
	.st98{fill:url(#SVGID_74_);}
	.st99{fill:url(#SVGID_75_);}
	.st100{fill:url(#SVGID_76_);}
	.st101{fill:url(#SVGID_77_);}
	.st102{fill:none;stroke:#808080;stroke-width:0.5;stroke-miterlimit:10;}
	.st103{fill:none;stroke:#808080;stroke-width:0.5;stroke-linecap:round;stroke-miterlimit:10;}
	.st104{fill:url(#SVGID_78_);}
	.st105{fill:url(#SVGID_79_);}
	.st106{fill:url(#SVGID_80_);}
	.st107{fill:url(#SVGID_81_);}
	.st108{fill:url(#SVGID_82_);}
	.st109{fill:url(#SVGID_83_);}
	.st110{fill:url(#SVGID_84_);}
	.st111{fill:url(#SVGID_85_);}
	.st112{fill:url(#SVGID_86_);}
	.st113{fill:url(#SVGID_87_);}
	.st114{fill:url(#SVGID_88_);}
	.st115{fill:url(#SVGID_89_);}
	.st116{fill:url(#SVGID_90_);}
	.st117{fill:url(#SVGID_91_);}
	.st118{fill:url(#SVGID_92_);}
	.st119{fill:url(#SVGID_93_);}
	.st120{fill:url(#SVGID_94_);}
	.st121{fill:url(#SVGID_95_);}
	.st122{fill:url(#SVGID_96_);}
	.st123{fill:url(#SVGID_97_);}
</style>
<radialGradient id="SVGID_1_" cx="12.0695" cy="77.6519" r="11.7274" gradientTransform="matrix(1 0 0 1 0 -50)" gradientUnits="userSpaceOnUse">
	<stop  offset="2.000000e-03" style="stop-color:#3DB0FF"/>
	<stop  offset="0.528" style="stop-color:#2686E9"/>
	<stop  offset="1" style="stop-color:#105CD4"/>
</radialGradient>
<path class="st0" d="M25.3,34.8v-4.3c-0.1-2.3-1.1-4.1-3.7-4.6c-2.5-0.6-5-1.1-7.5-1.3l0,0l0,0l0,0l0,0c-2.5,0.2-5.1,0.7-7.5,1.3
	c-2.5,0.5-3.6,2.3-3.7,4.6l-0.1,4.3H25.3z"/>
<ellipse class="st1" cx="14.1" cy="26.1" rx="3.8" ry="1.7"/>
<radialGradient id="SVGID_2_" cx="14.0935" cy="26.45" r="3.2574" gradientTransform="matrix(1 0 0 -1 0 50)" gradientUnits="userSpaceOnUse">
	<stop  offset="0" style="stop-color:#FFE16E"/>
	<stop  offset="0.629" style="stop-color:#FFD226"/>
	<stop  offset="0.75" style="stop-color:#FDCD23"/>
	<stop  offset="0.899" style="stop-color:#F6BD1B"/>
	<stop  offset="0.999" style="stop-color:#F0AF13"/>
</radialGradient>
<path class="st2" d="M17.2,25.7c0,1.6-6.3,1.6-6.3,0v-5.5h6.3V25.7z"/>
<radialGradient id="SVGID_3_" cx="33.8203" cy="114.2257" r="9.9461" gradientTransform="matrix(0.998 0 0 0.985 0.225 -85.087)" gradientUnits="userSpaceOnUse">
	<stop  offset="0" style="stop-color:#269B3C"/>
	<stop  offset="0.999" style="stop-color:#155728"/>
</radialGradient>
<path class="st3" d="M45.2,34.8v-4.2c-0.1-2.3-1.1-4.1-3.7-4.6c-2.5-0.6-5-1.1-7.5-1.3l0,0l0,0l0,0l0,0c-2.5,0.2-5.1,0.7-7.5,1.3
	c-2.5,0.5-3.6,2.3-3.7,4.6l-0.1,4.2H45.2z"/>
<ellipse class="st4" cx="34" cy="26.1" rx="3.8" ry="1.7"/>
<radialGradient id="SVGID_4_" cx="33.95" cy="26.6" r="3.261" fx="32.6744" fy="23.5989" gradientTransform="matrix(1 0 0 -1 0 50)" gradientUnits="userSpaceOnUse">
	<stop  offset="0" style="stop-color:#F8BC66"/>
	<stop  offset="0.629" style="stop-color:#FFD226"/>
	<stop  offset="0.75" style="stop-color:#FDCD23"/>
	<stop  offset="0.899" style="stop-color:#F6BD1B"/>
	<stop  offset="0.999" style="stop-color:#F0AF13"/>
</radialGradient>
<path class="st5" d="M37.1,25.6c0,1.6-6.3,1.6-6.3,0V20h6.3V25.6z"/>
<linearGradient id="SVGID_5_" gradientUnits="userSpaceOnUse" x1="-652.3962" y1="-25.3378" x2="-661.3557" y2="-20.2246" gradientTransform="matrix(-1 0 0 -0.9876 -630.896 -2.402)">
	<stop  offset="0" style="stop-color:#FFFFFF"/>
	<stop  offset="0.122" style="stop-color:#F5F0EA"/>
	<stop  offset="0.29" style="stop-color:#E9DFD4"/>
	<stop  offset="0.397" style="stop-color:#E5D9CC"/>
	<stop  offset="0.515" style="stop-color:#CEBDAA"/>
	<stop  offset="0.649" style="stop-color:#B7A28A"/>
	<stop  offset="0.723" style="stop-color:#AF987E"/>
</linearGradient>
<path class="st6" d="M25.3,14.4c0,0,0.1,3-1.4,6.5c-0.5,1,0.1,1.4,0.1,1.4s4.9,1.9,10,1.7c0-2.1,0-13.6,0-13.6L25.4,12L25.3,14.4z"
	/>
<linearGradient id="SVGID_6_" gradientUnits="userSpaceOnUse" x1="22.3372" y1="-24.597" x2="30.3087" y2="-19.6199" gradientTransform="matrix(1 0 0 -1 0 -2)">
	<stop  offset="0" style="stop-color:#FFFFFF"/>
	<stop  offset="0.107" style="stop-color:#F5F0EA"/>
	<stop  offset="0.254" style="stop-color:#E9DFD4"/>
	<stop  offset="0.348" style="stop-color:#E5D9CC"/>
	<stop  offset="0.669" style="stop-color:#AF987E"/>
	<stop  offset="0.876" style="stop-color:#C7B299"/>
</linearGradient>
<path class="st7" d="M25.3,21.7c-0.5-0.2-0.6-0.5-0.4-1.1c1.4-3.4,1.9-6.1,1.9-6.9v-2L25.4,12l-0.1,2.4c0,0,0.1,3-1.4,6.5
	c-0.5,1,0.1,1.4,0.1,1.4s4.9,1.9,10,1.7c0-0.2-0.2,0-0.2-0.5C29.4,23.2,25.3,21.7,25.3,21.7z"/>
<linearGradient id="SVGID_7_" gradientUnits="userSpaceOnUse" x1="22.3765" y1="-24.6543" x2="30.2924" y2="-19.7113" gradientTransform="matrix(1 0 0 -1 0 -2)">
	<stop  offset="0" style="stop-color:#FCFAF9"/>
	<stop  offset="9.700001e-02" style="stop-color:#F3EDE7"/>
	<stop  offset="0.25" style="stop-color:#E7DDD1"/>
	<stop  offset="0.348" style="stop-color:#E3D7C9"/>
	<stop  offset="0.669" style="stop-color:#B19A80"/>
	<stop  offset="0.876" style="stop-color:#C7B299"/>
</linearGradient>
<path class="st8" d="M25.3,21.7c-0.5-0.2-0.6-0.5-0.3-1.1c1.4-3.4,1.9-6.1,1.9-6.9v-2L25.4,12l-0.1,2.4c0,0,0.1,3-1.4,6.6
	c-0.5,1,0.1,1.4,0.2,1.4c0,0,4.9,1.9,10,1.7c0-0.2-0.2,0-0.2-0.5C29.4,23.3,25.3,21.7,25.3,21.7z"/>
<linearGradient id="SVGID_8_" gradientUnits="userSpaceOnUse" x1="22.3559" y1="-24.6168" x2="30.2177" y2="-19.708" gradientTransform="matrix(1 0 0 -1 0 -2)">
	<stop  offset="0" style="stop-color:#F8F5F2"/>
	<stop  offset="8.000000e-02" style="stop-color:#F1EBE4"/>
	<stop  offset="0.244" style="stop-color:#E5DACE"/>
	<stop  offset="0.348" style="stop-color:#E1D4C6"/>
	<stop  offset="0.669" style="stop-color:#B29B81"/>
	<stop  offset="0.876" style="stop-color:#C7B299"/>
</linearGradient>
<path class="st9" d="M25.2,21.7c-0.5-0.2-0.6-0.5-0.3-1.2c1.4-3.4,1.9-6.1,1.9-6.9v-2L25.4,12l-0.1,2.3c0,0,0.1,3-1.4,6.6
	c-0.5,1,0.1,1.4,0.2,1.4c0,0,4.9,1.9,10,1.7c0-0.2-0.2,0-0.2-0.5C29.4,23.3,25.2,21.7,25.2,21.7z"/>
<linearGradient id="SVGID_9_" gradientUnits="userSpaceOnUse" x1="22.3669" y1="-24.6289" x2="30.1735" y2="-19.7543" gradientTransform="matrix(1 0 0 -1 0 -2)">
	<stop  offset="0" style="stop-color:#F5F1EC"/>
	<stop  offset="7.100000e-02" style="stop-color:#EFE9E0"/>
	<stop  offset="0.24" style="stop-color:#E3D8CA"/>
	<stop  offset="0.348" style="stop-color:#DFD2C2"/>
	<stop  offset="0.669" style="stop-color:#B49D83"/>
	<stop  offset="0.876" style="stop-color:#C7B299"/>
</linearGradient>
<path class="st10" d="M25.1,21.8c-0.5-0.2-0.6-0.5-0.3-1.2c1.4-3.4,1.9-6.2,1.9-6.8v-2L25.4,12l-0.1,2.3c0,0,0.1,3.1-1.4,6.6
	c-0.5,1,0.1,1.4,0.2,1.5c0,0,4.8,1.9,9.9,1.7c0-0.2-0.2,0-0.2-0.4C29.4,23.4,25.1,21.8,25.1,21.8z"/>
<linearGradient id="SVGID_10_" gradientUnits="userSpaceOnUse" x1="22.3461" y1="-24.5921" x2="30.0986" y2="-19.7511" gradientTransform="matrix(1 0 0 -1 0 -2)">
	<stop  offset="0" style="stop-color:#F1ECE6"/>
	<stop  offset="5.600001e-02" style="stop-color:#EDE6DD"/>
	<stop  offset="0.234" style="stop-color:#E2D5C7"/>
	<stop  offset="0.348" style="stop-color:#DECFBF"/>
	<stop  offset="0.669" style="stop-color:#B59F85"/>
	<stop  offset="0.876" style="stop-color:#C7B299"/>
</linearGradient>
<path class="st11" d="M25.1,21.8c-0.4-0.2-0.6-0.5-0.3-1.2c1.4-3.4,1.9-6.2,1.9-6.8v-2L25.4,12l-0.1,2.2c0,0,0.1,3.1-1.4,6.6
	c-0.5,1,0.1,1.5,0.2,1.5c0,0,4.8,1.9,9.9,1.7c0-0.2-0.2,0-0.2-0.4C29.3,23.4,25.1,21.8,25.1,21.8z"/>
<linearGradient id="SVGID_11_" gradientUnits="userSpaceOnUse" x1="22.3707" y1="-24.6265" x2="30.0681" y2="-19.8201" gradientTransform="matrix(1 0 0 -1 0 -2)">
	<stop  offset="0" style="stop-color:#EEE7DF"/>
	<stop  offset="3.300000e-02" style="stop-color:#ECE4DA"/>
	<stop  offset="0.225" style="stop-color:#E0D3C4"/>
	<stop  offset="0.348" style="stop-color:#DCCDBC"/>
	<stop  offset="0.669" style="stop-color:#B7A086"/>
	<stop  offset="0.876" style="stop-color:#C7B299"/>
</linearGradient>
<path class="st12" d="M25,21.9c-0.4-0.2-0.6-0.5-0.3-1.3c1.4-3.4,1.8-6.3,1.8-6.8v-2L25.4,12l-0.1,2.2c0,0,0.1,3.1-1.4,6.7
	c-0.5,1,0,1.5,0.2,1.5c0,0,4.8,1.9,9.9,1.7c0-0.2-0.2-0.1-0.2-0.4C29.3,23.4,25,21.9,25,21.9z"/>
<linearGradient id="SVGID_12_" gradientUnits="userSpaceOnUse" x1="22.3721" y1="-24.6255" x2="30.0158" y2="-19.8528" gradientTransform="matrix(1 0 0 -1 0 -2)">
	<stop  offset="0" style="stop-color:#EAE2D9"/>
	<stop  offset="1.200000e-02" style="stop-color:#E9E1D7"/>
	<stop  offset="0.217" style="stop-color:#DED0C1"/>
	<stop  offset="0.348" style="stop-color:#DACAB9"/>
	<stop  offset="0.669" style="stop-color:#B8A288"/>
	<stop  offset="0.876" style="stop-color:#C7B299"/>
</linearGradient>
<path class="st13" d="M24.9,21.9c-0.4-0.2-0.6-0.5-0.3-1.3c1.4-3.4,1.8-6.3,1.8-6.8v-2.1l-1,0.3l-0.1,2.1c0,0,0.1,3.2-1.4,6.7
	c-0.5,1,0,1.5,0.2,1.6c0,0,4.8,1.9,9.9,1.7c0-0.2-0.1-0.1-0.1-0.4C29.3,23.5,24.9,21.9,24.9,21.9z"/>
<linearGradient id="SVGID_13_" gradientUnits="userSpaceOnUse" x1="22.3012" y1="-24.5078" x2="29.8902" y2="-19.7688" gradientTransform="matrix(1 0 0 -1 0 -2)">
	<stop  offset="0" style="stop-color:#E7DDD2"/>
	<stop  offset="0.204" style="stop-color:#DCCEBE"/>
	<stop  offset="0.348" style="stop-color:#D8C8B6"/>
	<stop  offset="0.669" style="stop-color:#BAA38A"/>
	<stop  offset="0.876" style="stop-color:#C7B299"/>
</linearGradient>
<path class="st14" d="M24.8,21.9c-0.4-0.2-0.6-0.5-0.3-1.3c1.4-3.4,1.8-6.3,1.8-6.8v-2.1l-1,0.2L25.2,14c0,0,0.1,3.2-1.4,6.7
	c-0.5,1,0,1.5,0.2,1.6c0,0,4.8,1.9,9.9,1.7c0-0.2-0.1-0.1-0.1-0.4C29.3,23.5,24.8,21.9,24.8,21.9z"/>
<linearGradient id="SVGID_14_" gradientUnits="userSpaceOnUse" x1="22.3314" y1="-24.5699" x2="29.9145" y2="-19.8348" gradientTransform="matrix(1 0 0 -1 0 -2)">
	<stop  offset="0" style="stop-color:#E3D9CC"/>
	<stop  offset="0.192" style="stop-color:#DACCBB"/>
	<stop  offset="0.348" style="stop-color:#D6C6B3"/>
	<stop  offset="0.669" style="stop-color:#BBA58B"/>
	<stop  offset="0.876" style="stop-color:#C7B299"/>
</linearGradient>
<path class="st15" d="M24.8,22c-0.4-0.2-0.7-0.6-0.3-1.3c1.4-3.5,1.8-6.4,1.8-6.8v-2.1l-1,0.2v2c0,0,0.1,3.2-1.4,6.7
	c-0.5,1,0,1.5,0.2,1.6c0,0,4.8,1.8,9.9,1.7c0-0.2-0.1-0.1-0.1-0.4C29.2,23.6,24.8,22,24.8,22z"/>
<linearGradient id="SVGID_15_" gradientUnits="userSpaceOnUse" x1="22.3822" y1="-24.6695" x2="29.9722" y2="-19.93" gradientTransform="matrix(1 0 0 -1 0 -2)">
	<stop  offset="0" style="stop-color:#E0D4C6"/>
	<stop  offset="0.182" style="stop-color:#D8C9B7"/>
	<stop  offset="0.348" style="stop-color:#D4C3AF"/>
	<stop  offset="0.669" style="stop-color:#BDA78D"/>
	<stop  offset="0.876" style="stop-color:#C7B299"/>
</linearGradient>
<path class="st16" d="M24.7,22c-0.4-0.1-0.7-0.6-0.3-1.4c1.5-3.5,1.8-6.4,1.8-6.7v-2.1L25.4,12l-0.1,2c0,0,0.1,3.2-1.4,6.8
	c-0.5,1-0.1,1.6,0.2,1.7c0,0,4.8,1.8,9.9,1.7c0-0.2-0.1-0.1-0.1-0.3C29.2,23.6,24.7,22,24.7,22z"/>
<linearGradient id="SVGID_16_" gradientUnits="userSpaceOnUse" x1="22.3739" y1="-24.675" x2="29.9713" y2="-19.9306" gradientTransform="matrix(1 0 0 -1 0 -2)">
	<stop  offset="0" style="stop-color:#DCCFBF"/>
	<stop  offset="0.158" style="stop-color:#D6C7B4"/>
	<stop  offset="0.348" style="stop-color:#D2C1AC"/>
	<stop  offset="0.669" style="stop-color:#BEA88F"/>
	<stop  offset="0.876" style="stop-color:#C7B299"/>
</linearGradient>
<path class="st17" d="M24.6,22.1c-0.3-0.1-0.7-0.6-0.2-1.4c1.5-3.5,1.8-6.4,1.8-6.7l0.1-2.1L25.4,12l-0.1,2c0,0,0.1,3.3-1.4,6.8
	c-0.5,1-0.1,1.6,0.2,1.7c0,0,4.8,1.8,9.9,1.7c0-0.1-0.1-0.1-0.1-0.3C29.2,23.7,24.6,22.1,24.6,22.1z"/>
<linearGradient id="SVGID_17_" gradientUnits="userSpaceOnUse" x1="22.3342" y1="-24.6305" x2="29.9394" y2="-19.8817" gradientTransform="matrix(1 0 0 -1 0 -2)">
	<stop  offset="0" style="stop-color:#D9CAB9"/>
	<stop  offset="0.133" style="stop-color:#D5C4B1"/>
	<stop  offset="0.348" style="stop-color:#D0BEA9"/>
	<stop  offset="0.669" style="stop-color:#C0AA91"/>
	<stop  offset="0.876" style="stop-color:#C7B299"/>
</linearGradient>
<path class="st18" d="M24.6,22.1c-0.3-0.1-0.7-0.6-0.2-1.4c1.5-3.5,1.8-6.5,1.8-6.7l0.1-2.1L25.4,12l-0.1,1.9c0,0,0.1,3.3-1.4,6.8
	c-0.5,1-0.1,1.6,0.3,1.7c0,0,4.8,1.8,9.9,1.6c0-0.1-0.1-0.1-0.1-0.3C29.2,23.7,24.6,22.1,24.6,22.1z"/>
<linearGradient id="SVGID_18_" gradientUnits="userSpaceOnUse" x1="22.3481" y1="-24.6719" x2="29.9611" y2="-19.9182" gradientTransform="matrix(1 0 0 -1 0 -2)">
	<stop  offset="0" style="stop-color:#D5C5B3"/>
	<stop  offset="9.900000e-02" style="stop-color:#D3C2AE"/>
	<stop  offset="0.348" style="stop-color:#CFBCA6"/>
	<stop  offset="0.669" style="stop-color:#C1AC92"/>
	<stop  offset="0.876" style="stop-color:#C7B299"/>
</linearGradient>
<path class="st19" d="M24.5,22.1c-0.3-0.1-0.7-0.6-0.2-1.5c1.5-3.5,1.7-6.5,1.8-6.7l0.1-2.1L25.4,12l-0.1,1.9c0,0,0.1,3.3-1.4,6.8
	c-0.5,1-0.1,1.6,0.3,1.8c0,0,4.8,1.8,9.9,1.6c0-0.1,0-0.1,0-0.3C29.1,23.7,24.5,22.1,24.5,22.1z"/>
<linearGradient id="SVGID_19_" gradientUnits="userSpaceOnUse" x1="22.3399" y1="-24.6768" x2="29.9601" y2="-19.9188" gradientTransform="matrix(1 0 0 -1 0 -2)">
	<stop  offset="0" style="stop-color:#D2C0AC"/>
	<stop  offset="2.300000e-02" style="stop-color:#D2BFAB"/>
	<stop  offset="0.348" style="stop-color:#CDB9A3"/>
	<stop  offset="0.669" style="stop-color:#C3AD94"/>
	<stop  offset="0.876" style="stop-color:#C7B299"/>
</linearGradient>
<path class="st20" d="M24.4,22.2c-0.3-0.1-0.7-0.6-0.2-1.5c1.5-3.5,1.7-6.5,1.7-6.7l0.1-2.2L25.4,12l-0.1,1.8c0,0,0.1,3.3-1.4,6.9
	c-0.5,1-0.1,1.6,0.3,1.8c0,0,4.8,1.8,9.9,1.6c0-0.1,0-0.1,0-0.3C29.1,23.8,24.4,22.2,24.4,22.2z"/>
<linearGradient id="SVGID_20_" gradientUnits="userSpaceOnUse" x1="22.3031" y1="-24.6378" x2="29.9312" y2="-19.8744" gradientTransform="matrix(1 0 0 -1 0 -2)">
	<stop  offset="0" style="stop-color:#CEBCA6"/>
	<stop  offset="0.348" style="stop-color:#CBB79F"/>
	<stop  offset="0.669" style="stop-color:#C4AF96"/>
	<stop  offset="0.876" style="stop-color:#C7B299"/>
</linearGradient>
<path class="st21" d="M24.3,22.2c-0.3-0.1-0.7-0.6-0.2-1.5c1.5-3.5,1.7-6.6,1.7-6.7l0.1-2.2L25.4,12l-0.1,1.8c0,0,0.1,3.4-1.5,6.9
	c-0.5,1-0.2,1.6,0.3,1.8c0,0,4.7,1.8,9.8,1.6c0-0.1,0-0.1,0-0.3C29.1,23.8,24.3,22.2,24.3,22.2z"/>
<linearGradient id="SVGID_21_" gradientUnits="userSpaceOnUse" x1="22.3173" y1="-24.6788" x2="29.9527" y2="-19.911" gradientTransform="matrix(1 0 0 -1 0 -2)">
	<stop  offset="0" style="stop-color:#CBB79F"/>
	<stop  offset="0.348" style="stop-color:#C9B49C"/>
	<stop  offset="0.669" style="stop-color:#C6B097"/>
	<stop  offset="0.876" style="stop-color:#C7B299"/>
</linearGradient>
<path class="st22" d="M24.3,22.3c-0.3-0.1-0.7-0.6-0.2-1.5c1.5-3.5,1.7-6.6,1.7-6.7l0.1-2.2L25.4,12l-0.1,1.8c0,0,0.1,3.4-1.5,6.9
	c-0.5,1-0.2,1.7,0.3,1.9c0,0,4.7,1.8,9.8,1.6c0-0.1,0-0.1,0-0.2C29.1,23.9,24.3,22.3,24.3,22.3z"/>
<path class="st23" d="M24.2,22.3c-0.2-0.1-0.8-0.6-0.2-1.6c1.5-3.5,1.7-6.6,1.7-6.6l0.1-2.2L25.4,12l-0.1,1.7c0,0,0.1,3.4-1.5,6.9
	c-0.5,1-0.2,1.7,0.3,1.9c0,0,4.7,1.8,9.8,1.6c0-0.1,0-0.1,0-0.2C29,23.9,24.2,22.3,24.2,22.3z"/>
<linearGradient id="SVGID_22_" gradientUnits="userSpaceOnUse" x1="-568.2169" y1="-25.3048" x2="-577.1757" y2="-20.1916" gradientTransform="matrix(1 0 0 -0.9876 614.647 -2.402)">
	<stop  offset="0" style="stop-color:#FFFFFF"/>
	<stop  offset="0.122" style="stop-color:#F5F0EA"/>
	<stop  offset="0.29" style="stop-color:#E9DFD4"/>
	<stop  offset="0.397" style="stop-color:#E5D9CC"/>
	<stop  offset="0.515" style="stop-color:#CEBDAA"/>
	<stop  offset="0.649" style="stop-color:#B7A28A"/>
	<stop  offset="0.723" style="stop-color:#AF987E"/>
</linearGradient>
<path class="st24" d="M42.6,14.4c0,0-0.1,3,1.4,6.5c0.5,1-0.1,1.4-0.1,1.4s-4.9,1.9-10,1.7c0-2.1,0-13.6,0-13.6l8.6,1.5L42.6,14.4z"
	/>
<g>
	
		<linearGradient id="SVGID_23_" gradientUnits="userSpaceOnUse" x1="-61.8487" y1="-24.5577" x2="-53.8777" y2="-19.5802" gradientTransform="matrix(-1 0 0 -1 -16.25 -2)">
		<stop  offset="0" style="stop-color:#FFFFFF"/>
		<stop  offset="0.107" style="stop-color:#F5F0EA"/>
		<stop  offset="0.254" style="stop-color:#E9DFD4"/>
		<stop  offset="0.348" style="stop-color:#E5D9CC"/>
		<stop  offset="0.669" style="stop-color:#AF987E"/>
		<stop  offset="0.876" style="stop-color:#C7B299"/>
	</linearGradient>
	<path class="st25" d="M42.6,21.7c0.5-0.2,0.6-0.5,0.4-1.1c-1.4-3.4-1.9-6.1-1.9-6.9v-2l1.5,0.3l0.1,2.4c0,0-0.1,3,1.4,6.5
		c0.5,1-0.1,1.4-0.1,1.4s-4.9,1.9-10,1.7c0-0.2,0.2,0,0.2-0.5C38.5,23.2,42.6,21.7,42.6,21.7z"/>
	
		<linearGradient id="SVGID_24_" gradientUnits="userSpaceOnUse" x1="-61.7539" y1="-24.7042" x2="-53.8375" y2="-19.7612" gradientTransform="matrix(-1 0 0 -1 -16.25 -2)">
		<stop  offset="0" style="stop-color:#FCFAF9"/>
		<stop  offset="9.700001e-02" style="stop-color:#F3EDE7"/>
		<stop  offset="0.25" style="stop-color:#E7DDD1"/>
		<stop  offset="0.348" style="stop-color:#E3D7C9"/>
		<stop  offset="0.669" style="stop-color:#B19A80"/>
		<stop  offset="0.876" style="stop-color:#C7B299"/>
	</linearGradient>
	<path class="st26" d="M42.6,21.7c0.5-0.2,0.6-0.5,0.3-1.1c-1.4-3.4-1.9-6.1-1.9-6.9v-2l1.4,0.3l0.1,2.4c0,0-0.1,3,1.4,6.6
		c0.5,1-0.1,1.4-0.2,1.4c0,0-4.9,1.9-10,1.7c0-0.2,0.2,0,0.2-0.5C38.5,23.3,42.6,21.7,42.6,21.7z"/>
	
		<linearGradient id="SVGID_25_" gradientUnits="userSpaceOnUse" x1="-61.8918" y1="-24.4785" x2="-54.0306" y2="-19.5693" gradientTransform="matrix(-1 0 0 -1 -16.25 -2)">
		<stop  offset="0" style="stop-color:#F8F5F2"/>
		<stop  offset="8.000000e-02" style="stop-color:#F1EBE4"/>
		<stop  offset="0.244" style="stop-color:#E5DACE"/>
		<stop  offset="0.348" style="stop-color:#E1D4C6"/>
		<stop  offset="0.669" style="stop-color:#B29B81"/>
		<stop  offset="0.876" style="stop-color:#C7B299"/>
	</linearGradient>
	<path class="st27" d="M42.7,21.7c0.5-0.2,0.6-0.5,0.3-1.2c-1.4-3.4-1.9-6.1-1.9-6.9v-2l1.4,0.2l0.1,2.3c0,0-0.1,3,1.4,6.6
		c0.5,1-0.1,1.4-0.2,1.4c0,0-4.9,1.9-10,1.7c0-0.2,0.2,0,0.2-0.5C38.5,23.3,42.7,21.7,42.7,21.7z"/>
	
		<linearGradient id="SVGID_26_" gradientUnits="userSpaceOnUse" x1="-61.7915" y1="-24.6342" x2="-53.9849" y2="-19.7596" gradientTransform="matrix(-1 0 0 -1 -16.25 -2)">
		<stop  offset="0" style="stop-color:#F5F1EC"/>
		<stop  offset="7.100000e-02" style="stop-color:#EFE9E0"/>
		<stop  offset="0.24" style="stop-color:#E3D8CA"/>
		<stop  offset="0.348" style="stop-color:#DFD2C2"/>
		<stop  offset="0.669" style="stop-color:#B49D83"/>
		<stop  offset="0.876" style="stop-color:#C7B299"/>
	</linearGradient>
	<path class="st28" d="M42.8,21.8c0.5-0.2,0.6-0.5,0.3-1.2c-1.4-3.4-1.9-6.2-1.9-6.8v-2l1.3,0.2l0.1,2.3c0,0-0.1,3.1,1.4,6.6
		c0.5,1-0.1,1.4-0.2,1.5c0,0-4.8,1.9-9.9,1.7c0-0.2,0.2,0,0.2-0.4C38.6,23.4,42.8,21.8,42.8,21.8z"/>
	
		<linearGradient id="SVGID_27_" gradientUnits="userSpaceOnUse" x1="-61.8117" y1="-24.5972" x2="-54.0598" y2="-19.7563" gradientTransform="matrix(-1 0 0 -1 -16.25 -2)">
		<stop  offset="0" style="stop-color:#F1ECE6"/>
		<stop  offset="5.600001e-02" style="stop-color:#EDE6DD"/>
		<stop  offset="0.234" style="stop-color:#E2D5C7"/>
		<stop  offset="0.348" style="stop-color:#DECFBF"/>
		<stop  offset="0.669" style="stop-color:#B59F85"/>
		<stop  offset="0.876" style="stop-color:#C7B299"/>
	</linearGradient>
	<path class="st29" d="M42.9,21.8c0.4-0.2,0.6-0.5,0.3-1.2c-1.4-3.4-1.9-6.2-1.9-6.8v-2l1.2,0.2l0.1,2.2c0,0-0.1,3.1,1.4,6.6
		c0.5,1-0.1,1.5-0.2,1.5c0,0-4.8,1.9-9.9,1.7c0-0.2,0.2,0,0.2-0.4C38.6,23.4,42.9,21.8,42.9,21.8z"/>
	
		<linearGradient id="SVGID_28_" gradientUnits="userSpaceOnUse" x1="-61.8159" y1="-24.587" x2="-54.118" y2="-19.7802" gradientTransform="matrix(-1 0 0 -1 -16.25 -2)">
		<stop  offset="0" style="stop-color:#EEE7DF"/>
		<stop  offset="3.300000e-02" style="stop-color:#ECE4DA"/>
		<stop  offset="0.225" style="stop-color:#E0D3C4"/>
		<stop  offset="0.348" style="stop-color:#DCCDBC"/>
		<stop  offset="0.669" style="stop-color:#B7A086"/>
		<stop  offset="0.876" style="stop-color:#C7B299"/>
	</linearGradient>
	<path class="st30" d="M42.9,21.9c0.4-0.2,0.6-0.5,0.3-1.3c-1.4-3.4-1.8-6.3-1.8-6.8v-2l1.2,0.2l0.1,2.2c0,0-0.1,3.1,1.4,6.7
		c0.5,1,0,1.5-0.2,1.5c0,0-4.8,1.9-9.9,1.7c0-0.2,0.2-0.1,0.2-0.4C38.6,23.4,42.9,21.9,42.9,21.9z"/>
	
		<linearGradient id="SVGID_29_" gradientUnits="userSpaceOnUse" x1="-61.8592" y1="-24.5139" x2="-54.2155" y2="-19.7412" gradientTransform="matrix(-1 0 0 -1 -16.25 -2)">
		<stop  offset="0" style="stop-color:#EAE2D9"/>
		<stop  offset="1.200000e-02" style="stop-color:#E9E1D7"/>
		<stop  offset="0.217" style="stop-color:#DED0C1"/>
		<stop  offset="0.348" style="stop-color:#DACAB9"/>
		<stop  offset="0.669" style="stop-color:#B8A288"/>
		<stop  offset="0.876" style="stop-color:#C7B299"/>
	</linearGradient>
	<path class="st31" d="M43,21.9c0.4-0.2,0.6-0.5,0.3-1.3c-1.4-3.4-1.8-6.3-1.8-6.8v-2.1l1.1,0.2l0.1,2.1c0,0-0.1,3.2,1.4,6.7
		c0.5,1,0,1.5-0.2,1.6c0,0-4.8,1.9-9.9,1.7c0-0.2,0.1-0.1,0.1-0.4C38.6,23.5,43,21.9,43,21.9z"/>
	
		<linearGradient id="SVGID_30_" gradientUnits="userSpaceOnUse" x1="-61.8573" y1="-24.5128" x2="-54.2679" y2="-19.7738" gradientTransform="matrix(-1 0 0 -1 -16.25 -2)">
		<stop  offset="0" style="stop-color:#E7DDD2"/>
		<stop  offset="0.204" style="stop-color:#DCCEBE"/>
		<stop  offset="0.348" style="stop-color:#D8C8B6"/>
		<stop  offset="0.669" style="stop-color:#BAA38A"/>
		<stop  offset="0.876" style="stop-color:#C7B299"/>
	</linearGradient>
	<path class="st32" d="M43.1,21.9c0.4-0.2,0.6-0.5,0.3-1.3c-1.4-3.4-1.8-6.3-1.8-6.8v-2.1l1,0.2l0.1,2.1c0,0-0.1,3.2,1.4,6.7
		c0.5,1,0,1.5-0.2,1.6c0,0-4.8,1.9-9.9,1.7c0-0.2,0.1-0.1,0.1-0.4C38.6,23.5,43.1,21.9,43.1,21.9z"/>
	
		<linearGradient id="SVGID_31_" gradientUnits="userSpaceOnUse" x1="-61.8186" y1="-24.5886" x2="-54.2354" y2="-19.8535" gradientTransform="matrix(-1 0 0 -1 -16.25 -2)">
		<stop  offset="0" style="stop-color:#E3D9CC"/>
		<stop  offset="0.192" style="stop-color:#DACCBB"/>
		<stop  offset="0.348" style="stop-color:#D6C6B3"/>
		<stop  offset="0.669" style="stop-color:#BBA58B"/>
		<stop  offset="0.876" style="stop-color:#C7B299"/>
	</linearGradient>
	<path class="st33" d="M43.1,22c0.4-0.2,0.7-0.6,0.3-1.3c-1.4-3.5-1.8-6.4-1.8-6.8v-2.1l1,0.2l0.1,2.1c0,0-0.1,3.2,1.4,6.7
		c0.5,1,0,1.5-0.2,1.6c0,0-4.8,1.8-9.9,1.7c0-0.2,0.1-0.1,0.1-0.4C38.7,23.6,43.1,22,43.1,22z"/>
	
		<linearGradient id="SVGID_32_" gradientUnits="userSpaceOnUse" x1="-61.8042" y1="-24.6298" x2="-54.2142" y2="-19.8903" gradientTransform="matrix(-1 0 0 -1 -16.25 -2)">
		<stop  offset="0" style="stop-color:#E0D4C6"/>
		<stop  offset="0.182" style="stop-color:#D8C9B7"/>
		<stop  offset="0.348" style="stop-color:#D4C3AF"/>
		<stop  offset="0.669" style="stop-color:#BDA78D"/>
		<stop  offset="0.876" style="stop-color:#C7B299"/>
	</linearGradient>
	<path class="st34" d="M43.2,22c0.4-0.1,0.7-0.6,0.3-1.4c-1.5-3.5-1.8-6.4-1.8-6.7v-2.1l0.9,0.2l0.1,2c0,0-0.1,3.2,1.4,6.8
		c0.5,1,0.1,1.6-0.2,1.7c0,0-4.8,1.8-9.9,1.7c0-0.2,0.1-0.1,0.1-0.3C38.7,23.6,43.2,22,43.2,22z"/>
	
		<linearGradient id="SVGID_33_" gradientUnits="userSpaceOnUse" x1="-61.7566" y1="-24.7245" x2="-54.1588" y2="-19.9806" gradientTransform="matrix(-1 0 0 -1 -16.25 -2)">
		<stop  offset="0" style="stop-color:#DCCFBF"/>
		<stop  offset="0.158" style="stop-color:#D6C7B4"/>
		<stop  offset="0.348" style="stop-color:#D2C1AC"/>
		<stop  offset="0.669" style="stop-color:#BEA88F"/>
		<stop  offset="0.876" style="stop-color:#C7B299"/>
	</linearGradient>
	<path class="st35" d="M43.3,22.1c0.3-0.1,0.7-0.6,0.2-1.4c-1.5-3.5-1.8-6.4-1.8-6.7l-0.1-2.1l0.8,0.1l0.1,2c0,0-0.1,3.3,1.4,6.8
		c0.5,1,0.1,1.6-0.2,1.7c0,0-4.8,1.8-9.9,1.7c0-0.1,0.1-0.1,0.1-0.3C38.7,23.7,43.3,22.1,43.3,22.1z"/>
	
		<linearGradient id="SVGID_34_" gradientUnits="userSpaceOnUse" x1="-61.8243" y1="-24.6355" x2="-54.2186" y2="-19.8867" gradientTransform="matrix(-1 0 0 -1 -16.25 -2)">
		<stop  offset="0" style="stop-color:#D9CAB9"/>
		<stop  offset="0.133" style="stop-color:#D5C4B1"/>
		<stop  offset="0.348" style="stop-color:#D0BEA9"/>
		<stop  offset="0.669" style="stop-color:#C0AA91"/>
		<stop  offset="0.876" style="stop-color:#C7B299"/>
	</linearGradient>
	<path class="st36" d="M43.4,22.1c0.3-0.1,0.7-0.6,0.2-1.4c-1.5-3.5-1.8-6.5-1.8-6.7l-0.1-2.1l0.8,0.1l0.1,1.9c0,0-0.1,3.3,1.4,6.8
		c0.5,1,0.1,1.6-0.3,1.7c0,0-4.8,1.8-9.9,1.6c0-0.1,0.1-0.1,0.1-0.3C38.7,23.7,43.4,22.1,43.4,22.1z"/>
	
		<linearGradient id="SVGID_35_" gradientUnits="userSpaceOnUse" x1="-61.8266" y1="-24.6501" x2="-54.2142" y2="-19.8964" gradientTransform="matrix(-1 0 0 -1 -16.25 -2)">
		<stop  offset="0" style="stop-color:#D5C5B3"/>
		<stop  offset="9.900000e-02" style="stop-color:#D3C2AE"/>
		<stop  offset="0.348" style="stop-color:#CFBCA6"/>
		<stop  offset="0.669" style="stop-color:#C1AC92"/>
		<stop  offset="0.876" style="stop-color:#C7B299"/>
	</linearGradient>
	<path class="st37" d="M43.4,22.1c0.3-0.1,0.7-0.6,0.2-1.5c-1.5-3.5-1.7-6.5-1.8-6.7l-0.1-2.1l0.7,0.1l0.1,1.9c0,0-0.1,3.3,1.4,6.8
		c0.5,1,0.1,1.6-0.3,1.8c0,0-4.8,1.8-9.9,1.6c0-0.1,0-0.1,0-0.3C38.8,23.7,43.4,22.1,43.4,22.1z"/>
	
		<linearGradient id="SVGID_36_" gradientUnits="userSpaceOnUse" x1="-61.8635" y1="-24.6101" x2="-54.2432" y2="-19.8521" gradientTransform="matrix(-1 0 0 -1 -16.25 -2)">
		<stop  offset="0" style="stop-color:#D2C0AC"/>
		<stop  offset="2.300000e-02" style="stop-color:#D2BFAB"/>
		<stop  offset="0.348" style="stop-color:#CDB9A3"/>
		<stop  offset="0.669" style="stop-color:#C3AD94"/>
		<stop  offset="0.876" style="stop-color:#C7B299"/>
	</linearGradient>
	<path class="st38" d="M43.5,22.2c0.3-0.1,0.7-0.6,0.2-1.5C42.2,17.2,42,14.2,42,14l-0.1-2.2l0.6,0.1l0.1,1.8c0,0-0.1,3.3,1.4,6.9
		c0.5,1,0.1,1.6-0.3,1.8c0,0-4.8,1.8-9.9,1.6c0-0.1,0-0.1,0-0.3C38.8,23.8,43.5,22.2,43.5,22.2z"/>
	
		<linearGradient id="SVGID_37_" gradientUnits="userSpaceOnUse" x1="-61.8829" y1="-24.5981" x2="-54.2553" y2="-19.8347" gradientTransform="matrix(-1 0 0 -1 -16.25 -2)">
		<stop  offset="0" style="stop-color:#CEBCA6"/>
		<stop  offset="0.348" style="stop-color:#CBB79F"/>
		<stop  offset="0.669" style="stop-color:#C4AF96"/>
		<stop  offset="0.876" style="stop-color:#C7B299"/>
	</linearGradient>
	<path class="st39" d="M43.6,22.2c0.3-0.1,0.7-0.6,0.2-1.5c-1.5-3.5-1.7-6.6-1.7-6.7L42,11.9l0.6,0.1l0.1,1.8c0,0-0.1,3.4,1.5,6.9
		c0.5,1,0.2,1.6-0.3,1.8c0,0-4.7,1.8-9.8,1.6c0-0.1,0-0.1,0-0.3C38.8,23.8,43.6,22.2,43.6,22.2z"/>
	
		<linearGradient id="SVGID_38_" gradientUnits="userSpaceOnUse" x1="-61.8412" y1="-24.684" x2="-54.2058" y2="-19.9163" gradientTransform="matrix(-1 0 0 -1 -16.25 -2)">
		<stop  offset="0" style="stop-color:#CBB79F"/>
		<stop  offset="0.348" style="stop-color:#C9B49C"/>
		<stop  offset="0.669" style="stop-color:#C6B097"/>
		<stop  offset="0.876" style="stop-color:#C7B299"/>
	</linearGradient>
	<path class="st40" d="M43.7,22.3c0.3-0.1,0.7-0.6,0.2-1.5c-1.5-3.5-1.7-6.6-1.7-6.7L42,11.9l0.5,0.1l0.1,1.8c0,0-0.1,3.4,1.5,6.9
		c0.5,1,0.2,1.7-0.3,1.9c0,0-4.7,1.8-9.8,1.6c0-0.1,0-0.1,0-0.2C38.8,23.9,43.7,22.3,43.7,22.3z"/>
	<path class="st23" d="M43.7,22.3c0.2-0.1,0.8-0.6,0.2-1.6c-1.5-3.5-1.7-6.6-1.7-6.6l-0.1-2.2l0.4,0.1l0.1,1.7c0,0-0.1,3.4,1.5,6.9
		c0.5,1,0.2,1.7-0.3,1.9c0,0-4.7,1.8-9.8,1.6c0-0.1,0-0.1,0-0.2C38.9,23.9,43.7,22.3,43.7,22.3z"/>
</g>
<radialGradient id="SVGID_39_" cx="-1007.4294" cy="-7.27" r="1.4094" gradientTransform="matrix(-1.1195 0.1748 -0.5022 -2.1652 -1104.1689 176.628)" gradientUnits="userSpaceOnUse">
	<stop  offset="0" style="stop-color:#FFE16E"/>
	<stop  offset="0.461" style="stop-color:#FFD226"/>
	<stop  offset="0.658" style="stop-color:#FBC921"/>
	<stop  offset="0.978" style="stop-color:#F1B114"/>
	<stop  offset="0.999" style="stop-color:#F0AF13"/>
</radialGradient>
<path class="st41" d="M27.7,14.6c-0.6-0.1-2-0.1-2.1,1.3c0,1.3,0.4,1.9,0.9,2.4c0.6,0.6,1.7,0.6,1.6,0.1S27.7,14.6,27.7,14.6z"/>
<radialGradient id="SVGID_40_" cx="7.4378" cy="1.1131" r="1.4304" gradientTransform="matrix(1.1108 0.1748 0.4983 -2.1652 31.85 17.396)" gradientUnits="userSpaceOnUse">
	<stop  offset="0" style="stop-color:#FFE16E"/>
	<stop  offset="0.461" style="stop-color:#FFD226"/>
	<stop  offset="0.741" style="stop-color:#F8C21D"/>
	<stop  offset="0.999" style="stop-color:#F0AF13"/>
</radialGradient>
<path class="st42" d="M40.2,14.6c0.6-0.1,2-0.1,2,1.3c0,1.3-0.4,1.9-0.9,2.4c-0.6,0.6-1.7,0.6-1.6,0.1C39.9,18,40.2,14.6,40.2,14.6z
	"/>
<radialGradient id="SVGID_41_" cx="81.6093" cy="-9.4293" r="9.1806" fx="81.561" fy="-13.362" gradientTransform="matrix(0.8731 0 0 -1.0951 -37.277 4.324)" gradientUnits="userSpaceOnUse">
	<stop  offset="0" style="stop-color:#FFE16E"/>
	<stop  offset="0.629" style="stop-color:#FFD226"/>
	<stop  offset="0.75" style="stop-color:#FDCD23"/>
	<stop  offset="0.899" style="stop-color:#F6BD1B"/>
	<stop  offset="0.999" style="stop-color:#F0AF13"/>
</radialGradient>
<path class="st43" d="M41.8,15.1c0,1.8-0.9,4.3-1.8,5.7c-1.7,2.8-4.4,4.2-6,4.2s-4.4-1.4-6.1-4.2c-0.8-1.4-1.7-3.9-1.7-5.7
	c0-0.4,0-3.3,0-3.6c0.1-2.1,1.5-7.2,7.8-7.2c6.2,0,7.6,5,7.8,6.9C41.8,11.7,41.8,14.6,41.8,15.1z"/>
<path class="st44" d="M31.6,21.3c-0.1,0-0.1,0.1-0.1,0.2c0.6,0.8,1.5,1,2.4,1c0.8,0,1.9-0.3,2.4-1c0.1-0.1,0.1-0.3-0.1-0.2
	c-1.2,0.3-1.7-0.6-2.3,0C33.3,20.7,32.7,21.5,31.6,21.3z"/>
<path class="st45" d="M33.9,22.2c0,0,0.9-0.4,1.6-0.5c-0.9-0.1-1.6,0.1-1.6,0.1s-0.7-0.2-1.6-0.1C33,21.8,33.9,22.2,33.9,22.2
	L33.9,22.2L33.9,22.2L33.9,22.2L33.9,22.2z"/>
<radialGradient id="SVGID_42_" cx="14.5563" cy="72.9839" r="5.4464" gradientTransform="matrix(-1.150000e-02 1.0378 1.4662 1.730000e-02 -73.089 -6.062)" gradientUnits="userSpaceOnUse">
	<stop  offset="0" style="stop-color:#FFFFFF"/>
	<stop  offset="0.194" style="stop-color:#F5F0EA"/>
	<stop  offset="0.46" style="stop-color:#E9DFD4"/>
	<stop  offset="0.629" style="stop-color:#E5D9CC"/>
	<stop  offset="0.718" style="stop-color:#E2D5C7"/>
	<stop  offset="0.829" style="stop-color:#D9C9B7"/>
	<stop  offset="0.952" style="stop-color:#CAB69E"/>
	<stop  offset="0.972" style="stop-color:#C7B299"/>
</radialGradient>
<path class="st46" d="M26.2,12.8c0.8-0.2,3-1.6,4.6-3.7C31,8.9,31.3,8.8,31.6,9c1.1,0.7,3.6,1.9,6.7,1.4c0.2,0,0.4,0,0.6,0.2
	c1.1,1.4,1.4,1.5,2.4,2.1c0.7,0.4,1.3,1.4,1.4,1.9c0.2-2.2,0.8-11-8.8-11c-1,0-2,0.2-2.7,0.8c-0.5-0.1-1.2,0-1.6,0.2
	c-5.3,2.5-4.2,9.3-4.3,10.3C25.3,13.3,25.9,13,26.2,12.8z"/>
<g>
	<path class="st47" d="M41.8,14.2c-0.1-0.5-1.8-2.4-2.9-3.7c-0.1-0.2-0.3-0.2-0.5-0.2c-3,0.5-5.5-0.7-6.6-1.4
		C31.5,8.7,31.2,8.8,31,9c-1.3,1.6-3.8,4.5-4.8,5.1c0,0.1,0,0.6,0,0.8c1.2-0.4,3.8-3,5.1-4.7c0.2-0.2,0.4-0.3,0.6-0.1
		c1.1,0.7,3.4,1.8,6.5,1.3c0.2,0,0.4,0,0.5,0.2c1,1.4,2.4,2.9,2.9,3.3C41.8,14.7,41.8,14.4,41.8,14.2z"/>
	<path class="st48" d="M41.8,14.2c-0.1-0.5-1.8-2.4-2.9-3.7c-0.1-0.2-0.3-0.2-0.5-0.2c-3,0.5-5.5-0.7-6.6-1.4
		C31.5,8.7,31.2,8.8,31,9c-1.3,1.6-3.8,4.5-4.8,5.1c0,0.1,0,0.6,0,0.8c1.2-0.4,3.8-3,5.1-4.7c0.2-0.2,0.4-0.3,0.6-0.1
		c1.1,0.7,3.4,1.8,6.5,1.3c0.2,0,0.4,0,0.5,0.2c1,1.5,2.4,2.9,2.9,3.3C41.8,14.7,41.8,14.4,41.8,14.2z"/>
	<path class="st49" d="M41.8,14.2c-0.1-0.5-1.8-2.4-2.9-3.7c-0.1-0.2-0.3-0.2-0.5-0.2c-3,0.5-5.5-0.7-6.6-1.4
		C31.5,8.7,31.2,8.8,31,9c-1.3,1.6-3.8,4.5-4.8,5.1c0,0.1,0,0.6,0,0.8c1.2-0.5,3.7-3,5.1-4.7c0.2-0.2,0.4-0.3,0.6-0.1
		c1.1,0.7,3.5,1.8,6.5,1.3c0.2,0,0.4,0,0.5,0.2c1,1.5,2.4,3,2.9,3.3C41.8,14.6,41.8,14.4,41.8,14.2z"/>
	<path class="st50" d="M41.8,14.2c-0.1-0.5-1.8-2.4-2.9-3.7c-0.1-0.2-0.3-0.2-0.5-0.2c-3,0.5-5.5-0.7-6.6-1.4
		C31.5,8.7,31.2,8.8,31,9c-1.3,1.6-3.8,4.5-4.8,5.1c0,0.1,0,0.6,0,0.8c1.2-0.5,3.7-2.9,5.1-4.7c0.2-0.2,0.4-0.3,0.6-0.1
		c1.1,0.7,3.5,1.8,6.5,1.3c0.2,0,0.4,0,0.5,0.2c1,1.5,2.4,3,2.9,3.3C41.8,14.6,41.8,14.4,41.8,14.2z"/>
	<path class="st51" d="M41.8,14.2c-0.1-0.5-1.8-2.4-2.9-3.7c-0.1-0.2-0.3-0.2-0.5-0.2c-3,0.5-5.5-0.7-6.6-1.4
		C31.5,8.7,31.2,8.8,31,9c-1.3,1.6-3.8,4.5-4.8,5.1c0,0.1,0,0.5,0,0.7c1.3-0.5,3.7-2.9,5.1-4.7c0.2-0.2,0.4-0.3,0.6-0.1
		c1.1,0.7,3.5,1.8,6.5,1.3c0.2,0,0.4,0,0.5,0.2c1,1.5,2.4,3,2.9,3.3C41.8,14.6,41.8,14.4,41.8,14.2z"/>
	<path class="st52" d="M41.8,14.2c-0.1-0.5-1.8-2.4-2.9-3.7c-0.1-0.2-0.3-0.2-0.5-0.2c-3,0.5-5.5-0.7-6.6-1.4
		C31.5,8.7,31.2,8.8,31,9c-1.3,1.6-3.8,4.5-4.8,5.1c0,0.1,0,0.5,0,0.7c1.3-0.6,3.6-2.9,5.1-4.8c0.2-0.2,0.4-0.3,0.6-0.1
		c1.1,0.7,3.5,1.8,6.5,1.3c0.2,0,0.4,0,0.5,0.2c1.1,1.5,2.4,3,2.9,3.4C41.8,14.6,41.8,14.4,41.8,14.2z"/>
	<path class="st53" d="M41.8,14.3c-0.1-0.5-1.8-2.4-2.9-3.7c-0.1-0.2-0.3-0.2-0.5-0.2c-3,0.5-5.5-0.7-6.6-1.4
		c-0.3-0.2-0.6-0.1-0.8,0.1c-1.3,1.6-3.8,4.5-4.8,5.1c0,0.1,0,0.5,0,0.7c1.3-0.6,3.6-2.8,5.1-4.8c0.2-0.2,0.4-0.3,0.6-0.1
		c1.1,0.7,3.5,1.8,6.5,1.3c0.2,0,0.4,0,0.5,0.2c1.1,1.6,2.4,3.1,2.9,3.4C41.8,14.5,41.8,14.4,41.8,14.3z"/>
	<path class="st54" d="M41.8,14.3c-0.1-0.5-1.8-2.4-2.9-3.7c-0.1-0.2-0.3-0.2-0.5-0.2c-3,0.5-5.5-0.7-6.6-1.4
		c-0.3-0.2-0.6-0.1-0.8,0.1c-1.3,1.6-3.8,4.5-4.8,5.1c0,0.1,0,0.5,0,0.7c1.4-0.6,3.6-2.8,5.1-4.8c0.2-0.2,0.4-0.3,0.6-0.1
		c1.1,0.7,3.5,1.8,6.5,1.3c0.2,0,0.4,0,0.5,0.2c1.1,1.6,2.4,3.1,2.9,3.4C41.8,14.5,41.8,14.4,41.8,14.3z"/>
	<path class="st55" d="M41.8,14.3c-0.1-0.5-1.8-2.4-2.9-3.7c-0.1-0.2-0.3-0.2-0.5-0.2c-3,0.5-5.5-0.7-6.6-1.4
		c-0.3-0.2-0.6-0.1-0.8,0.1c-1.3,1.6-3.8,4.5-4.8,5.1c0,0.1,0,0.5,0,0.6c1.4-0.7,3.5-2.8,5-4.8c0.2-0.2,0.4-0.3,0.6-0.1
		c1.1,0.7,3.5,1.8,6.5,1.3c0.2,0,0.4,0,0.5,0.2c1.1,1.6,2.4,3.1,2.9,3.4C41.8,14.5,41.8,14.4,41.8,14.3z"/>
	<path class="st56" d="M41.8,14.3c-0.1-0.5-1.8-2.4-2.9-3.8c-0.1-0.2-0.3-0.2-0.5-0.2c-3,0.5-5.5-0.7-6.6-1.4
		C31.5,8.7,31.2,8.8,31,9c-1.3,1.6-3.8,4.6-4.8,5.1c0,0.1,0,0.5,0,0.6c1.4-0.7,3.5-2.7,5-4.9c0.2-0.2,0.4-0.3,0.6-0.1
		c1.1,0.7,3.5,1.8,6.5,1.3c0.2,0,0.4,0,0.5,0.2c1.1,1.6,2.4,3.1,2.9,3.5C41.8,14.5,41.8,14.5,41.8,14.3z"/>
	<path class="st57" d="M41.8,14.3c-0.1-0.5-1.8-2.4-2.9-3.8c-0.1-0.2-0.3-0.2-0.5-0.2c-3,0.5-5.5-0.7-6.6-1.4
		C31.5,8.7,31.2,8.8,31,9c-1.3,1.6-3.8,4.6-4.8,5.1c0,0.1,0,0.5,0,0.6c1.4-0.7,3.5-2.7,5-4.9c0.2-0.2,0.4-0.3,0.6-0.1
		c1.1,0.7,3.5,1.8,6.5,1.3c0.2,0,0.4,0,0.5,0.2c1.1,1.7,2.4,3.1,2.9,3.5C41.8,14.5,41.8,14.5,41.8,14.3z"/>
	<path class="st58" d="M41.8,14.3c-0.1-0.5-1.8-2.4-2.9-3.8c-0.1-0.2-0.3-0.2-0.5-0.2c-3,0.5-5.5-0.7-6.6-1.4
		C31.5,8.7,31.2,8.8,31,9c-1.3,1.6-3.8,4.6-4.8,5.1c0,0.1,0,0.4,0,0.6c1.5-0.8,3.4-2.7,5-4.9c0.2-0.2,0.4-0.3,0.6-0.1
		c1.1,0.7,3.5,1.8,6.5,1.3c0.2,0,0.4,0,0.5,0.2c1.2,1.7,2.4,3.2,2.9,3.5C41.8,14.4,41.8,14.5,41.8,14.3z"/>
	<path class="st59" d="M41.8,14.3c-0.1-0.5-1.8-2.4-2.9-3.8c-0.1-0.2-0.3-0.2-0.5-0.2c-3,0.5-5.5-0.7-6.6-1.4
		C31.5,8.7,31.2,8.8,31,9c-1.3,1.6-3.8,4.6-4.8,5.1c0,0.1,0,0.4,0,0.6c1.5-0.8,3.4-2.6,5-4.9c0.2-0.2,0.4-0.3,0.6-0.1
		c1.1,0.7,3.5,1.8,6.6,1.3c0.2,0,0.4,0.1,0.5,0.2c1.2,1.7,2.4,3.2,2.9,3.5C41.8,14.4,41.8,14.5,41.8,14.3z"/>
	<path class="st60" d="M41.8,14.3c-0.1-0.5-1.8-2.4-2.9-3.8c-0.1-0.2-0.3-0.2-0.5-0.2c-3,0.5-5.5-0.7-6.6-1.4
		C31.5,8.7,31.2,8.8,31,9c-1.3,1.6-3.8,4.6-4.8,5.1c0,0.1,0,0.4,0,0.5c1.5-0.9,3.4-2.6,5-4.9c0.2-0.2,0.4-0.3,0.6-0.1
		c1.1,0.7,3.5,1.8,6.6,1.3c0.2,0,0.4,0.1,0.5,0.2c1.2,1.7,2.4,3.2,2.9,3.5C41.8,14.4,41.8,14.5,41.8,14.3z"/>
	<path class="st61" d="M41.8,14.3c-0.1-0.5-1.8-2.4-2.9-3.8c-0.1-0.2-0.3-0.2-0.5-0.2c-3,0.5-5.5-0.7-6.6-1.4
		C31.5,8.7,31.2,8.8,31,9c-1.3,1.6-3.8,4.6-4.8,5.1c0,0.1,0,0.4,0,0.5c1.5-0.9,3.4-2.6,5-5c0.2-0.2,0.4-0.3,0.6-0.1
		c1.1,0.7,3.6,1.8,6.6,1.3c0.2,0,0.4,0.1,0.5,0.2c1.2,1.7,2.5,3.2,2.9,3.6C41.8,14.4,41.8,14.5,41.8,14.3z"/>
	<path class="st62" d="M41.8,14.3c-0.1-0.5-1.8-2.4-2.9-3.8c-0.1-0.2-0.3-0.2-0.5-0.2c-3,0.5-5.5-0.7-6.6-1.4
		C31.5,8.7,31.2,8.8,31,9c-1.3,1.6-3.8,4.6-4.8,5.1c0,0.1,0,0.4,0,0.5c1.6-0.9,3.3-2.5,5-5c0.2-0.2,0.4-0.3,0.6-0.1
		c1.1,0.7,3.6,1.8,6.6,1.4c0.2,0,0.4,0.1,0.5,0.2c1.2,1.8,2.5,3.3,2.9,3.6C41.8,14.4,41.8,14.5,41.8,14.3z"/>
	<path class="st63" d="M41.8,14.3c-0.1-0.5-1.8-2.4-2.9-3.8c-0.1-0.2-0.3-0.2-0.5-0.2c-3,0.5-5.5-0.7-6.6-1.4
		C31.5,8.7,31.2,8.8,31,9c-1.3,1.6-3.8,4.6-4.8,5.1c0,0.1,0,0.4,0,0.5c1.6-1,3.3-2.5,5-5c0.2-0.2,0.4-0.3,0.6-0.1
		c1.1,0.7,3.6,1.8,6.6,1.4c0.2,0,0.4,0.1,0.5,0.2c1.2,1.8,2.5,3.3,2.9,3.6C41.8,14.3,41.8,14.5,41.8,14.3z"/>
</g>
<g>
	
		<radialGradient id="SVGID_43_" cx="19.2544" cy="71.3807" r="5.1405" gradientTransform="matrix(0 1 1.5492 0 -76.966 -9.104)" gradientUnits="userSpaceOnUse">
		<stop  offset="0" style="stop-color:#FFFFFF"/>
		<stop  offset="0.194" style="stop-color:#F5F0EA"/>
		<stop  offset="0.46" style="stop-color:#E9DFD4"/>
		<stop  offset="0.629" style="stop-color:#E5D9CC"/>
		<stop  offset="0.718" style="stop-color:#E2D5C7"/>
		<stop  offset="0.829" style="stop-color:#D9C9B7"/>
		<stop  offset="0.952" style="stop-color:#CAB69E"/>
		<stop  offset="0.972" style="stop-color:#C7B299"/>
	</radialGradient>
	<path class="st64" d="M41.8,12.5c-0.5-0.9-1.1-2.1-2.3-3.5c-0.1-0.2-0.3-0.2-0.6-0.2c-3,0.5-5.2-0.3-6.3-1c-0.3-0.3-0.9-0.6-0.8-2
		C32,5,30.6,4.9,30.2,5.9c0,0-0.5,0.9-0.4,2.1c0.1,0.2-0.4,0.7-0.4,0.7c-1.7,2.1-2.3,3-3.4,3.9c-0.7,0.7-0.7,3.1-0.7,3.1
		c0.1-1.3,0.5-1.5,1-1.8c0.8-0.5,3-2.6,4.7-4.6C31.1,9,31.5,9,31.8,9.2c1.1,0.7,3.6,1.8,6.6,1.4c0.2,0,0.5,0.1,0.7,0.2
		c1.1,1.3,1.5,2.2,2.3,3c0.6,0.6,1.3,1.2,1.4,1.7C42.8,15.1,42.3,13.3,41.8,12.5z"/>
	
		<radialGradient id="SVGID_44_" cx="19.1414" cy="71.3228" r="5.1342" gradientTransform="matrix(0 1 1.5497 0 -76.913 -8.969)" gradientUnits="userSpaceOnUse">
		<stop  offset="0" style="stop-color:#FCFAF9"/>
		<stop  offset="0.174" style="stop-color:#F3EDE7"/>
		<stop  offset="0.452" style="stop-color:#E7DDD1"/>
		<stop  offset="0.629" style="stop-color:#E3D7C9"/>
		<stop  offset="0.722" style="stop-color:#E0D3C4"/>
		<stop  offset="0.837" style="stop-color:#D7C7B4"/>
		<stop  offset="0.964" style="stop-color:#C8B49B"/>
		<stop  offset="0.972" style="stop-color:#C7B299"/>
	</radialGradient>
	<path class="st65" d="M41.8,12.6c-0.6-0.9-1.1-2.1-2.3-3.5c-0.1-0.2-0.3-0.2-0.6-0.2c-3,0.5-5.2-0.3-6.4-1
		c-0.3-0.3-0.9-0.6-0.8-2.1C31.9,5,30.6,5,30.2,5.9c0,0-0.5,1-0.4,2.2c0.1,0.2-0.4,0.7-0.4,0.7c-1.7,2.1-2.4,3.1-3.5,4
		c-0.7,0.7-0.8,2.9-0.8,3c0.1-1.3,0.5-1.5,1-1.8c0.9-0.6,3-2.6,4.7-4.7c0.3-0.3,0.7-0.3,1-0.1c1.1,0.7,3.6,1.8,6.6,1.4
		c0.2,0,0.5,0.1,0.7,0.2c1.1,1.4,1.5,2.2,2.3,3c0.6,0.6,1.3,1.2,1.4,1.7C42.8,15.1,42.3,13.4,41.8,12.6z"/>
	
		<radialGradient id="SVGID_45_" cx="19.0283" cy="71.2654" r="5.1278" gradientTransform="matrix(0 1 1.5502 0 -76.86 -8.834)" gradientUnits="userSpaceOnUse">
		<stop  offset="0" style="stop-color:#F8F5F2"/>
		<stop  offset="0.145" style="stop-color:#F1EBE4"/>
		<stop  offset="0.441" style="stop-color:#E5DACE"/>
		<stop  offset="0.629" style="stop-color:#E1D4C6"/>
		<stop  offset="0.725" style="stop-color:#DED0C1"/>
		<stop  offset="0.845" style="stop-color:#D5C4B1"/>
		<stop  offset="0.972" style="stop-color:#C7B299"/>
	</radialGradient>
	<path class="st66" d="M41.8,12.6c-0.6-0.9-1.2-2.1-2.3-3.5C39.4,9,39.2,8.9,39,9c-3,0.5-5.2-0.3-6.4-1c-0.3-0.3-0.9-0.6-0.8-2.1
		c0.1-0.8-1.2-0.8-1.5,0c0,0-0.5,1-0.4,2.2c0.1,0.2-0.4,0.6-0.4,0.7C27.8,11,27,12,26,12.9c-0.7,0.7-0.8,2.8-0.8,2.9
		c0.1-1.2,0.5-1.4,1-1.8c1-0.7,3-2.6,4.7-4.7c0.2-0.2,0.6-0.3,0.8-0.1c1.1,0.7,3.6,1.8,6.7,1.4c0.2,0,0.5,0.1,0.7,0.2
		c1.1,1.4,1.5,2.2,2.3,3c0.6,0.6,1.3,1.2,1.4,1.7C42.8,15.1,42.3,13.4,41.8,12.6z"/>
	
		<radialGradient id="SVGID_46_" cx="18.9158" cy="71.2084" r="5.1215" gradientTransform="matrix(0 1 1.5507 0 -76.808 -8.699)" gradientUnits="userSpaceOnUse">
		<stop  offset="0" style="stop-color:#F5F1EC"/>
		<stop  offset="0.129" style="stop-color:#EFE9E0"/>
		<stop  offset="0.434" style="stop-color:#E3D8CA"/>
		<stop  offset="0.629" style="stop-color:#DFD2C2"/>
		<stop  offset="0.731" style="stop-color:#DCCEBD"/>
		<stop  offset="0.857" style="stop-color:#D3C2AD"/>
		<stop  offset="0.972" style="stop-color:#C7B299"/>
	</radialGradient>
	<path class="st67" d="M41.8,12.7c-0.6-0.9-1.2-2.1-2.3-3.5C39.4,9,39.2,9,38.9,9c-3,0.5-5.2-0.3-6.4-1c-0.3-0.3-0.9-0.6-0.8-2.1
		c0.1-0.8-1.1-0.8-1.5,0c0,0-0.5,1-0.3,2.2c0.1,0.2-0.3,0.6-0.4,0.7C27.9,11,27,12.1,26,12.9c-0.7,0.6-0.8,2.7-0.8,2.8
		c0.1-1.2,0.5-1.4,1-1.7c1.2-0.8,3-2.7,4.7-4.7c0.2-0.2,0.6-0.3,0.8-0.1c1.1,0.7,3.6,1.8,6.7,1.4c0.2,0,0.5,0.1,0.6,0.2
		c1.1,1.4,1.5,2.1,2.3,3.1c0.6,0.6,1.3,1.2,1.4,1.7C42.8,15.1,42.3,13.5,41.8,12.7z"/>
	
		<radialGradient id="SVGID_47_" cx="18.8027" cy="71.153" r="5.1151" gradientTransform="matrix(0 1 1.5511 0 -76.75 -8.564)" gradientUnits="userSpaceOnUse">
		<stop  offset="0" style="stop-color:#F1ECE6"/>
		<stop  offset="0.102" style="stop-color:#EDE6DD"/>
		<stop  offset="0.424" style="stop-color:#E2D5C7"/>
		<stop  offset="0.629" style="stop-color:#DECFBF"/>
		<stop  offset="0.735" style="stop-color:#DBCBBA"/>
		<stop  offset="0.868" style="stop-color:#D1BFAA"/>
		<stop  offset="0.972" style="stop-color:#C7B299"/>
	</radialGradient>
	<path class="st68" d="M41.7,12.8c-0.6-0.9-1.2-2-2.3-3.5c-0.1-0.2-0.3-0.2-0.6-0.2c-3,0.5-5.3-0.3-6.4-1c-0.3-0.3-0.9-0.6-0.8-2.2
		c0.1-0.7-1.1-0.7-1.4,0c0,0-0.5,1-0.3,2.2c0.1,0.2-0.3,0.6-0.3,0.6C27.9,11.1,27,12.1,26,13c-0.7,0.6-0.8,2.6-0.8,2.8
		c0.1-1.2,0.5-1.4,1-1.7c1.3-0.9,3-2.7,4.7-4.7c0.2-0.2,0.6-0.3,0.8-0.1c1.1,0.7,3.6,1.8,6.7,1.4c0.2,0,0.5,0.1,0.6,0.2
		c1.1,1.4,1.4,2.1,2.3,3.1c0.6,0.6,1.3,1.2,1.4,1.7C42.8,15,42.2,13.5,41.7,12.8z"/>
	
		<radialGradient id="SVGID_48_" cx="18.6907" cy="71.0956" r="5.1088" gradientTransform="matrix(0 1 1.5516 0 -76.697 -8.43)" gradientUnits="userSpaceOnUse">
		<stop  offset="0" style="stop-color:#EEE7DF"/>
		<stop  offset="5.900000e-02" style="stop-color:#ECE4DA"/>
		<stop  offset="0.407" style="stop-color:#E0D3C4"/>
		<stop  offset="0.629" style="stop-color:#DCCDBC"/>
		<stop  offset="0.741" style="stop-color:#D9C9B7"/>
		<stop  offset="0.88" style="stop-color:#D0BDA7"/>
		<stop  offset="0.972" style="stop-color:#C7B299"/>
	</radialGradient>
	<path class="st69" d="M41.7,12.9c-0.6-0.9-1.2-2-2.3-3.5c-0.1-0.2-0.3-0.2-0.6-0.2c-3,0.5-5.3-0.4-6.5-1.1
		c-0.3-0.3-0.9-0.6-0.8-2.2c0.1-0.7-1-0.7-1.3,0c0,0-0.5,1-0.3,2.2c0.1,0.2-0.3,0.6-0.3,0.6C28,11.1,27,12.2,26,13.1
		c-0.7,0.6-0.8,2.5-0.8,2.7c0.1-1.1,0.5-1.3,1-1.7c1.5-1.1,3-2.7,4.7-4.8c0.2-0.2,0.6-0.3,0.8-0.1c1.1,0.7,3.6,1.8,6.7,1.4
		c0.2,0,0.5,0.1,0.6,0.2c1.1,1.4,1.4,2.1,2.3,3.1c0.6,0.6,1.3,1.2,1.3,1.7C42.7,15,42.2,13.6,41.7,12.9z"/>
	
		<radialGradient id="SVGID_49_" cx="18.5777" cy="71.0387" r="5.1029" gradientTransform="matrix(0 1 1.5521 0 -76.645 -8.295)" gradientUnits="userSpaceOnUse">
		<stop  offset="0" style="stop-color:#EAE2D9"/>
		<stop  offset="2.100000e-02" style="stop-color:#E9E1D7"/>
		<stop  offset="0.392" style="stop-color:#DED0C1"/>
		<stop  offset="0.629" style="stop-color:#DACAB9"/>
		<stop  offset="0.747" style="stop-color:#D7C6B4"/>
		<stop  offset="0.893" style="stop-color:#CEBAA4"/>
		<stop  offset="0.972" style="stop-color:#C7B299"/>
	</radialGradient>
	<path class="st70" d="M41.7,12.9c-0.6-0.9-1.2-2-2.3-3.4c-0.1-0.2-0.3-0.2-0.6-0.2c-3,0.5-5.3-0.4-6.5-1.1
		c-0.3-0.3-0.9-0.7-0.7-2.3c0.1-0.7-0.9-0.7-1.2,0c0,0-0.5,1-0.2,2.2c0.1,0.2-0.3,0.5-0.3,0.6c-1.8,2.4-2.9,3.6-3.8,4.4
		c-0.7,0.6-0.8,2.4-0.8,2.6c0.1-1.1,0.5-1.3,1-1.6c1.6-1.2,3-2.7,4.7-4.8c0.2-0.2,0.6-0.3,0.8-0.1c1.1,0.7,3.6,1.8,6.7,1.4
		c0.2,0,0.5,0.1,0.6,0.2c1,1.4,1.4,2.1,2.4,3.1c0.6,0.6,1.3,1.2,1.3,1.7C42.7,15,42.2,13.7,41.7,12.9z"/>
	
		<radialGradient id="SVGID_50_" cx="18.4651" cy="70.9811" r="5.0966" gradientTransform="matrix(0 1 1.5526 0 -76.591 -8.16)" gradientUnits="userSpaceOnUse">
		<stop  offset="0" style="stop-color:#E7DDD2"/>
		<stop  offset="0.368" style="stop-color:#DCCEBE"/>
		<stop  offset="0.629" style="stop-color:#D8C8B6"/>
		<stop  offset="0.754" style="stop-color:#D5C4B1"/>
		<stop  offset="0.909" style="stop-color:#CCB8A1"/>
		<stop  offset="0.972" style="stop-color:#C7B299"/>
	</radialGradient>
	<path class="st71" d="M41.7,13c-0.6-0.9-1.2-2-2.3-3.4c-0.1-0.2-0.3-0.2-0.6-0.2c-3,0.5-5.3-0.4-6.5-1.1C32,8,31.4,7.6,31.6,6
		c0.1-0.7-0.9-0.6-1.1,0c0,0-0.4,1.1-0.2,2.2c0,0.2-0.3,0.5-0.3,0.6c-1.8,2.5-3,3.7-3.9,4.5c-0.7,0.6-0.8,2.3-0.9,2.5
		c0.1-1,0.6-1.3,1-1.6c1.7-1.3,3-2.8,4.7-4.8c0.2-0.2,0.6-0.3,0.8-0.1c1.1,0.7,3.6,1.8,6.7,1.4c0.2,0,0.5,0.1,0.6,0.2
		c1,1.4,1.4,2.1,2.4,3.2c0.6,0.6,1.3,1.2,1.3,1.7C42.7,15,42.1,13.7,41.7,13z"/>
	
		<radialGradient id="SVGID_51_" cx="18.3536" cy="70.9261" r="5.0903" gradientTransform="matrix(0 1 1.553 0 -76.534 -8.027)" gradientUnits="userSpaceOnUse">
		<stop  offset="0" style="stop-color:#E3D9CC"/>
		<stop  offset="0.346" style="stop-color:#DACCBB"/>
		<stop  offset="0.629" style="stop-color:#D6C6B3"/>
		<stop  offset="0.762" style="stop-color:#D3C2AE"/>
		<stop  offset="0.928" style="stop-color:#CAB69E"/>
		<stop  offset="0.972" style="stop-color:#C7B299"/>
	</radialGradient>
	<path class="st72" d="M41.7,13.1c-0.6-0.9-1.3-2-2.3-3.4c-0.1-0.2-0.3-0.2-0.6-0.2c-3,0.5-5.4-0.4-6.5-1.1
		c-0.3-0.3-0.9-0.7-0.7-2.3c0.1-0.7-0.8-0.6-1,0c0,0-0.4,1.1-0.2,2.2c0.1,0.2-0.2,0.5-0.2,0.5c-1.9,2.5-3.1,3.8-4,4.5
		c-0.7,0.6-0.9,2.1-0.9,2.4c0.1-1,0.6-1.3,1-1.6c1.9-1.4,3-2.8,4.7-4.9c0.2-0.2,0.6-0.3,0.8-0.1c1.1,0.7,3.6,1.8,6.7,1.4
		c0.2,0,0.5,0,0.6,0.2c1,1.4,1.4,2,2.4,3.2c0.6,0.6,1.3,1.2,1.3,1.7C42.7,15,42.1,13.8,41.7,13.1z"/>
	
		<radialGradient id="SVGID_52_" cx="18.2415" cy="70.8685" r="5.0844" gradientTransform="matrix(0 1 1.5535 0 -76.48 -7.893)" gradientUnits="userSpaceOnUse">
		<stop  offset="0" style="stop-color:#E0D4C6"/>
		<stop  offset="0.329" style="stop-color:#D8C9B7"/>
		<stop  offset="0.629" style="stop-color:#D4C3AF"/>
		<stop  offset="0.776" style="stop-color:#D1BFAA"/>
		<stop  offset="0.96" style="stop-color:#C8B39A"/>
		<stop  offset="0.972" style="stop-color:#C7B299"/>
	</radialGradient>
	<path class="st73" d="M41.6,13.2c-0.6-0.9-1.3-2-2.3-3.4c-0.1-0.2-0.3-0.2-0.6-0.2c-3,0.5-5.4-0.4-6.5-1.1
		c-0.3-0.3-0.9-0.7-0.7-2.4c0.1-0.6-0.7-0.5-0.9,0c0,0-0.4,1.1-0.2,2.3c0.1,0.2-0.2,0.5-0.2,0.5c-1.9,2.6-3.2,3.8-4.1,4.6
		c-0.7,0.6-0.9,2-0.9,2.4c0.1-0.9,0.6-1.2,1-1.5c2-1.5,3-2.8,4.7-4.9c0.2-0.2,0.6-0.3,0.8-0.1c1.1,0.7,3.6,1.8,6.7,1.4
		c0.2,0,0.5,0,0.6,0.2c1,1.4,1.4,2,2.4,3.2c0.6,0.7,1.2,1.2,1.3,1.7C42.7,15,42.1,13.9,41.6,13.2z"/>
	
		<radialGradient id="SVGID_53_" cx="18.129" cy="70.8117" r="5.0781" gradientTransform="matrix(0 1 1.554 0 -76.428 -7.758)" gradientUnits="userSpaceOnUse">
		<stop  offset="0" style="stop-color:#DCCFBF"/>
		<stop  offset="0.285" style="stop-color:#D6C7B4"/>
		<stop  offset="0.629" style="stop-color:#D2C1AC"/>
		<stop  offset="0.79" style="stop-color:#CFBDA7"/>
		<stop  offset="0.972" style="stop-color:#C7B299"/>
	</radialGradient>
	<path class="st74" d="M41.6,13.2c-0.6-1-1.3-1.9-2.3-3.4c-0.1-0.2-0.3-0.2-0.6-0.2c-3,0.5-5.4-0.5-6.6-1.2
		c-0.3-0.3-0.9-0.7-0.7-2.4c0.1-0.6-0.7-0.5-0.8,0c0,0-0.4,1.1-0.1,2.3c0.1,0.2-0.2,0.4-0.2,0.5c-1.9,2.6-3.3,3.9-4.2,4.7
		c-0.7,0.6-0.9,1.9-0.9,2.3c0.1-0.9,0.6-1.2,1-1.5c2.2-1.6,3-2.9,4.7-4.9c0.2-0.2,0.6-0.3,0.8-0.1c1.1,0.7,3.6,1.8,6.7,1.4
		c0.2,0,0.5,0,0.6,0.2c1,1.4,1.4,2,2.4,3.2c0.5,0.7,1.2,1.2,1.3,1.7C42.7,15,42.1,13.9,41.6,13.2z"/>
	
		<radialGradient id="SVGID_54_" cx="18.0174" cy="70.7545" r="5.0722" gradientTransform="matrix(0 1 1.5545 0 -76.375 -7.625)" gradientUnits="userSpaceOnUse">
		<stop  offset="0" style="stop-color:#D9CAB9"/>
		<stop  offset="0.24" style="stop-color:#D5C4B1"/>
		<stop  offset="0.629" style="stop-color:#D0BEA9"/>
		<stop  offset="0.807" style="stop-color:#CDBAA4"/>
		<stop  offset="0.972" style="stop-color:#C7B299"/>
	</radialGradient>
	<path class="st75" d="M41.6,13.3c-0.6-1-1.3-1.9-2.3-3.4c-0.1-0.2-0.3-0.2-0.6-0.2c-3,0.5-5.4-0.5-6.6-1.2
		c-0.3-0.3-0.9-0.7-0.7-2.5c0-0.6-0.6-0.4-0.8,0c0,0-0.4,1.1-0.1,2.3c0.1,0.2-0.1,0.4-0.2,0.5c-1.9,2.7-3.4,4-4.2,4.8
		c-0.7,0.6-0.9,1.8-0.9,2.2c0.1-0.8,0.6-1.2,1-1.5c2.3-1.8,3-2.9,4.7-5c0.2-0.2,0.5-0.3,0.8-0.1c1.1,0.7,3.6,1.8,6.7,1.4
		c0.2,0,0.5,0,0.6,0.2c1,1.4,1.4,2,2.4,3.3c0.5,0.7,1.2,1.2,1.3,1.7C42.7,15,42,14,41.6,13.3z"/>
	
		<radialGradient id="SVGID_55_" cx="17.8977" cy="70.6852" r="5.0678" gradientTransform="matrix(0 1 1.5549 0 -76.295 -7.476)" gradientUnits="userSpaceOnUse">
		<stop  offset="0" style="stop-color:#D5C5B3"/>
		<stop  offset="0.178" style="stop-color:#D3C2AE"/>
		<stop  offset="0.629" style="stop-color:#CFBCA6"/>
		<stop  offset="0.831" style="stop-color:#CCB8A1"/>
		<stop  offset="0.972" style="stop-color:#C7B299"/>
	</radialGradient>
	<path class="st76" d="M41.6,13.4c-0.6-1-1.3-1.9-2.3-3.4c-0.1-0.2-0.3-0.2-0.6-0.2c-3,0.5-5.5-0.5-6.6-1.2
		c-0.3-0.3-0.9-0.7-0.7-2.5c0-0.6-0.5-0.4-0.7,0c0,0-0.4,1.1-0.1,2.3c0.1,0.2-0.1,0.4-0.1,0.4c-2,2.8-3.5,4.1-4.3,4.8
		c-0.7,0.6-0.9,1.7-0.9,2.1c0.1-0.8,0.6-1.1,1-1.4c2.4-1.9,3-2.9,4.7-5c0.2-0.2,0.5-0.3,0.8-0.1c1.1,0.7,3.6,1.8,6.7,1.4
		c0.2,0,0.5,0,0.6,0.2c1,1.4,1.3,2,2.4,3.3c0.5,0.7,1.2,1.2,1.3,1.7C42.7,14.9,42,14.1,41.6,13.4z"/>
	
		<radialGradient id="SVGID_56_" cx="17.7733" cy="70.6041" r="5.0654" gradientTransform="matrix(0 1 1.5554 0 -76.205 -7.318)" gradientUnits="userSpaceOnUse">
		<stop  offset="0" style="stop-color:#D2C0AC"/>
		<stop  offset="4.200000e-02" style="stop-color:#D2BFAB"/>
		<stop  offset="0.629" style="stop-color:#CDB9A3"/>
		<stop  offset="0.865" style="stop-color:#CAB59E"/>
		<stop  offset="0.972" style="stop-color:#C7B299"/>
	</radialGradient>
	<path class="st77" d="M41.5,13.5c-0.6-1-1.4-1.9-2.3-3.4c-0.1-0.2-0.3-0.2-0.6-0.2c-3,0.5-5.5-0.5-6.6-1.2
		c-0.3-0.3-0.9-0.7-0.7-2.5c0-0.5-0.5-0.4-0.6,0c0,0-0.3,1.1,0,2.3c0.1,0.2-0.1,0.4-0.1,0.4c-2,2.8-3.6,4.2-4.4,4.9
		c-0.7,0.6-0.9,1.6-1,2.1c0.2-0.8,0.6-1.1,1-1.4c2.6-2,3-3,4.7-5c0.2-0.2,0.5-0.3,0.8-0.1c1.1,0.7,3.6,1.8,6.7,1.4
		c0.2,0,0.5,0,0.6,0.2c0.9,1.4,1.3,1.9,2.4,3.3c0.5,0.7,1.2,1.2,1.3,1.7C42.7,14.9,42,14.1,41.5,13.5z"/>
	
		<radialGradient id="SVGID_57_" cx="17.649" cy="70.5232" r="5.0624" gradientTransform="matrix(0 1 1.5559 0 -76.115 -7.16)" gradientUnits="userSpaceOnUse">
		<stop  offset="0" style="stop-color:#CEBCA6"/>
		<stop  offset="0.629" style="stop-color:#CBB79F"/>
		<stop  offset="0.95" style="stop-color:#C7B39A"/>
		<stop  offset="0.972" style="stop-color:#C7B299"/>
	</radialGradient>
	<path class="st78" d="M41.5,13.5c-0.6-1-1.4-1.9-2.3-3.4c-0.1-0.2-0.3-0.2-0.6-0.2c-3,0.5-5.5-0.5-6.7-1.2
		c-0.3-0.3-0.8-0.7-0.7-2.6c0-0.5-0.4-0.3-0.5,0c0,0-0.3,1.2,0,2.3c0.1,0.2-0.1,0.4-0.1,0.4c-2,2.9-3.7,4.3-4.5,5
		c-0.7,0.6-1,1.5-1,2c0.2-0.7,0.7-1.1,1-1.4c2.7-2.1,3-3,4.7-5.1C31,9.1,31.3,9,31.6,9.2c1.1,0.7,3.6,1.8,6.7,1.4
		c0.2,0,0.5,0,0.6,0.2c0.9,1.4,1.3,1.9,2.4,3.3c0.5,0.7,1.2,1.2,1.3,1.7C42.7,14.9,41.9,14.2,41.5,13.5z"/>
	
		<radialGradient id="SVGID_58_" cx="17.5252" cy="70.444" r="5.0595" gradientTransform="matrix(0 1 1.5563 0 -76.02 -7.003)" gradientUnits="userSpaceOnUse">
		<stop  offset="0" style="stop-color:#CBB79F"/>
		<stop  offset="0.629" style="stop-color:#C9B49C"/>
		<stop  offset="0.972" style="stop-color:#C7B299"/>
	</radialGradient>
	<path class="st79" d="M41.5,13.6c-0.7-1-1.4-1.8-2.4-3.4C39,10,38.8,10,38.6,10c-3,0.5-5.5-0.6-6.7-1.3C31.6,8.5,31,8,31.2,6.1
		c0-0.5-0.3-0.3-0.4,0c0,0-0.3,1.2,0,2.3c0.1,0.2,0,0.3-0.1,0.4c-2,2.9-3.8,4.4-4.5,5.1c-0.7,0.6-1,1.4-1,1.9c0.2-0.7,0.7-1,1-1.3
		c2.8-2.2,3-3,4.7-5.1c0.2-0.2,0.5-0.3,0.8-0.1c1.1,0.7,3.6,1.8,6.7,1.4c0.2,0,0.5,0,0.6,0.2c0.9,1.4,1.3,1.9,2.5,3.4
		c0.5,0.7,1.2,1.2,1.3,1.7C42.7,14.9,41.9,14.3,41.5,13.6z"/>
	<path class="st23" d="M41.5,13.7c-0.7-1-1.4-1.8-2.4-3.4c-0.1-0.2-0.3-0.2-0.6-0.2c-3,0.5-5.6-0.6-6.7-1.3C31.5,8.5,31,8,31.1,6.1
		c0-0.5-0.3-0.2-0.3,0c0,0-0.3,1.2,0,2.3c0.1,0.2,0,0.3,0,0.3c-2.1,3-3.9,4.5-4.6,5.1c-0.7,0.6-1,1.2-1,1.8c0.2-0.6,0.7-1,1-1.3
		c3-2.3,3-3.1,4.7-5.1c0.2-0.2,0.5-0.3,0.8-0.1c1.1,0.7,3.6,1.8,6.7,1.4c0.2,0,0.4,0,0.6,0.2c0.9,1.4,1.3,1.9,2.5,3.4
		c0.5,0.7,1.2,1.2,1.3,1.7C42.7,14.9,41.9,14.3,41.5,13.7z"/>
</g>
<path class="st80" d="M28.1,16c0,0.2,0,0.2,0.1,0.3c0,0,1,1.3,3.9,0.4c0.2-0.1,0.4-0.2,0.3-0.4C32.1,13.5,28.6,13.8,28.1,16z"/>
<path class="st81" d="M28.2,16c-0.1,0.2-0.1,0.3,0,0.4c0.2,0.5,1.9,2.4,4.2,0.4c0.2-0.1,0.2-0.3,0.2-0.4c0-0.2-0.6-1.6-2.2-1.6
	C28.8,14.7,28.3,15.8,28.2,16z"/>
<linearGradient id="SVGID_59_" gradientUnits="userSpaceOnUse" x1="29.0975" y1="-18" x2="31.5368" y2="-18" gradientTransform="matrix(1 0 0 -1 0 -2)">
	<stop  offset="0" style="stop-color:#90BCFC"/>
	<stop  offset="1" style="stop-color:#2877F7"/>
</linearGradient>
<circle class="st82" cx="30.3" cy="16" r="1.2"/>
<radialGradient id="SVGID_60_" cx="30.3172" cy="-17.9671" r="0.6176" gradientTransform="matrix(1 0 0 -1 0 -2)" gradientUnits="userSpaceOnUse">
	<stop  offset="0" style="stop-color:#1C1911"/>
	<stop  offset="0.999" style="stop-color:#171714"/>
</radialGradient>
<circle class="st83" cx="30.3" cy="16" r="0.6"/>
<path class="st80" d="M39.8,16c0,0.2,0,0.2-0.1,0.3c0,0-1,1.3-3.9,0.4c-0.2-0.1-0.4-0.2-0.3-0.4C35.8,13.5,39.3,13.8,39.8,16z"/>
<path class="st81" d="M39.8,16c0.1,0.2,0.1,0.3,0,0.4c-0.2,0.5-1.9,2.4-4.2,0.4c-0.2-0.1-0.2-0.3-0.2-0.4c0-0.2,0.6-1.6,2.2-1.6
	C39.2,14.7,39.7,15.8,39.8,16z"/>
<linearGradient id="SVGID_61_" gradientUnits="userSpaceOnUse" x1="22.4153" y1="-18" x2="24.8546" y2="-18" gradientTransform="matrix(1 0 0 -1 14 -2)">
	<stop  offset="0" style="stop-color:#90BCFC"/>
	<stop  offset="1" style="stop-color:#2877F7"/>
</linearGradient>
<circle class="st84" cx="37.6" cy="16" r="1.2"/>
<radialGradient id="SVGID_62_" cx="-1178.635" cy="-17.9671" r="0.6176" gradientTransform="matrix(-1 0 0 -1 -1141 -2)" gradientUnits="userSpaceOnUse">
	<stop  offset="0" style="stop-color:#1C1911"/>
	<stop  offset="0.999" style="stop-color:#171714"/>
</radialGradient>
<circle class="st85" cx="37.6" cy="16" r="0.6"/>
<circle class="st81" cx="29.8" cy="15.5" r="0.2"/>
<circle class="st81" cx="37.1" cy="15.5" r="0.2"/>
<g>
	<path class="st86" d="M28.9,13.3c0.2-0.1,0.4-0.2,0.7-0.2C29.8,13,30,13,30.2,13c0.4-0.1,0.9-0.2,1.3-0.2l0,0
		c0.3,0,0.5,0.2,0.5,0.4c0,0.3-0.2,0.5-0.4,0.5h-0.1c-0.4,0-0.8-0.1-1.3-0.1c-0.2,0-0.4,0-0.6,0s-0.4,0-0.6,0.1l0,0
		c-0.1,0-0.3-0.1-0.3-0.2C28.7,13.5,28.8,13.4,28.9,13.3z"/>
</g>
<g>
	<path class="st86" d="M38.8,13.7c-0.2,0-0.4,0-0.6,0c-0.2,0-0.4,0-0.6,0c-0.4,0-0.9,0-1.3,0.1c-0.3,0-0.5-0.2-0.5-0.4
		c0-0.3,0.2-0.5,0.4-0.5h0.1c0.4,0,0.9,0.1,1.3,0.2c0.2,0,0.4,0.1,0.7,0.1c0.2,0.1,0.4,0.1,0.7,0.2c0.1,0,0.2,0.2,0.2,0.3
		C39.1,13.7,39,13.7,38.8,13.7L38.8,13.7z"/>
</g>
<g>
	
		<radialGradient id="SVGID_63_" cx="-22.2285" cy="-13.1765" r="1.225" gradientTransform="matrix(1.37 0 0 -1.3195 64.383 1.12)" gradientUnits="userSpaceOnUse">
		<stop  offset="0.245" style="stop-color:#CC9000"/>
		<stop  offset="0.415" style="stop-color:#D09504;stop-opacity:0.822"/>
		<stop  offset="0.627" style="stop-color:#DCA50F;stop-opacity:0.599"/>
		<stop  offset="0.851" style="stop-color:#EEBD20;stop-opacity:0.363"/>
		<stop  offset="1" style="stop-color:#FED12E;stop-opacity:0"/>
	</radialGradient>
	<path class="st87" d="M33.9,19c-0.6,0-1-0.1-1.3-0.3c-0.2-0.1-0.4-0.1-0.3,0.3c0.2,0.5,0.6,1.1,1.6,1.1s1.4-0.6,1.6-1
		c0.1-0.4-0.1-0.4-0.2-0.3C34.9,18.9,34.5,19,33.9,19z"/>
	
		<radialGradient id="SVGID_64_" cx="-76.2655" cy="70.7085" r="1.0908" gradientTransform="matrix(1.4549 0 4.100000e-03 0.8212 144.608 -40.046)" gradientUnits="userSpaceOnUse">
		<stop  offset="0.479" style="stop-color:#FED53F"/>
		<stop  offset="0.926" style="stop-color:#FED53F;stop-opacity:0.141"/>
		<stop  offset="1" style="stop-color:#FED53F;stop-opacity:0"/>
	</radialGradient>
	<path class="st88" d="M35.6,18.1c0,0.5-0.8,1-1.7,0.9c-0.9,0-1.7-0.5-1.7-1s0.8-1,1.7-0.9C34.9,17.1,35.6,17.5,35.6,18.1z"/>
	
		<radialGradient id="SVGID_65_" cx="33.9224" cy="98.034" r="0.8747" gradientTransform="matrix(1 0 0 0.5578 0 -36.658)" gradientUnits="userSpaceOnUse">
		<stop  offset="4.000000e-03" style="stop-color:#FFF4C9"/>
		<stop  offset="1" style="stop-color:#FFF4C9;stop-opacity:0"/>
	</radialGradient>
	<ellipse class="st89" cx="33.9" cy="18" rx="0.9" ry="0.5"/>
</g>
<radialGradient id="SVGID_66_" cx="21.1117" cy="0.9454" r="1.2211" gradientTransform="matrix(0.9938 0.1748 0.4458 -2.1652 3.799748e-02 13.859)" gradientUnits="userSpaceOnUse">
	<stop  offset="0" style="stop-color:#FFE16E"/>
	<stop  offset="0.461" style="stop-color:#FFD226"/>
	<stop  offset="0.741" style="stop-color:#F8C21D"/>
	<stop  offset="0.999" style="stop-color:#F0AF13"/>
</radialGradient>
<path class="st90" d="M21,13.7c0.6-0.2,1.9-0.1,2,1.4c0,1.4-0.3,2-0.9,2.6c-0.6,0.7-1.6,0.7-1.5,0.1C20.7,17.3,21,13.7,21,13.7z"/>
<radialGradient id="SVGID_67_" cx="-1295.2864" cy="-5.3415" r="1.2211" gradientTransform="matrix(-0.9938 0.1748 -0.4458 -2.1652 -1282.807 230.331)" gradientUnits="userSpaceOnUse">
	<stop  offset="0" style="stop-color:#FFE16E"/>
	<stop  offset="0.461" style="stop-color:#FFD226"/>
	<stop  offset="0.741" style="stop-color:#F8C21D"/>
	<stop  offset="0.999" style="stop-color:#F0AF13"/>
</radialGradient>
<path class="st91" d="M7.2,13.7c-0.6-0.2-1.9-0.1-2,1.4c0,1.4,0.3,2,0.9,2.6c0.6,0.7,1.6,0.7,1.5,0.1C7.6,17.3,7.2,13.7,7.2,13.7z"
	/>
<radialGradient id="SVGID_68_" cx="40.0349" cy="-17.5265" r="9.0184" fx="39.9874" fy="-21.3899" gradientTransform="matrix(0.8889 0 0 -1 -21.487 -2)" gradientUnits="userSpaceOnUse">
	<stop  offset="0" style="stop-color:#FFE16E"/>
	<stop  offset="0.629" style="stop-color:#FFD226"/>
	<stop  offset="0.75" style="stop-color:#FDCD23"/>
	<stop  offset="0.899" style="stop-color:#F6BD1B"/>
	<stop  offset="0.999" style="stop-color:#F0AF13"/>
</radialGradient>
<path class="st92" d="M22,15.3c0,1.7-0.4,4.2-1.1,5.6c-0.9,1.7-2.3,2.6-4.1,3.3c-0.9,0.4-1.8,0.5-2.7,0.5c-1,0-1.9-0.2-2.8-0.6
	c-1.7-0.7-3.1-1.6-4-3.3c-0.7-1.3-1.1-3.9-1.1-5.6c0-0.4,0-0.7,0-1c0.1-1.9,0.6-3.2,1.3-4.4c1.4-2.4,3.8-3.5,6.6-3.5
	c2.7,0,5.1,1.1,6.6,3.4c0.7,1.1,1.1,2.4,1.3,4.1C22,14.3,22,14.8,22,15.3z"/>
<linearGradient id="SVGID_69_" gradientUnits="userSpaceOnUse" x1="-2.891" y1="-29.7593" x2="-0.2984" y2="-26.7038" gradientTransform="matrix(1.1758 -0.1668 -0.1971 -0.986 7.457 -7.306)">
	<stop  offset="0" style="stop-color:#FFE16E;stop-opacity:0"/>
	<stop  offset="1" style="stop-color:#F3B620"/>
</linearGradient>
<path class="st93" d="M10.8,22c-0.4-0.9-0.1-2.6,1.3-3.5c0.4-0.2,0.5-0.1,0.2,0.1c-1,0.9-1.4,2.3-1.2,3.4
	C11.2,22.4,10.9,22.2,10.8,22z"/>
<linearGradient id="SVGID_70_" gradientUnits="userSpaceOnUse" x1="19.3451" y1="-16.4484" x2="16.8579" y2="-12.745" gradientTransform="matrix(1.1482 0.244 0.2603 -0.9708 0.314 2.833)">
	<stop  offset="0" style="stop-color:#FFE16E;stop-opacity:0"/>
	<stop  offset="1" style="stop-color:#F3B620"/>
</linearGradient>
<path class="st94" d="M17.3,22.1c0.4-0.9,0.3-2.6-1.1-3.6c-0.4-0.3-0.5-0.2-0.2,0.1c0.9,0.9,1.3,2.4,1,3.4
	C16.9,22.4,17.1,22.3,17.3,22.1z"/>
<radialGradient id="SVGID_71_" cx="-86.5502" cy="-47.6964" r="1.8789" gradientTransform="matrix(1.0927 0 0 -1.3094 108.652 -41.774)" gradientUnits="userSpaceOnUse">
	<stop  offset="0.696" style="stop-color:#CC9000"/>
	<stop  offset="1" style="stop-color:#CC9000;stop-opacity:0"/>
</radialGradient>
<path class="st95" d="M14.1,22.1c-2.1,0-2.1-1.2-2.1-1.2s0.1,2.4,2.1,2.4s2.1-2.4,2.1-2.4S16.1,22.1,14.1,22.1z"/>
<radialGradient id="SVGID_72_" cx="123.7208" cy="-133.4898" r="2.8987" fx="123.7188" fy="-133.3815" gradientTransform="matrix(0.7909 0 0 -0.4766 -83.767 -42.804)" gradientUnits="userSpaceOnUse">
	<stop  offset="0.371" style="stop-color:#FFD226"/>
	<stop  offset="0.948" style="stop-color:#FFE16E"/>
	<stop  offset="1" style="stop-color:#FFE16E;stop-opacity:0"/>
</radialGradient>
<path class="st96" d="M16.3,20.7c0,0,0,1.5-2.3,1.5s-2.3-1.5-2.3-1.5s0.5,0.5,2.3,0.5S16.3,20.7,16.3,20.7z"/>
<radialGradient id="SVGID_73_" cx="75.7935" cy="-70.2624" r="2.3201" gradientTransform="matrix(0.8333 0 0 -0.6703 -49.042 -26.416)" gradientUnits="userSpaceOnUse">
	<stop  offset="0" style="stop-color:#1C1911"/>
	<stop  offset="0.999" style="stop-color:#171714"/>
</radialGradient>
<path class="st97" d="M12,20.7c-0.1,0-0.2,0.1-0.1,0.2c0.5,0.6,1.5,0.8,2.2,0.8c0.8,0,1.8-0.2,2.2-0.8c0.1-0.1,0-0.2-0.1-0.2
	C14.6,20.7,13.6,20.7,12,20.7z"/>
<path class="st80" d="M8.2,15.5c0,0.2,0,0.2,0.1,0.3c0,0,1,1.3,4,0.4c0.2-0.1,0.4-0.2,0.3-0.4C12.2,13,8.6,13.4,8.2,15.5z"/>
<path class="st81" d="M8.2,15.4c-0.1,0.2-0.1,0.3,0,0.4c0.2,0.6,2,2.6,4.4,0.5c0.2-0.1,0.2-0.3,0.2-0.5s-0.7-1.7-2.3-1.7
	C8.9,14.2,8.3,15.2,8.2,15.4z"/>
<linearGradient id="SVGID_74_" gradientUnits="userSpaceOnUse" x1="9.139" y1="-17.5" x2="11.6119" y2="-17.5" gradientTransform="matrix(1 0 0 -1 0 -2)">
	<stop  offset="0" style="stop-color:#C69C6D"/>
	<stop  offset="1" style="stop-color:#754C24"/>
</linearGradient>
<circle class="st98" cx="10.4" cy="15.5" r="1.2"/>
<radialGradient id="SVGID_75_" cx="10.3754" cy="-17.5265" r="0.6255" gradientTransform="matrix(1 0 0 -1 0 -2)" gradientUnits="userSpaceOnUse">
	<stop  offset="0" style="stop-color:#1C1911"/>
	<stop  offset="0.999" style="stop-color:#171714"/>
</radialGradient>
<circle class="st99" cx="10.4" cy="15.5" r="0.6"/>
<path class="st80" d="M20,15.5c0,0.2,0,0.2-0.1,0.3c0,0-1,1.3-4,0.4c-0.2-0.1-0.4-0.2-0.3-0.4C16,13,19.5,13.3,20,15.5z"/>
<path class="st81" d="M20,15.5c0.1,0.2,0.1,0.3,0,0.4c-0.2,0.6-2,2.5-4.4,0.5c-0.2-0.1-0.2-0.3-0.2-0.5s0.7-1.7,2.3-1.7
	C19.3,14.2,19.8,15.2,20,15.5z"/>
<linearGradient id="SVGID_76_" gradientUnits="userSpaceOnUse" x1="2.5576" y1="-17.5" x2="5.0305" y2="-17.5" gradientTransform="matrix(1 0 0 -1 14 -2)">
	<stop  offset="0" style="stop-color:#C69C6D"/>
	<stop  offset="1" style="stop-color:#754C24"/>
</linearGradient>
<circle class="st100" cx="17.8" cy="15.5" r="1.2"/>
<radialGradient id="SVGID_77_" cx="-1430.7941" cy="-17.5265" r="0.6261" gradientTransform="matrix(-1 0 0 -1 -1413 -2)" gradientUnits="userSpaceOnUse">
	<stop  offset="0" style="stop-color:#1C1911"/>
	<stop  offset="0.999" style="stop-color:#171714"/>
</radialGradient>
<circle class="st101" cx="17.8" cy="15.5" r="0.6"/>
<circle class="st81" cx="9.9" cy="15" r="0.2"/>
<circle class="st81" cx="17.3" cy="15" r="0.2"/>
<g>
	<path class="st80" d="M8.9,12.8c0.2-0.1,0.4-0.2,0.7-0.2c0.2-0.1,0.4-0.1,0.7-0.2c0.5-0.1,0.9-0.2,1.4-0.2l0,0
		c0.3,0,0.5,0.2,0.5,0.5s-0.2,0.5-0.5,0.5h-0.1c-0.4,0-0.9-0.1-1.3-0.1c-0.2,0-0.4,0-0.6,0c-0.2,0-0.4,0-0.6,0.1l0,0
		c-0.1,0-0.3-0.1-0.3-0.2C8.8,13,8.8,12.9,8.9,12.8z"/>
</g>
<g>
	<path class="st80" d="M19,13.3c-0.2,0-0.4,0-0.6-0.1c-0.2,0-0.4,0-0.6,0c-0.4,0-0.9,0-1.3,0.1c-0.3,0-0.5-0.2-0.6-0.5
		c0-0.3,0.2-0.5,0.5-0.6h0.1c0.5,0,0.9,0.1,1.4,0.2c0.2,0,0.4,0.1,0.7,0.1c0.2,0.1,0.4,0.1,0.7,0.2c0.1,0,0.2,0.2,0.2,0.3
		C19.3,13.2,19.1,13.3,19,13.3L19,13.3z"/>
</g>
<g>
	<ellipse class="st102" cx="10.4" cy="16" rx="2.5" ry="2.1"/>
	<ellipse class="st102" cx="17.8" cy="16" rx="2.5" ry="2.1"/>
	<path class="st102" d="M12.8,15.6c0.8-0.3,1.7-0.3,2.5,0"/>
	<line class="st103" x1="5.7" y1="14.2" x2="7.9" y2="15.4"/>
	<line class="st103" x1="22.6" y1="14.1" x2="20.2" y2="15.4"/>
</g>
<g>
	
		<radialGradient id="SVGID_78_" cx="-36.7482" cy="-12.8083" r="1.1776" gradientTransform="matrix(1.37 0 0 -1.3195 64.383 1.12)" gradientUnits="userSpaceOnUse">
		<stop  offset="0.245" style="stop-color:#CC9000"/>
		<stop  offset="0.415" style="stop-color:#D09504;stop-opacity:0.822"/>
		<stop  offset="0.627" style="stop-color:#DCA50F;stop-opacity:0.599"/>
		<stop  offset="0.851" style="stop-color:#EEBD20;stop-opacity:0.363"/>
		<stop  offset="1" style="stop-color:#FED12E;stop-opacity:0"/>
	</radialGradient>
	<path class="st104" d="M14,18.5c-0.5,0-1-0.1-1.3-0.3c-0.2-0.1-0.4-0.1-0.3,0.3c0.2,0.5,0.6,1,1.5,1s1.3-0.5,1.5-1
		c0.1-0.4-0.1-0.4-0.2-0.3C15,18.4,14.6,18.5,14,18.5z"/>
	
		<radialGradient id="SVGID_79_" cx="-89.9369" cy="70.1399" r="1.0491" gradientTransform="matrix(1.4549 0 4.100000e-03 0.8212 144.608 -40.046)" gradientUnits="userSpaceOnUse">
		<stop  offset="0.479" style="stop-color:#FED53F"/>
		<stop  offset="0.926" style="stop-color:#FED53F;stop-opacity:0.141"/>
		<stop  offset="1" style="stop-color:#FED53F;stop-opacity:0"/>
	</radialGradient>
	<path class="st105" d="M15.7,17.6c0,0.5-0.8,0.9-1.7,0.9s-1.6-0.5-1.6-1s0.8-0.9,1.7-0.9C15,16.6,15.7,17.1,15.7,17.6z"/>
	
		<radialGradient id="SVGID_80_" cx="14.0304" cy="97.1957" r="0.8409" gradientTransform="matrix(1 0 0 0.5578 0 -36.658)" gradientUnits="userSpaceOnUse">
		<stop  offset="4.000000e-03" style="stop-color:#FFF4C9"/>
		<stop  offset="1" style="stop-color:#FFF4C9;stop-opacity:0"/>
	</radialGradient>
	<ellipse class="st106" cx="14" cy="17.6" rx="0.8" ry="0.5"/>
</g>
<g>
	
		<radialGradient id="SVGID_81_" cx="15.1341" cy="59.2603" r="5.7634" gradientTransform="matrix(-1.150000e-02 1.0378 1.4662 1.730000e-02 -73.089 -6.062)" gradientUnits="userSpaceOnUse">
		<stop  offset="0" style="stop-color:#FFFFFF"/>
		<stop  offset="0.194" style="stop-color:#F5F0EA"/>
		<stop  offset="0.46" style="stop-color:#E9DFD4"/>
		<stop  offset="0.629" style="stop-color:#E5D9CC"/>
		<stop  offset="0.718" style="stop-color:#E2D5C7"/>
		<stop  offset="0.829" style="stop-color:#D9C9B7"/>
		<stop  offset="0.952" style="stop-color:#CAB69E"/>
		<stop  offset="0.972" style="stop-color:#C7B299"/>
	</radialGradient>
	<path class="st107" d="M6.9,12.2c0.8-0.2,2.3-1.7,3.9-3.8c0.2-0.2,0.5-0.3,0.8-0.1c1.1,0.7,3.6,1.9,6.7,1.4c0.2,0,0.4,0,0.6,0.2
		c1.1,1.4,1.4,1.5,2.4,2.1c0.7,0.4,0.7,2.1,0.8,2.6c0.2-2.2,3.5-11.2-8.2-11.7c-1,0-2,0.2-2.7,0.8c-0.5-0.1-1.6,0.3-2,0.5
		C2.3,9,6.3,15,6.2,16C6.2,14.4,6.6,12.4,6.9,12.2z"/>
	<g>
		<path class="st47" d="M21.8,13.5c-0.1-0.5-1.8-2.4-2.9-3.7c-0.1-0.2-0.3-0.2-0.5-0.2c-3,0.5-5.5-0.7-6.6-1.4
			C11.5,8,11.2,8.1,11,8.3c-1.3,1.6-3.8,4.5-4.8,5.1c0,0.1,0,0.6,0,0.8c1.2-0.4,3.8-3,5.1-4.7c0.2-0.2,0.4-0.3,0.6-0.1
			c1.1,0.7,3.4,1.8,6.5,1.3c0.2,0,0.4,0,0.5,0.2c1,1.4,2.4,2.9,2.9,3.3C21.8,14,21.8,13.7,21.8,13.5z"/>
		<path class="st48" d="M21.8,13.5c-0.1-0.5-1.8-2.4-2.9-3.7c-0.1-0.2-0.3-0.2-0.5-0.2c-3,0.5-5.5-0.7-6.6-1.4
			C11.5,8,11.2,8.1,11,8.3c-1.3,1.6-3.8,4.5-4.8,5.1c0,0.1,0,0.6,0,0.8c1.2-0.4,3.8-3,5.1-4.7c0.2-0.2,0.4-0.3,0.6-0.1
			c1.1,0.7,3.4,1.8,6.5,1.3c0.2,0,0.4,0,0.5,0.2c1,1.5,2.4,2.9,2.9,3.3C21.8,14,21.8,13.7,21.8,13.5z"/>
		<path class="st49" d="M21.8,13.5c-0.1-0.5-1.8-2.4-2.9-3.7c-0.1-0.2-0.3-0.2-0.5-0.2c-3,0.5-5.5-0.7-6.6-1.4
			C11.5,8,11.2,8.1,11,8.3c-1.3,1.6-3.8,4.5-4.8,5.1c0,0.1,0,0.6,0,0.8c1.2-0.5,3.7-3,5.1-4.7c0.2-0.2,0.4-0.3,0.6-0.1
			c1.1,0.7,3.5,1.8,6.5,1.3c0.2,0,0.4,0,0.5,0.2c1,1.5,2.4,3,2.9,3.3C21.8,13.9,21.8,13.7,21.8,13.5z"/>
		<path class="st50" d="M21.8,13.5c-0.1-0.5-1.8-2.4-2.9-3.7c-0.1-0.2-0.3-0.2-0.5-0.2c-3,0.5-5.5-0.7-6.6-1.4
			C11.5,8,11.2,8.1,11,8.3c-1.3,1.6-3.8,4.5-4.8,5.1c0,0.1,0,0.6,0,0.8c1.2-0.5,3.7-2.9,5.1-4.7c0.2-0.2,0.4-0.3,0.6-0.1
			c1.1,0.7,3.5,1.8,6.5,1.3c0.2,0,0.4,0,0.5,0.2c1,1.5,2.4,3,2.9,3.3C21.8,13.9,21.8,13.7,21.8,13.5z"/>
		<path class="st51" d="M21.8,13.5c-0.1-0.5-1.8-2.4-2.9-3.7c-0.1-0.2-0.3-0.2-0.5-0.2c-3,0.5-5.5-0.7-6.6-1.4
			C11.5,8,11.2,8.1,11,8.3c-1.3,1.6-3.8,4.5-4.8,5.1c0,0.1,0,0.5,0,0.7c1.3-0.5,3.7-2.9,5.1-4.7c0.2-0.2,0.4-0.3,0.6-0.1
			c1.1,0.7,3.5,1.8,6.5,1.3c0.2,0,0.4,0,0.5,0.2c1,1.5,2.4,3,2.9,3.3C21.8,13.9,21.8,13.7,21.8,13.5z"/>
		<path class="st52" d="M21.8,13.5c-0.1-0.5-1.8-2.4-2.9-3.7c-0.1-0.2-0.3-0.2-0.5-0.2c-3,0.5-5.5-0.7-6.6-1.4
			C11.5,8,11.2,8.1,11,8.3c-1.3,1.6-3.8,4.5-4.8,5.1c0,0.1,0,0.5,0,0.7c1.3-0.6,3.6-2.9,5.1-4.8c0.2-0.2,0.4-0.3,0.6-0.1
			c1.1,0.7,3.5,1.8,6.5,1.3c0.2,0,0.4,0,0.5,0.2c1.1,1.5,2.4,3,2.9,3.4C21.8,13.9,21.8,13.7,21.8,13.5z"/>
		<path class="st53" d="M21.8,13.6c-0.1-0.5-1.8-2.4-2.9-3.7c-0.1-0.2-0.3-0.2-0.5-0.2c-3,0.5-5.5-0.7-6.6-1.4
			c-0.3-0.2-0.6-0.1-0.8,0.1c-1.3,1.6-3.8,4.5-4.8,5.1c0,0.1,0,0.5,0,0.7c1.3-0.6,3.6-2.8,5.1-4.8c0.2-0.2,0.4-0.3,0.6-0.1
			c1.1,0.7,3.5,1.8,6.5,1.3c0.2,0,0.4,0,0.5,0.2c1.1,1.6,2.4,3.1,2.9,3.4C21.8,13.8,21.8,13.7,21.8,13.6z"/>
		<path class="st54" d="M21.8,13.6c-0.1-0.5-1.8-2.4-2.9-3.7c-0.1-0.2-0.3-0.2-0.5-0.2c-3,0.5-5.5-0.7-6.6-1.4
			c-0.3-0.2-0.6-0.1-0.8,0.1c-1.3,1.6-3.8,4.5-4.8,5.1c0,0.1,0,0.5,0,0.7c1.4-0.6,3.6-2.8,5.1-4.8c0.2-0.2,0.4-0.3,0.6-0.1
			c1.1,0.7,3.5,1.8,6.5,1.3c0.2,0,0.4,0,0.5,0.2c1.1,1.6,2.4,3.1,2.9,3.4C21.8,13.8,21.8,13.7,21.8,13.6z"/>
		<path class="st55" d="M21.8,13.6c-0.1-0.5-1.8-2.4-2.9-3.7c-0.1-0.2-0.3-0.2-0.5-0.2c-3,0.5-5.5-0.7-6.6-1.4
			c-0.3-0.2-0.6-0.1-0.8,0.1c-1.3,1.6-3.8,4.5-4.8,5.1c0,0.1,0,0.5,0,0.6c1.4-0.7,3.5-2.8,5-4.8c0.2-0.2,0.4-0.3,0.6-0.1
			c1.1,0.7,3.5,1.8,6.5,1.3c0.2,0,0.4,0,0.5,0.2c1.1,1.6,2.4,3.1,2.9,3.4C21.8,13.8,21.8,13.7,21.8,13.6z"/>
		<path class="st56" d="M21.8,13.6c-0.1-0.5-1.8-2.4-2.9-3.8c-0.1-0.2-0.3-0.2-0.5-0.2c-3,0.5-5.5-0.7-6.6-1.4
			C11.5,8,11.2,8.1,11,8.3c-1.3,1.6-3.8,4.6-4.8,5.1c0,0.1,0,0.5,0,0.6c1.4-0.7,3.5-2.7,5-4.9c0.2-0.2,0.4-0.3,0.6-0.1
			c1.1,0.7,3.5,1.8,6.5,1.3c0.2,0,0.4,0,0.5,0.2c1.1,1.6,2.4,3.1,2.9,3.5C21.8,13.8,21.8,13.8,21.8,13.6z"/>
		<path class="st57" d="M21.8,13.6c-0.1-0.5-1.8-2.4-2.9-3.8c-0.1-0.2-0.3-0.2-0.5-0.2c-3,0.5-5.5-0.7-6.6-1.4
			C11.5,8,11.2,8.1,11,8.3c-1.3,1.6-3.8,4.6-4.8,5.1c0,0.1,0,0.5,0,0.6c1.4-0.7,3.5-2.7,5-4.9c0.2-0.2,0.4-0.3,0.6-0.1
			c1.1,0.7,3.5,1.8,6.5,1.3c0.2,0,0.4,0,0.5,0.2c1.1,1.7,2.4,3.1,2.9,3.5C21.8,13.8,21.8,13.8,21.8,13.6z"/>
		<path class="st58" d="M21.8,13.6c-0.1-0.5-1.8-2.4-2.9-3.8c-0.1-0.2-0.3-0.2-0.5-0.2c-3,0.5-5.5-0.7-6.6-1.4
			C11.5,8,11.2,8.1,11,8.3c-1.3,1.6-3.8,4.6-4.8,5.1c0,0.1,0,0.4,0,0.6c1.5-0.8,3.4-2.7,5-4.9c0.2-0.2,0.4-0.3,0.6-0.1
			c1.1,0.7,3.5,1.8,6.5,1.3c0.2,0,0.4,0,0.5,0.2c1.2,1.7,2.4,3.2,2.9,3.5C21.8,13.7,21.8,13.8,21.8,13.6z"/>
		<path class="st59" d="M21.8,13.6c-0.1-0.5-1.8-2.4-2.9-3.8c-0.1-0.2-0.3-0.2-0.5-0.2c-3,0.5-5.5-0.7-6.6-1.4
			C11.5,8,11.2,8.1,11,8.3c-1.3,1.6-3.8,4.6-4.8,5.1c0,0.1,0,0.4,0,0.6c1.5-0.8,3.4-2.6,5-4.9c0.2-0.2,0.4-0.3,0.6-0.1
			c1.1,0.7,3.5,1.8,6.6,1.3c0.2,0,0.4,0.1,0.5,0.2c1.2,1.7,2.4,3.2,2.9,3.5C21.8,13.7,21.8,13.8,21.8,13.6z"/>
		<path class="st60" d="M21.8,13.6c-0.1-0.5-1.8-2.4-2.9-3.8c-0.1-0.2-0.3-0.2-0.5-0.2c-3,0.5-5.5-0.7-6.6-1.4
			C11.5,8,11.2,8.1,11,8.3c-1.3,1.6-3.8,4.6-4.8,5.1c0,0.1,0,0.4,0,0.5c1.5-0.9,3.4-2.6,5-4.9c0.2-0.2,0.4-0.3,0.6-0.1
			c1.1,0.7,3.5,1.8,6.6,1.3c0.2,0,0.4,0.1,0.5,0.2c1.2,1.7,2.4,3.2,2.9,3.5C21.8,13.7,21.8,13.8,21.8,13.6z"/>
		<path class="st61" d="M21.8,13.6c-0.1-0.5-1.8-2.4-2.9-3.8c-0.1-0.2-0.3-0.2-0.5-0.2c-3,0.5-5.5-0.7-6.6-1.4
			C11.5,8,11.2,8.1,11,8.3c-1.3,1.6-3.8,4.6-4.8,5.1c0,0.1,0,0.4,0,0.5c1.5-0.9,3.4-2.6,5-5c0.2-0.2,0.4-0.3,0.6-0.1
			c1.1,0.7,3.6,1.8,6.6,1.3c0.2,0,0.4,0.1,0.5,0.2c1.2,1.7,2.5,3.2,2.9,3.6C21.8,13.7,21.8,13.8,21.8,13.6z"/>
		<path class="st62" d="M21.8,13.6c-0.1-0.5-1.8-2.4-2.9-3.8c-0.1-0.2-0.3-0.2-0.5-0.2c-3,0.5-5.5-0.7-6.6-1.4
			C11.5,8,11.2,8.1,11,8.3c-1.3,1.6-3.8,4.6-4.8,5.1c0,0.1,0,0.4,0,0.5c1.6-0.9,3.3-2.5,5-5c0.2-0.2,0.4-0.3,0.6-0.1
			c1.1,0.7,3.6,1.8,6.6,1.4c0.2,0,0.4,0.1,0.5,0.2c1.2,1.8,2.5,3.3,2.9,3.6C21.8,13.7,21.8,13.8,21.8,13.6z"/>
		<path class="st63" d="M21.8,13.6c-0.1-0.5-1.8-2.4-2.9-3.8c-0.1-0.2-0.3-0.2-0.5-0.2c-3,0.5-5.5-0.7-6.6-1.4
			C11.5,8,11.2,8.1,11,8.3c-1.3,1.6-3.8,4.6-4.8,5.1c0,0.1,0,0.4,0,0.5c1.6-1,3.3-2.5,5-5c0.2-0.2,0.4-0.3,0.6-0.1
			c1.1,0.7,3.6,1.8,6.6,1.4c0.2,0,0.4,0.1,0.5,0.2c1.2,1.8,2.5,3.3,2.9,3.6C21.8,13.6,21.8,13.8,21.8,13.6z"/>
	</g>
	<g>
		
			<radialGradient id="SVGID_82_" cx="18.8785" cy="58.4105" r="5.1383" gradientTransform="matrix(0 1 1.5492 0 -76.966 -9.104)" gradientUnits="userSpaceOnUse">
			<stop  offset="0" style="stop-color:#FFFFFF"/>
			<stop  offset="0.194" style="stop-color:#F5F0EA"/>
			<stop  offset="0.46" style="stop-color:#E9DFD4"/>
			<stop  offset="0.629" style="stop-color:#E5D9CC"/>
			<stop  offset="0.718" style="stop-color:#E2D5C7"/>
			<stop  offset="0.829" style="stop-color:#D9C9B7"/>
			<stop  offset="0.952" style="stop-color:#CAB69E"/>
			<stop  offset="0.972" style="stop-color:#C7B299"/>
		</radialGradient>
		<path class="st108" d="M21.8,11.8c-0.5-0.9-1.1-2.1-2.3-3.5c-0.1-0.2-0.3-0.2-0.6-0.2c-3,0.5-5.2-0.3-6.3-1
			c-0.3-0.3-0.9-0.6-0.8-2c0.2-0.8-1.2-0.9-1.6,0.1c0,0-0.5,0.9-0.4,2.1C9.9,7.5,9.4,8,9.4,8c-1.7,2.1-2.3,3-3.4,3.9
			c-0.7,0.7,0.3,3.8,0.3,3.8c0.1-1.3-0.5-2.2,0-2.5c0.8-0.5,3-2.6,4.7-4.6c0.1-0.3,0.5-0.3,0.8-0.1c1.1,0.7,3.6,1.8,6.6,1.4
			c0.2,0,0.5,0.1,0.7,0.2c1.1,1.3,1.5,2.2,2.3,3c0.6,0.6,0.5,1.9,0.6,2.4C22,15,22.3,12.6,21.8,11.8z"/>
		
			<radialGradient id="SVGID_83_" cx="18.803" cy="58.5187" r="5.089" gradientTransform="matrix(0 1 1.5497 0 -76.913 -8.969)" gradientUnits="userSpaceOnUse">
			<stop  offset="0" style="stop-color:#FCFAF9"/>
			<stop  offset="0.174" style="stop-color:#F3EDE7"/>
			<stop  offset="0.452" style="stop-color:#E7DDD1"/>
			<stop  offset="0.629" style="stop-color:#E3D7C9"/>
			<stop  offset="0.722" style="stop-color:#E0D3C4"/>
			<stop  offset="0.837" style="stop-color:#D7C7B4"/>
			<stop  offset="0.964" style="stop-color:#C8B49B"/>
			<stop  offset="0.972" style="stop-color:#C7B299"/>
		</radialGradient>
		<path class="st109" d="M21.8,11.9c-0.6-0.9-1.1-2.1-2.3-3.5c-0.1-0.2-0.3-0.2-0.6-0.2c-3,0.5-5.2-0.3-6.4-1
			c-0.3-0.3-0.9-0.6-0.8-2.1c0.2-0.8-1.1-0.8-1.5,0.1c0,0-0.5,1-0.4,2.2c0.1,0.2-0.4,0.7-0.4,0.7c-1.7,2.1-1.9,2.7-3,3.6
			c-0.7,0.7-0.2,4.1-0.2,4.2c0.1-1.3,0.3-3.1,0.8-3.4c0.9-0.6,2.1-1.8,3.8-3.9c0.3-0.3,0.7-0.3,1-0.1c1.1,0.7,3.6,1.8,6.6,1.4
			c0.2,0,0.5,0.1,0.7,0.2c1.1,1.4,1.5,2.2,2.3,3c0.6,0.6,0.5,1.9,0.6,2.4C22,15.1,22.3,12.7,21.8,11.9z"/>
		
			<radialGradient id="SVGID_84_" cx="18.6476" cy="58.3287" r="5.1189" gradientTransform="matrix(0 1 1.5502 0 -76.86 -8.834)" gradientUnits="userSpaceOnUse">
			<stop  offset="0" style="stop-color:#F8F5F2"/>
			<stop  offset="0.145" style="stop-color:#F1EBE4"/>
			<stop  offset="0.441" style="stop-color:#E5DACE"/>
			<stop  offset="0.629" style="stop-color:#E1D4C6"/>
			<stop  offset="0.725" style="stop-color:#DED0C1"/>
			<stop  offset="0.845" style="stop-color:#D5C4B1"/>
			<stop  offset="0.972" style="stop-color:#C7B299"/>
		</radialGradient>
		<path class="st110" d="M21.8,11.9c-0.6-0.9-1.2-2.1-2.3-3.5c-0.1-0.1-0.3-0.2-0.5-0.1c-3,0.5-5.2-0.3-6.4-1
			c-0.3-0.3-0.9-0.6-0.8-2.1c0.1-0.8-1.2-0.8-1.5,0c0,0-0.5,1-0.4,2.2C10,7.6,9.5,8,9.5,8.1C7.8,10.3,7,11.3,6,12.2
			c-0.7,0.7,0.2,3.5,0.2,3.6c0.1-1.2-0.5-2.1,0-2.5c1-0.7,3-2.6,4.7-4.7c0.2-0.2,0.6-0.3,0.8-0.1c1.1,0.7,3.6,1.8,6.7,1.4
			c0.2,0,0.5,0.1,0.7,0.2c1.1,1.4,1.5,2.2,2.3,3c0.6,0.6,0.5,1.9,0.6,2.4C22,15.1,22.3,12.7,21.8,11.9z"/>
		
			<radialGradient id="SVGID_85_" cx="18.54" cy="58.3121" r="5.1269" gradientTransform="matrix(0 1 1.5507 0 -76.808 -8.699)" gradientUnits="userSpaceOnUse">
			<stop  offset="0" style="stop-color:#F5F1EC"/>
			<stop  offset="0.129" style="stop-color:#EFE9E0"/>
			<stop  offset="0.434" style="stop-color:#E3D8CA"/>
			<stop  offset="0.629" style="stop-color:#DFD2C2"/>
			<stop  offset="0.731" style="stop-color:#DCCEBD"/>
			<stop  offset="0.857" style="stop-color:#D3C2AD"/>
			<stop  offset="0.972" style="stop-color:#C7B299"/>
		</radialGradient>
		<path class="st111" d="M21.8,12c-0.6-0.9-1.2-2.1-2.3-3.5c-0.1-0.2-0.3-0.2-0.6-0.2c-3,0.5-5.2-0.3-6.4-1
			c-0.3-0.3-0.9-0.6-0.8-2.1c0.1-0.8-1.1-0.8-1.5,0c0,0-0.5,1-0.3,2.2C10,7.6,9.6,8,9.5,8.1C7.9,10.3,7,11.4,6,12.2
			c-0.7,0.6,0.2,3.4,0.2,3.5c0.1-1.2-0.5-2.1,0-2.4c1.2-0.8,3-2.7,4.7-4.7c0.2-0.2,0.6-0.3,0.8-0.1c1.1,0.7,3.6,1.8,6.7,1.4
			c0.2,0,0.5,0.1,0.6,0.2c1.1,1.4,1.5,2.1,2.3,3.1c0.6,0.6,0.6,1.2,0.7,1.7C22.1,14.4,22.3,12.8,21.8,12z"/>
		
			<radialGradient id="SVGID_86_" cx="18.4223" cy="58.248" r="5.1195" gradientTransform="matrix(0 1 1.5511 0 -76.75 -8.564)" gradientUnits="userSpaceOnUse">
			<stop  offset="0" style="stop-color:#F1ECE6"/>
			<stop  offset="0.102" style="stop-color:#EDE6DD"/>
			<stop  offset="0.424" style="stop-color:#E2D5C7"/>
			<stop  offset="0.629" style="stop-color:#DECFBF"/>
			<stop  offset="0.735" style="stop-color:#DBCBBA"/>
			<stop  offset="0.868" style="stop-color:#D1BFAA"/>
			<stop  offset="0.972" style="stop-color:#C7B299"/>
		</radialGradient>
		<path class="st112" d="M21.7,12.1c-0.6-0.9-1.2-2-2.3-3.5c-0.1-0.2-0.3-0.2-0.6-0.2c-3,0.5-5.3-0.3-6.4-1
			c-0.3-0.3-0.9-0.6-0.8-2.2c0.1-0.7-1.1-0.7-1.4,0c0,0-0.5,1-0.3,2.2C10,7.6,9.6,8,9.6,8C7.9,10.4,7,11.4,6,12.3
			c-0.7,0.6,0.2,3.3,0.2,3.5c0.1-1.2-0.5-2.1,0-2.4c1.3-0.9,3-2.7,4.7-4.7c0.2-0.2,0.6-0.3,0.8-0.1c1.1,0.7,3.6,1.8,6.7,1.4
			c0.2,0,0.5,0.1,0.6,0.2c1.1,1.4,1.4,2.1,2.3,3.1c0.6,0.6,0.6,1.4,0.7,1.9C22.1,14.4,22.2,12.8,21.7,12.1z"/>
		
			<radialGradient id="SVGID_87_" cx="18.3118" cy="58.222" r="5.1282" gradientTransform="matrix(0 1 1.5516 0 -76.697 -8.43)" gradientUnits="userSpaceOnUse">
			<stop  offset="0" style="stop-color:#EEE7DF"/>
			<stop  offset="5.900000e-02" style="stop-color:#ECE4DA"/>
			<stop  offset="0.407" style="stop-color:#E0D3C4"/>
			<stop  offset="0.629" style="stop-color:#DCCDBC"/>
			<stop  offset="0.741" style="stop-color:#D9C9B7"/>
			<stop  offset="0.88" style="stop-color:#D0BDA7"/>
			<stop  offset="0.972" style="stop-color:#C7B299"/>
		</radialGradient>
		<path class="st113" d="M21.7,12.2c-0.6-0.9-1.2-2-2.3-3.5c-0.1-0.2-0.3-0.2-0.6-0.2c-3,0.5-5.3-0.4-6.5-1.1
			c-0.3-0.3-0.9-0.6-0.8-2.2c0.1-0.7-1-0.7-1.3,0c0,0-0.5,1-0.3,2.2C10,7.6,9.6,8,9.6,8C8,10.4,7,11.5,6,12.4
			c-0.7,0.6,0.2,3.2,0.2,3.4c0.1-1.1-0.5-2,0-2.4c1.5-1.1,3-2.7,4.7-4.8c0.2-0.2,0.6-0.3,0.8-0.1c1.1,0.7,3.6,1.8,6.7,1.4
			c0.2,0,0.5,0.1,0.6,0.2c1.1,1.4,1.4,2.1,2.3,3.1c0.6,0.6,0.7,1.2,0.7,1.7C22.1,14.3,22.2,12.9,21.7,12.2z"/>
		
			<radialGradient id="SVGID_88_" cx="18.2037" cy="58.0934" r="5.071" gradientTransform="matrix(0 1 1.5521 0 -76.645 -8.295)" gradientUnits="userSpaceOnUse">
			<stop  offset="0" style="stop-color:#EAE2D9"/>
			<stop  offset="2.100000e-02" style="stop-color:#E9E1D7"/>
			<stop  offset="0.392" style="stop-color:#DED0C1"/>
			<stop  offset="0.629" style="stop-color:#DACAB9"/>
			<stop  offset="0.747" style="stop-color:#D7C6B4"/>
			<stop  offset="0.893" style="stop-color:#CEBAA4"/>
			<stop  offset="0.972" style="stop-color:#C7B299"/>
		</radialGradient>
		<path class="st114" d="M21.7,12.2c-0.6-0.9-1.2-2-2.3-3.4c-0.1-0.2-0.3-0.2-0.6-0.2c-3,0.5-5.3-0.4-6.5-1.1
			c-0.3-0.3-0.9-0.7-0.7-2.3c0.1-0.7-0.9-0.7-1.2,0c0,0-0.5,1-0.2,2.2C10.3,7.6,9.9,7.9,9.9,8c-1.8,2.4-2.9,3.6-3.8,4.4
			c-0.7,0.6,0.2,3.1,0.2,3.3c0.1-1.1-0.5-2,0-2.3c1.6-1.2,3-2.7,4.7-4.8c0.2-0.2,0.6-0.3,0.8-0.1c1.1,0.7,3.6,1.8,6.7,1.4
			c0.2,0,0.5,0.1,0.6,0.2c1,1.4,1.4,2.1,2.4,3.1c0.6,0.6,0.5,1.8,0.5,2.3C21.9,14.9,22.2,13,21.7,12.2z"/>
		
			<radialGradient id="SVGID_89_" cx="18.0842" cy="58.101" r="5.0764" gradientTransform="matrix(0 1 1.5526 0 -76.591 -8.16)" gradientUnits="userSpaceOnUse">
			<stop  offset="0" style="stop-color:#E7DDD2"/>
			<stop  offset="0.368" style="stop-color:#DCCEBE"/>
			<stop  offset="0.629" style="stop-color:#D8C8B6"/>
			<stop  offset="0.754" style="stop-color:#D5C4B1"/>
			<stop  offset="0.909" style="stop-color:#CCB8A1"/>
			<stop  offset="0.972" style="stop-color:#C7B299"/>
		</radialGradient>
		<path class="st115" d="M21.7,12.3c-0.6-0.9-1.2-2-2.3-3.4c-0.1-0.2-0.3-0.2-0.6-0.2c-3,0.5-5.3-0.4-6.5-1.1
			c-0.3-0.3-0.9-0.7-0.7-2.3c0.1-0.7-0.9-0.6-1.1,0c0,0-0.4,1.1-0.2,2.2C10.3,7.7,10,8,10,8.1c-1.8,2.5-3,3.7-3.9,4.5
			c-0.7,0.6,0.2,3,0.1,3.2c0.1-1-0.4-2,0-2.3c1.7-1.3,3-2.8,4.7-4.8c0.2-0.2,0.6-0.3,0.8-0.1c1.1,0.7,3.6,1.8,6.7,1.4
			c0.2,0,0.5,0.1,0.6,0.2c1,1.4,1.4,2.1,2.4,3.2C22,14,22,14.8,22,15.3C22,14.5,22.1,13,21.7,12.3z"/>
		
			<radialGradient id="SVGID_90_" cx="17.9738" cy="58.0155" r="5.0484" gradientTransform="matrix(0 1 1.553 0 -76.534 -8.027)" gradientUnits="userSpaceOnUse">
			<stop  offset="0" style="stop-color:#E3D9CC"/>
			<stop  offset="0.346" style="stop-color:#DACCBB"/>
			<stop  offset="0.629" style="stop-color:#D6C6B3"/>
			<stop  offset="0.762" style="stop-color:#D3C2AE"/>
			<stop  offset="0.928" style="stop-color:#CAB69E"/>
			<stop  offset="0.972" style="stop-color:#C7B299"/>
		</radialGradient>
		<path class="st116" d="M21.7,12.4c-0.6-0.9-1.3-2-2.3-3.4c-0.1-0.2-0.3-0.2-0.6-0.2c-3,0.5-5.4-0.4-6.5-1.1
			C12,7.4,11.4,7,11.6,5.4c0.1-0.7-0.8-0.6-1,0c0,0-0.4,1.1-0.2,2.2c0.1,0.2-0.2,0.5-0.2,0.5c-1.9,2.5-3.1,3.8-4,4.5
			c-0.7,0.6,0.1,2.8,0.1,3.1c0.1-1-0.4-2,0-2.3c1.9-1.4,3-2.8,4.7-4.9c0.2-0.2,0.6-0.3,0.8-0.1c1.1,0.7,3.6,1.8,6.7,1.4
			c0.2,0,0.5,0,0.6,0.2c1,1.4,1.4,2,2.4,3.2c0.6,0.6,0.5,1.2,0.5,1.7C21.9,14.3,22.1,13.1,21.7,12.4z"/>
		
			<radialGradient id="SVGID_91_" cx="17.8536" cy="57.9885" r="5.0718" gradientTransform="matrix(0 1 1.5535 0 -76.48 -7.893)" gradientUnits="userSpaceOnUse">
			<stop  offset="0" style="stop-color:#E0D4C6"/>
			<stop  offset="0.329" style="stop-color:#D8C9B7"/>
			<stop  offset="0.629" style="stop-color:#D4C3AF"/>
			<stop  offset="0.776" style="stop-color:#D1BFAA"/>
			<stop  offset="0.96" style="stop-color:#C8B39A"/>
			<stop  offset="0.972" style="stop-color:#C7B299"/>
		</radialGradient>
		<path class="st117" d="M21.6,12.5c-0.6-0.9-1.3-2-2.3-3.4c-0.1-0.2-0.3-0.2-0.6-0.2c-3,0.5-5.4-0.4-6.5-1.1
			c-0.3-0.3-0.9-0.7-0.7-2.4c0.1-0.6-0.7-0.5-0.9,0c0,0-0.4,1.1-0.2,2.3c0.1,0.2-0.2,0.5-0.2,0.5C8.3,10.8,7,12,6.1,12.8
			c-0.7,0.6,0.1,2.7,0.1,3.1c0.1-0.9-0.4-1.9,0-2.2c2-1.5,3-2.8,4.7-4.9c0.2-0.2,0.6-0.3,0.8-0.1c1.1,0.7,3.6,1.8,6.7,1.4
			c0.2,0,0.5,0,0.6,0.2c1,1.4,1.4,2,2.4,3.2c0.6,0.7,0.5,1.5,0.6,2C22,14.5,22.1,13.2,21.6,12.5z"/>
		
			<radialGradient id="SVGID_92_" cx="17.75" cy="57.9355" r="5.0571" gradientTransform="matrix(0 1 1.554 0 -76.428 -7.758)" gradientUnits="userSpaceOnUse">
			<stop  offset="0" style="stop-color:#DCCFBF"/>
			<stop  offset="0.285" style="stop-color:#D6C7B4"/>
			<stop  offset="0.629" style="stop-color:#D2C1AC"/>
			<stop  offset="0.79" style="stop-color:#CFBDA7"/>
			<stop  offset="0.972" style="stop-color:#C7B299"/>
		</radialGradient>
		<path class="st118" d="M21.6,12.5c-0.6-1-1.3-1.9-2.3-3.4c-0.1-0.2-0.3-0.2-0.6-0.2c-3,0.5-5.4-0.5-6.6-1.2
			c-0.3-0.3-0.9-0.7-0.7-2.4c0.1-0.6-0.7-0.5-0.8,0c0,0-0.4,1.1-0.1,2.3c0.1,0.2-0.2,0.4-0.2,0.5C8.4,10.7,7,12,6.1,12.8
			c-0.7,0.6,0.1,2.6,0.1,3c0.1-0.9-0.4-1.9,0-2.2c2.2-1.6,3-2.9,4.7-4.9c0.2-0.2,0.6-0.3,0.8-0.1c1.1,0.7,3.6,1.8,6.7,1.4
			c0.2,0,0.5,0,0.6,0.2c1,1.4,1.4,2,2.4,3.2c0.5,0.7,0.5,1.6,0.6,2.1C22,14.7,22.1,13.2,21.6,12.5z"/>
		
			<radialGradient id="SVGID_93_" cx="17.6386" cy="57.8791" r="5.0489" gradientTransform="matrix(0 1 1.5545 0 -76.375 -7.625)" gradientUnits="userSpaceOnUse">
			<stop  offset="0" style="stop-color:#D9CAB9"/>
			<stop  offset="0.24" style="stop-color:#D5C4B1"/>
			<stop  offset="0.629" style="stop-color:#D0BEA9"/>
			<stop  offset="0.807" style="stop-color:#CDBAA4"/>
			<stop  offset="0.972" style="stop-color:#C7B299"/>
		</radialGradient>
		<path class="st119" d="M21.6,12.6c-0.6-1-1.3-1.9-2.3-3.4C19.2,9,19,9,18.7,9c-3,0.5-5.4-0.5-6.6-1.2c-0.3-0.3-0.9-0.7-0.7-2.5
			c0-0.6-0.6-0.4-0.8,0c0,0-0.4,1.1-0.1,2.3c0.1,0.2-0.1,0.4-0.2,0.5c-1.9,2.7-3.4,4-4.2,4.8c-0.7,0.6,0.1,2.5,0.1,2.9
			c0.1-0.8-0.4-1.9,0-2.2c2.3-1.8,3-2.9,4.7-5c0.2-0.2,0.5-0.3,0.8-0.1c1.1,0.7,3.6,1.8,6.7,1.4c0.2,0,0.5,0,0.6,0.2
			c1,1.4,1.4,2,2.4,3.3c0.5,0.7,0.5,1.6,0.6,2.1C22,14.7,22,13.3,21.6,12.6z"/>
		
			<radialGradient id="SVGID_94_" cx="17.4705" cy="57.7874" r="5.001" gradientTransform="matrix(0 1 1.5549 0 -76.295 -7.476)" gradientUnits="userSpaceOnUse">
			<stop  offset="0" style="stop-color:#D5C5B3"/>
			<stop  offset="0.178" style="stop-color:#D3C2AE"/>
			<stop  offset="0.629" style="stop-color:#CFBCA6"/>
			<stop  offset="0.831" style="stop-color:#CCB8A1"/>
			<stop  offset="0.972" style="stop-color:#C7B299"/>
		</radialGradient>
		<path class="st120" d="M21.6,12.7c-0.6-1-1.3-1.9-2.3-3.4c-0.1-0.2-0.3-0.2-0.6-0.2c-3,0.5-5.5-0.5-6.6-1.2
			c-0.3-0.3-0.9-0.7-0.7-2.5c0-0.6-0.5-0.4-0.7,0c0,0-0.4,1.1-0.1,2.3c0.1,0.2-0.1,0.4-0.1,0.4c-2,2.8-3.5,4.1-4.3,4.8
			c-0.7,0.6,0.1,2.4,0.1,2.8c0.1-0.8-0.4-1.8,0-2.1c2.4-1.9,3-2.9,4.7-5c0.2-0.2,0.5-0.3,0.8-0.1c1.1,0.7,3.6,1.8,6.7,1.4
			c0.2,0,0.5,0,0.6,0.2c1,1.4,1.3,2,2.4,3.3c0.5,0.7,0.4,1.6,0.5,2.1C21.9,14.6,22,13.4,21.6,12.7z"/>
		
			<radialGradient id="SVGID_95_" cx="17.5978" cy="57.7733" r="5.1595" gradientTransform="matrix(0 1 1.5554 0 -76.205 -7.318)" gradientUnits="userSpaceOnUse">
			<stop  offset="0" style="stop-color:#D2C0AC"/>
			<stop  offset="4.200000e-02" style="stop-color:#D2BFAB"/>
			<stop  offset="0.629" style="stop-color:#CDB9A3"/>
			<stop  offset="0.865" style="stop-color:#CAB59E"/>
			<stop  offset="0.972" style="stop-color:#C7B299"/>
		</radialGradient>
		<path class="st121" d="M21.5,12.8c-0.6-1-1.4-1.9-2.3-3.4c-0.1-0.2-0.3-0.2-0.6-0.2c-3,0.5-5.5-0.5-6.6-1.2
			c-0.3-0.3-0.9-0.7-0.7-2.5c0-0.5-0.5-0.4-0.6,0c0,0-0.3,1.1,0,2.3c0.1,0.2-0.1,0.4-0.1,0.4c-2,2.8-3.6,4.2-4.4,4.9
			c-0.7,0.6,0.1,2.9,0,3.4c0.2-0.8,0-2.2,0.4-2.5c2.6-2,2.5-3.2,4.2-5.2c0.2-0.2,0.5-0.3,0.8-0.1c1.1,0.7,3.6,1.8,6.7,1.4
			c0.2,0,0.5,0,0.6,0.2c0.9,1.4,1.3,1.9,2.4,3.3c0.5,0.7,0.5,0.8,0.6,1.3C22,13.8,22,13.4,21.5,12.8z"/>
		
			<radialGradient id="SVGID_96_" cx="17.3111" cy="57.7262" r="5.0633" gradientTransform="matrix(0 1 1.5559 0 -76.115 -7.16)" gradientUnits="userSpaceOnUse">
			<stop  offset="0" style="stop-color:#CEBCA6"/>
			<stop  offset="0.629" style="stop-color:#CBB79F"/>
			<stop  offset="0.95" style="stop-color:#C7B39A"/>
			<stop  offset="0.972" style="stop-color:#C7B299"/>
		</radialGradient>
		<path class="st122" d="M21.5,12.8c-0.6-1-1.4-1.9-2.3-3.4c-0.1-0.2-0.3-0.2-0.6-0.2c-3,0.5-5.5-0.5-6.7-1.2
			c-0.3-0.3-0.8-0.7-0.7-2.6c0-0.5-0.4-0.3-0.5,0c0,0-0.3,1.2,0,2.3c0.1,0.2-0.1,0.4-0.1,0.4c-2,2.9-3.7,4.3-4.5,5
			c-0.7,0.6,0.1,2.3,0.1,2.8c0.2-0.7-0.4-1.9-0.1-2.2c2.7-2.1,3-3,4.7-5.1c0.2-0.2,0.5-0.3,0.8-0.1c1.1,0.7,3.6,1.8,6.7,1.4
			c0.2,0,0.5,0,0.6,0.2c0.9,1.4,1.3,1.9,2.4,3.3c0.5,0.7,0.6,1.6,0.7,2.1C22.1,14.6,21.9,13.5,21.5,12.8z"/>
		
			<radialGradient id="SVGID_97_" cx="17.1536" cy="57.6901" r="4.9731" gradientTransform="matrix(0 1 1.5563 0 -76.02 -7.003)" gradientUnits="userSpaceOnUse">
			<stop  offset="0" style="stop-color:#CBB79F"/>
			<stop  offset="0.629" style="stop-color:#C9B49C"/>
			<stop  offset="0.972" style="stop-color:#C7B299"/>
		</radialGradient>
		<path class="st123" d="M21.5,12.9c-0.7-1-1.4-1.8-2.4-3.4c-0.1-0.2-0.3-0.2-0.5-0.2c-3,0.5-5.5-0.6-6.7-1.3
			c-0.3-0.2-0.9-0.7-0.7-2.6c0-0.5-0.3-0.3-0.4,0c0,0-0.3,1.2,0,2.3c0.1,0.2,0,0.3-0.1,0.4c-2,2.9-3,3.5-3.7,4.2
			c-0.7,0.6-0.8,3.3-0.8,3.8c0.2-0.7,0.2-2.4,0.5-2.7c2.8-2.2,2.5-2.6,4.2-4.7c0.2-0.2,0.5-0.3,0.8-0.1c1.1,0.7,3.6,1.8,6.7,1.4
			c0.2,0,0.5,0,0.6,0.2c0.9,1.4,1.3,1.9,2.5,3.4c0.5,0.7,0.4,0.8,0.5,1.3C21.9,13.8,21.9,13.6,21.5,12.9z"/>
		<path class="st23" d="M21.5,13c-0.7-1-1.4-1.8-2.4-3.4c-0.1-0.2-0.3-0.2-0.6-0.2c-3,0.5-5.6-0.6-6.7-1.3c-0.3-0.3-0.8-0.8-0.7-2.7
			c0-0.5-0.3-0.2-0.3,0c0,0-0.3,1.2,0,2.3c0.1,0.2,0,0.3,0,0.3c-2.1,3-3.9,4.5-4.6,5.1c-0.7,0.6-0.1,1.3-0.1,1.9
			c0.2-0.6-0.2-1.1,0.1-1.4c3-2.3,3-3.1,4.7-5.1c0.2-0.2,0.5-0.3,0.8-0.1c1.1,0.7,3.6,1.8,6.7,1.4c0.2,0,0.4,0,0.6,0.2
			c0.9,1.4,1.3,1.9,2.5,3.4c0.5,0.7,0.4,1.6,0.5,2.1C21.9,14.6,21.9,13.6,21.5,13z"/>
	</g>
</g>
</svg>
