<svg xmlns="http://www.w3.org/2000/svg" xmlns:xlink="http://www.w3.org/1999/xlink" viewBox="0 0 48 48" width="48px" height="48px"><defs><radialGradient id="xMp8n7sS6yS4y4lMrhw_vf" cx="18.073" cy="45.127" r="3.188" gradientTransform="matrix(1 0 0 .65 0 15.794)" gradientUnits="userSpaceOnUse"><stop offset=".002" stop-color="#f5432c"/><stop offset="1" stop-color="#cf3925"/></radialGradient><radialGradient id="xMp8n7sS6yS4y4lMrhw_vi" cx="175.948" cy="-57.002" r=".578" gradientTransform="matrix(.53959 -1.29157 .84193 .82776 -30.201 278.914)" gradientUnits="userSpaceOnUse"><stop offset="0" stop-color="#ffd226"/><stop offset=".325" stop-color="#fdcd23"/><stop offset=".73" stop-color="#f6bd1b"/><stop offset=".999" stop-color="#f0af13"/></radialGradient><radialGradient id="xMp8n7sS6yS4y4lMrhw_vk" cx="17.745" cy="7.05" r="4.719" gradientTransform="matrix(-.66626 -.74572 .33325 -.29774 27.218 22.382)" gradientUnits="userSpaceOnUse"><stop offset="0" stop-color="#ffe16e"/><stop offset=".393" stop-color="#ffd226"/><stop offset=".59" stop-color="#fdcd23"/><stop offset=".836" stop-color="#f6bd1b"/><stop offset=".999" stop-color="#f0af13"/></radialGradient><radialGradient id="xMp8n7sS6yS4y4lMrhw_vl" cx="16.045" cy="3.769" r="1.186" gradientTransform="matrix(.89433 -.4474 .28068 .56107 .637 8.833)" gradientUnits="userSpaceOnUse"><stop offset=".342" stop-color="#ffd226"/><stop offset=".556" stop-color="#fdcd23"/><stop offset=".822" stop-color="#f6bd1b"/><stop offset=".999" stop-color="#f0af13"/></radialGradient><radialGradient id="xMp8n7sS6yS4y4lMrhw_vd" cx="26.623" cy="5.101" r="9.261" gradientTransform="rotate(-102.351 26.623 5.1)" gradientUnits="userSpaceOnUse"><stop offset=".002" stop-color="#57636e"/><stop offset="1" stop-color="#384048"/></radialGradient><radialGradient id="xMp8n7sS6yS4y4lMrhw_va" cx="14.923" cy="2.539" r="2.209" gradientTransform="rotate(-102.351 14.923 2.54)" gradientUnits="userSpaceOnUse"><stop offset=".002" stop-color="#384047"/><stop offset="1" stop-color="#1a1e21"/></radialGradient><radialGradient id="xMp8n7sS6yS4y4lMrhw_vm" cx="40.967" cy="9.662" r="1.922" xlink:href="#xMp8n7sS6yS4y4lMrhw_va"/><radialGradient id="xMp8n7sS6yS4y4lMrhw_vn" cx="220.298" cy="101.21" r="1.939" gradientTransform="matrix(.42381 1.03523 -.90575 .4844 22.708 -270.04)" gradientUnits="userSpaceOnUse"><stop offset=".004" stop-color="#ffd226"/><stop offset=".327" stop-color="#fdcd23"/><stop offset=".731" stop-color="#f6bd1b"/><stop offset=".999" stop-color="#f0af13"/></radialGradient><radialGradient id="xMp8n7sS6yS4y4lMrhw_vb" cx="-483.182" cy="435.812" r=".535" gradientTransform="matrix(.76755 .54113 -1.27325 1.79948 955.38 -515.332)" gradientUnits="userSpaceOnUse"><stop offset="0" stop-color="#ffe16e"/><stop offset=".461" stop-color="#ffd226"/><stop offset=".741" stop-color="#f8c21d"/><stop offset=".999" stop-color="#f0af13"/></radialGradient><radialGradient id="xMp8n7sS6yS4y4lMrhw_vo" cx="-177.285" cy="435.807" r=".535" gradientTransform="matrix(-.90789 -.22097 -.52167 2.14135 89.761 -967.79)" xlink:href="#xMp8n7sS6yS4y4lMrhw_vb"/><radialGradient id="xMp8n7sS6yS4y4lMrhw_vg" cx="-430.03" cy="667.661" r="3.93" gradientTransform="rotate(24.373 1331.342 1394.052)" gradientUnits="userSpaceOnUse"><stop offset="0" stop-color="#ffe16e"/><stop offset=".629" stop-color="#ffd226"/><stop offset=".75" stop-color="#fdcd23"/><stop offset=".899" stop-color="#f6bd1b"/><stop offset=".999" stop-color="#f0af13"/></radialGradient><radialGradient id="xMp8n7sS6yS4y4lMrhw_vp" cx="-429.997" cy="669.91" r="3.181" gradientTransform="rotate(24.373 1331.342 1394.052)" gradientUnits="userSpaceOnUse"><stop offset="0" stop-color="#8c6239"/><stop offset=".043" stop-color="#895f36"/><stop offset=".385" stop-color="#724923"/><stop offset=".711" stop-color="#653c17"/><stop offset="1" stop-color="#603813"/></radialGradient><radialGradient id="xMp8n7sS6yS4y4lMrhw_vS" cx="17.276" cy="10.405" r="4.723" gradientTransform="matrix(1 0 0 .65726 0 3.566)" xlink:href="#xMp8n7sS6yS4y4lMrhw_vf"/><radialGradient id="xMp8n7sS6yS4y4lMrhw_vr" cx="26.829" cy="5.358" r="2.033" gradientTransform="matrix(.92427 .38175 -.253 .61255 3.388 -8.166)" gradientUnits="userSpaceOnUse"><stop offset="0" stop-color="#73512f" stop-opacity="0"/><stop offset=".264" stop-color="#604021" stop-opacity=".426"/><stop offset=".528" stop-color="#523416" stop-opacity=".744"/><stop offset=".778" stop-color="#4a2d10" stop-opacity=".935"/><stop offset="1" stop-color="#472a0e"/></radialGradient><radialGradient id="xMp8n7sS6yS4y4lMrhw_vc" cx="26.087" cy="2.119" r="2.654" gradientUnits="userSpaceOnUse"><stop offset=".002" stop-color="#204c75"/><stop offset="1" stop-color="#14324f"/></radialGradient><radialGradient id="xMp8n7sS6yS4y4lMrhw_vR" cx="14.581" cy="1.308" r=".695" gradientTransform="matrix(.04772 -.99886 .62641 .02993 13.192 15.814)" xlink:href="#xMp8n7sS6yS4y4lMrhw_vg"/><radialGradient id="xMp8n7sS6yS4y4lMrhw_vs" cx="-463.851" cy="514.038" r=".318" gradientTransform="matrix(.37264 .92798 -.66188 .26578 541.702 295.262)" xlink:href="#xMp8n7sS6yS4y4lMrhw_vc"/><radialGradient id="xMp8n7sS6yS4y4lMrhw_vM" cx="12.43" cy="1.478" r="4.612" gradientTransform="matrix(.99418 .10772 -.08619 .79546 .2 -1.037)" gradientUnits="userSpaceOnUse"><stop offset=".062" stop-color="#f2f2f2"/><stop offset=".744" stop-color="#ccc"/><stop offset=".997" stop-color="#b3b3b3"/></radialGradient><radialGradient id="xMp8n7sS6yS4y4lMrhw_vL" cx="12.458" cy="7.127" r="3.954" gradientTransform="rotate(-90.481 14.407 5.162) scale(1 .44847)" xlink:href="#xMp8n7sS6yS4y4lMrhw_vg"/><radialGradient id="xMp8n7sS6yS4y4lMrhw_vv" cx="41.535" cy="10.14" r="1.922" gradientTransform="rotate(71.868 39.56 8.708) scale(1 .71755)" xlink:href="#xMp8n7sS6yS4y4lMrhw_va"/><radialGradient id="xMp8n7sS6yS4y4lMrhw_vK" cx="18.237" cy="11.212" r="4.529" gradientTransform="matrix(.99265 .12103 -.05343 .4382 .733 4.091)" xlink:href="#xMp8n7sS6yS4y4lMrhw_vg"/><radialGradient id="xMp8n7sS6yS4y4lMrhw_vx" cx="24.652" cy="37.603" r="6.746" gradientTransform="rotate(-133.393 29.043 27.408) scale(1 .45774)" xlink:href="#xMp8n7sS6yS4y4lMrhw_vc"/><radialGradient id="xMp8n7sS6yS4y4lMrhw_vJ" cx="28.793" cy="41.859" r="4.992" gradientTransform="rotate(-88.44 37.841 33.054) scale(1 .57931)" xlink:href="#xMp8n7sS6yS4y4lMrhw_vd"/><radialGradient id="xMp8n7sS6yS4y4lMrhw_vj" cx="17.718" cy="7.255" r="2.858" gradientTransform="rotate(-125.348 18.153 6.415) scale(1 .76824)" gradientUnits="userSpaceOnUse"><stop offset="0" stop-color="#ffe16e"/><stop offset=".363" stop-color="#ffd226"/><stop offset=".57" stop-color="#fdcd23"/><stop offset=".828" stop-color="#f6bd1b"/><stop offset=".999" stop-color="#f0af13"/></radialGradient><radialGradient id="xMp8n7sS6yS4y4lMrhw_vz" cx="25.194" cy="25.406" r="4.609" xlink:href="#xMp8n7sS6yS4y4lMrhw_vc"/><radialGradient id="xMp8n7sS6yS4y4lMrhw_vA" cx="16.992" cy="36.263" r="9.787" gradientTransform="matrix(-.15185 -.9884 .2337 -.0359 11.098 54.36)" xlink:href="#xMp8n7sS6yS4y4lMrhw_vc"/><radialGradient id="xMp8n7sS6yS4y4lMrhw_vI" cx="103.289" cy="-150.974" r=".747" gradientTransform="matrix(.87198 -.40081 .48955 .71393 .775 152.028)" xlink:href="#xMp8n7sS6yS4y4lMrhw_vg"/><radialGradient id="xMp8n7sS6yS4y4lMrhw_vC" cx="27.946" cy="42.766" r="4.141" gradientTransform="rotate(-87.959 39.742 31.383) scale(1 .46766)" xlink:href="#xMp8n7sS6yS4y4lMrhw_vf"/><radialGradient id="xMp8n7sS6yS4y4lMrhw_vD" cx="23.941" cy="9.448" r="2.63" gradientTransform="matrix(1 0 0 .63636 0 3.436)" xlink:href="#xMp8n7sS6yS4y4lMrhw_vf"/><radialGradient id="xMp8n7sS6yS4y4lMrhw_vE" cx="23.134" cy="15.755" r="9.157" xlink:href="#xMp8n7sS6yS4y4lMrhw_vf"/><radialGradient id="xMp8n7sS6yS4y4lMrhw_vF" cx="22.454" cy="16.632" r="10.419" gradientTransform="matrix(.32412 -.94602 .54277 .18596 6.149 34.78)" gradientUnits="userSpaceOnUse"><stop offset=".467" stop-color="#1d1d1b" stop-opacity="0"/><stop offset=".683" stop-color="#241d1b" stop-opacity=".019"/><stop offset=".816" stop-color="#3a1d1c" stop-opacity=".083"/><stop offset=".927" stop-color="#5f1e1d" stop-opacity=".192"/><stop offset="1" stop-color="#851e1e" stop-opacity=".3"/></radialGradient><radialGradient id="xMp8n7sS6yS4y4lMrhw_vG" cx="15.533" cy="2.648" r=".739" gradientTransform="matrix(-.00347 -.99999 .70426 -.00245 13.72 18.194)" xlink:href="#xMp8n7sS6yS4y4lMrhw_vg"/><radialGradient id="xMp8n7sS6yS4y4lMrhw_vH" cx="16.275" cy="2.854" r=".699" gradientTransform="matrix(-.00304 -1 .67593 -.00206 14.398 19.139)" xlink:href="#xMp8n7sS6yS4y4lMrhw_vg"/><linearGradient id="xMp8n7sS6yS4y4lMrhw_vN" x1="11.665" x2="12.297" y1="1.696" y2="1.856" xlink:href="#xMp8n7sS6yS4y4lMrhw_vh"/><linearGradient id="xMp8n7sS6yS4y4lMrhw_vB" x1="27.712" x2="17.61" y1="25.615" y2="25.286" xlink:href="#xMp8n7sS6yS4y4lMrhw_ve"/><linearGradient id="xMp8n7sS6yS4y4lMrhw_vw" x1="41.798" x2="41.798" y1="11.615" y2="8.952" xlink:href="#xMp8n7sS6yS4y4lMrhw_va"/><linearGradient id="xMp8n7sS6yS4y4lMrhw_vu" x1="14.998" x2="14.804" y1="2.069" y2="2.934" gradientTransform="rotate(-102.352 14.893 2.54)" xlink:href="#xMp8n7sS6yS4y4lMrhw_va"/><linearGradient id="xMp8n7sS6yS4y4lMrhw_vt" x1="26.625" x2="26.56" y1="4.947" y2="5.256" gradientTransform="rotate(-102.351 26.593 5.1)" xlink:href="#xMp8n7sS6yS4y4lMrhw_vd"/><linearGradient id="xMp8n7sS6yS4y4lMrhw_vh" x1="13.969" x2="12.007" y1="5.229" y2="5.139" gradientUnits="userSpaceOnUse"><stop offset="0" stop-color="#666" stop-opacity=".3"/><stop offset=".217" stop-color="#545454" stop-opacity=".228"/><stop offset="1" stop-color="#1d1d1b" stop-opacity="0"/></linearGradient><linearGradient id="xMp8n7sS6yS4y4lMrhw_vy" x1="29.381" x2="26.467" y1="40.854" y2="40.854" gradientUnits="userSpaceOnUse"><stop offset=".002" stop-color="#1a3d5e"/><stop offset="1" stop-color="#0e2438"/></linearGradient><linearGradient id="xMp8n7sS6yS4y4lMrhw_vO" x1="12.882" x2="13.376" y1="1.937" y2="2.111" xlink:href="#xMp8n7sS6yS4y4lMrhw_vh"/><linearGradient id="xMp8n7sS6yS4y4lMrhw_vP" x1="13.584" x2="14.157" y1="2.032" y2="2.271" xlink:href="#xMp8n7sS6yS4y4lMrhw_vh"/><linearGradient id="xMp8n7sS6yS4y4lMrhw_vQ" x1="14.306" x2="14.869" y1="2.096" y2="2.45" xlink:href="#xMp8n7sS6yS4y4lMrhw_vh"/><linearGradient id="xMp8n7sS6yS4y4lMrhw_ve" x1="25.275" x2="27.407" y1="5.428" y2="6.235" gradientUnits="userSpaceOnUse"><stop offset="0" stop-color="#090c1a" stop-opacity=".5"/><stop offset="1" stop-color="#1d1d1b" stop-opacity="0"/></linearGradient><linearGradient id="xMp8n7sS6yS4y4lMrhw_vq" x1="30.492" x2="24.076" y1="7.366" y2="5.184" gradientUnits="userSpaceOnUse"><stop offset="0" stop-color="#472a0e"/><stop offset=".222" stop-color="#4a2d10" stop-opacity=".935"/><stop offset=".472" stop-color="#523416" stop-opacity=".744"/><stop offset=".736" stop-color="#604021" stop-opacity=".426"/><stop offset="1" stop-color="#73512f" stop-opacity="0"/></linearGradient><linearGradient id="xMp8n7sS6yS4y4lMrhw_vT" x1="25.31" x2="20.393" y1="29.513" y2="30.455" xlink:href="#xMp8n7sS6yS4y4lMrhw_ve"/></defs><path fill="url(#xMp8n7sS6yS4y4lMrhw_vi)" d="M16.72256,2.67812h0a.374.374,0,0,1,.374.374V4.21907a.374.374,0,0,1-.374.374h0a.374.374,0,0,1-.374-.374V3.05214a.374.374,0,0,1,.374-.374Z" transform="rotate(47.096 16.723 3.636)"/><path fill="url(#xMp8n7sS6yS4y4lMrhw_vj)" d="M16.27311,4.17337c.10505.13434.22655.28886.34515.43143.11931.1451.24145.28846.36508.42962q.37115.42348.76189.81654c.26086.25975.52821.5045.79768.73183a7.44721,7.44721,0,0,0,.814.58637,1.35509,1.35509,0,1,1-1.67,2.11036l-.03171-.03268a10.15445,10.15445,0,0,1-.88026-1.03176c-.25654-.35071-.49245-.70438-.71121-1.06173q-.32529-.53727-.61064-1.0837-.143-.27367-.27747-.55075c-.0913-.187-.17384-.36586-.26511-.56935-.55912-1.10959-.12557-1.25424.30469-1.31683a1.242,1.242,0,0,1,1.03352.50915Z"/><path fill="url(#xMp8n7sS6yS4y4lMrhw_vk)" d="M21.63342,12.26436c-.12-.12115-.25873-.26043-.39316-.38817-.13544-.13017-.27349-.25829-.41276-.384-.2787-.25151-.56367-.49283-.852-.722-.2894-.22751-.58351-.43937-.87767-.63367a7.4469,7.4469,0,0,0-.8769-.48731,1.35509,1.35509,0,1,1,1.41216-2.29092l.0353.02875a10.15244,10.15244,0,0,1,.99472.92191c.29574.31835.57133.642.83031.97141q.38582.49561.733,1.005.174.25511.33989.51459c.11251.17506.21537.343.32978.5345a.78733.78733,0,0,1-1.23473.95841Z"/><path fill="url(#xMp8n7sS6yS4y4lMrhw_vl)" d="M17.11346,3.00691l-.46223,1.07863a.86028.86028,0,0,1-.6079.50332,1.97519,1.97519,0,0,1-1.64864-.38015c.256-1.24062.34919-1.57809.34919-1.57809Z"/><rect width=".326" height="26.055" x="26.46" y="-7.927" fill="url(#xMp8n7sS6yS4y4lMrhw_vd)" transform="rotate(102.351 26.623 5.1)"/><rect width=".799" height="6.065" x="14.523" y="-.493" fill="url(#xMp8n7sS6yS4y4lMrhw_va)" rx=".399" ry=".399" transform="rotate(102.351 14.923 2.54)"/><path fill="url(#xMp8n7sS6yS4y4lMrhw_vm)" d="M42.72878,10.42839l-.71862-1.80579a.802.802,0,0,0-.48115-.46154c-.26024-.07951-.64571-.19967-.64571-.19967l-1.43619-.31448a.2391.2391,0,0,0-.28473.18243l-.00724.033a.23913.23913,0,0,0,.18245.28474l1.43618.31448c.30776.10155.18785,1.00413.18318,1.50388a3.28025,3.28025,0,0,0,.14764,1.45684.84247.84247,0,0,0,.98522.181A.95738.95738,0,0,0,42.72878,10.42839Z"/><rect width="2.966" height="3.278" x="23.234" y="7.708" fill="url(#xMp8n7sS6yS4y4lMrhw_vn)" transform="rotate(-64.925 24.716 9.347)"/><path fill="url(#xMp8n7sS6yS4y4lMrhw_vb)" d="M29.77933,6.66324a.61045.61045,0,0,1,.47505.89048,1.50612,1.50612,0,0,1-.79.89213c-.33473.16748-.71895-.0096-.59145-.20571S29.77933,6.66324,29.77933,6.66324Z"/><path fill="url(#xMp8n7sS6yS4y4lMrhw_vo)" d="M23.84546,3.96412a.6077.6077,0,0,0-.97959.22882,1.51118,1.51118,0,0,0-.155,1.181c.0926.36186.47655.53419.54076.30929S23.84546,3.96412,23.84546,3.96412Z"/><path fill="url(#xMp8n7sS6yS4y4lMrhw_vg)" d="M30.00078,7.01191a4.88619,4.88619,0,0,1-.64217,1.04658A3.73491,3.73491,0,0,1,24.96778,9.3716a3.73493,3.73493,0,0,1-1.90814-4.16689,4.94,4.94,0,0,1,.8065-1.95392,3.79581,3.79581,0,0,1,4.58941-1.57756,3.73955,3.73955,0,0,1,1.90418,4.19A4.87872,4.87872,0,0,1,30.00078,7.01191Z"/><path fill="url(#xMp8n7sS6yS4y4lMrhw_vp)" d="M30.00078,7.01191a4.88619,4.88619,0,0,1-.64217,1.04658l-1.08824.46973a3.4035,3.4035,0,0,1-2.591.05124,6.27836,6.27836,0,0,1-.58586-.26544,3.4037,3.4037,0,0,1-1.6704-1.983l-.36347-1.12635a4.94,4.94,0,0,1,.8065-1.95392A8.27355,8.27355,0,0,1,27.598,3.566a9.0921,9.0921,0,0,1,2.76169,2.29731A4.87872,4.87872,0,0,1,30.00078,7.01191Z"/><path fill="url(#xMp8n7sS6yS4y4lMrhw_vq)" d="M24.06815,4.794c.32047.28368,1.53343,2.33891,5.76038,2.55665a4.29384,4.29384,0,0,0,.35271-.74744C29.69593,6.55018,27.98514,7.13267,24.06815,4.794Z"/><path fill="url(#xMp8n7sS6yS4y4lMrhw_vr)" d="M27.35509,4.12716a1.7528,1.7528,0,0,0-2.3202.87251A7.49469,7.49469,0,0,0,28.2276,6.44734,1.75278,1.75278,0,0,0,27.35509,4.12716Z"/><path fill="url(#xMp8n7sS6yS4y4lMrhw_vc)" d="M30.85475,5.12724l-.85407,1.88514c-2.15584.15946-5.44761-1.26626-6.57829-2.98032l.85407-1.88514a1.88489,1.88489,0,0,1,1.86023-1.10158l2.11319.16115a1.10968,1.10968,0,0,1,.69182.31343l1.51459,1.48242A1.88489,1.88489,0,0,1,30.85475,5.12724Zm-3.55421-.90509a1.5655,1.5655,0,0,0-2.072.77993,6.69386,6.69386,0,0,0,2.852,1.29209A1.56549,1.56549,0,0,0,27.30054,4.22214Z"/><path fill="url(#xMp8n7sS6yS4y4lMrhw_ve)" d="M25.22309,4.9949l-.27324.47326a10.53582,10.53582,0,0,0,2.91143,1.30318l.21337-.48344A6.60781,6.60781,0,0,1,25.22309,4.9949Z"/><ellipse cx="28.478" cy="1.568" fill="url(#xMp8n7sS6yS4y4lMrhw_vs)" rx=".242" ry=".393" transform="rotate(-64.854 28.478 1.568)"/><rect width=".326" height="26.055" x="26.43" y="-7.927" fill="url(#xMp8n7sS6yS4y4lMrhw_vt)" transform="rotate(102.351 26.593 5.1)"/><rect width=".799" height="6.065" x="14.493" y="-.493" fill="url(#xMp8n7sS6yS4y4lMrhw_vu)" rx=".399" ry=".399" transform="rotate(102.352 14.893 2.54)"/><path fill="url(#xMp8n7sS6yS4y4lMrhw_vv)" d="M42.69888,10.42839l-.71862-1.80579a.802.802,0,0,0-.48115-.46154c-.26024-.07951-.64571-.19967-.64571-.19967L39.4172,7.64692a.2391.2391,0,0,0-.28473.18243l-.00724.033a.23913.23913,0,0,0,.18245.28474l1.43618.31448c.30776.10155.18785,1.00413.18318,1.50388a3.28025,3.28025,0,0,0,.14764,1.45684.84247.84247,0,0,0,.98522.181A.95738.95738,0,0,0,42.69888,10.42839Z"/><path fill="url(#xMp8n7sS6yS4y4lMrhw_vw)" d="M41.10563,10.74906a.979.979,0,0,0,.1369.59615.59244.59244,0,0,0,.51008.20845.982.982,0,0,0,.5212-.22017.66572.66572,0,0,0,.20519-.2361.866.866,0,0,0-.0229-.5898,9.51209,9.51209,0,0,0-.39621-1.2047,1.33363,1.33363,0,0,0-.24581-.407.553.553,0,0,0-.42463-.18416.3723.3723,0,0,0-.29778.18633.67056.67056,0,0,0-.00473.28418c.00631.33259.00794.66533.01191.998Z"/><path fill="url(#xMp8n7sS6yS4y4lMrhw_vx)" d="M29.77692,38.47107a18.624,18.624,0,0,1-1.49876-1.27254,19.36808,19.36808,0,0,1-1.37276-1.42561,12.41421,12.41421,0,0,1-1.125-1.50028c-.079-.12493-.14471-.24828-.21925-.37161-.06673-.12216-.12087-.2408-.18433-.36021-.04676-.11411-.09646-.2282-.13928-.33655q-.02215-.07656-.04724-.15194l-.02591-.07529c-.00895-.02474-.01673-.06794-.02523-.101-.03271-.14368-.07026-.27644-.0986-.43772-.03-.15575-.06311-.30675-.08806-.47317-.0562-.32231-.10261-.65953-.147-.99773-.08755-.67907-.15015-1.37873-.20168-2.07759-.05042-.69946-.0869-1.40359-.10463-2.09817l-.00887-.51714L24.491,25.769l.00524-.24336.00247-.1216.00581-.1107c.00417-.07093.00641-.1541.01152-.215q.0088-.08212.01477-.16447l.024-.3314.001-.01535a2.62644,2.62644,0,1,0-5.24314-.31971l-.02661.43646-.00252.05352-.00044.04427-.00076.0885-.00115.17689-.00067.1767.00417.161.0089.32155.03053.615.04161.59718c.062.78812.144,1.55937.24158,2.33269.09907.77366.20972,1.54348.35282,2.32983.07268.39446.14811.78907.24005,1.19693.041.19881.09615.41238.14771.62085.04734.203.11718.43382.18026.65312.0176.05779.029.105.05188.17134l.06911.1976.14341.3923c.10324.2443.21336.47549.32528.7055.11766.21174.23448.43006.35722.632.12524.194.24885.39462.37794.57977a16.485,16.485,0,0,0,1.63968,1.98721,23.53311,23.53311,0,0,0,1.78394,1.6736c.76232.62028,1.4743,2.27948,2.7745,2.71288.5651.18836.96912-.32639,1.24553-.96847a2.12441,2.12441,0,0,0,.48038-3.66464Z"/><path fill="url(#xMp8n7sS6yS4y4lMrhw_vy)" d="M28.1424,39.80279a2.69988,2.69988,0,0,0-.81816,1.8208,1.29884,1.29884,0,0,0,.12226.66585.65755.65755,0,0,0,.54473.36376.91751.91751,0,0,0,.4313-.13473,3.74543,3.74543,0,0,0,1.77463-2.10184,1.67419,1.67419,0,0,0,.10132-.7232.89589.89589,0,0,0-.29109-.5723c-.15032-.11787-.37361-.05069-.54631-.01386A2.73339,2.73339,0,0,0,28.1424,39.80279Z"/><path fill="url(#xMp8n7sS6yS4y4lMrhw_vf)" d="M19.06985,45.96854l1.9485-.05281a1.35181,1.35181,0,0,0,.97048-.28563,1.15257,1.15257,0,0,0-.08823-1.37836c-.77016-1.17821-2.91255-2.23545-4.16577-1.1368a1.77562,1.77562,0,0,0-.45533,1.68941C17.45148,45.79333,18.15844,45.99324,19.06985,45.96854Z"/><path fill="url(#xMp8n7sS6yS4y4lMrhw_vz)" d="M19.29566,30.50386c1.24944-.25822,2.50076-.51988,3.76655-.66452.57078-.06522,1.20675-.02037,1.52372-.61394a5.4048,5.4048,0,0,0-.95109-5.57784,4.31,4.31,0,0,0-1.34677-1.11006,5.07187,5.07187,0,0,0-4.24785-.03871,5.28047,5.28047,0,0,0-2.69172,4.30141,8.978,8.978,0,0,0,.24074,2.30623,1.63036,1.63036,0,0,0,.37487.94177,2.0532,2.0532,0,0,0,2.34841.656C18.64025,30.63911,18.96789,30.5716,19.29566,30.50386Z"/><path fill="url(#xMp8n7sS6yS4y4lMrhw_vA)" d="M19.94461,25.60608a32.4131,32.4131,0,0,0-.54207,4.10157,31.67941,31.67941,0,0,0-.00124,4.1457,62.18961,62.18961,0,0,0,1.66688,9.545c-.39991,1.067-2.819,1.5727-3.8036.6084l-.29013-.74711c-.46573-1.43821-.902-2.90337-1.27511-4.40468a43.06726,43.06726,0,0,1-.89425-4.60543,36.38368,36.38368,0,0,1-.33455-4.762,37.54226,37.54226,0,0,1,.29284-4.79166,2.633,2.633,0,0,1,5.22567.65039q-.01106.08882-.02777.17546Z"/><path fill="url(#xMp8n7sS6yS4y4lMrhw_vB)" d="M24.747,25.68089c-4.88994,1.05212-7.68523.12792-8.99918-.59779a4.036,4.036,0,0,1-.93376-.66595q.53981.19549,1.07842.34672a18.87484,18.87484,0,0,0,8.60225.22716A6.29058,6.29058,0,0,1,24.747,25.68089Z"/><path fill="url(#xMp8n7sS6yS4y4lMrhw_vC)" d="M31.587,42.94634a6.11069,6.11069,0,0,1-.275,1.999,2.79309,2.79309,0,0,1-2.33139,2.02772,1.28409,1.28409,0,0,1-1.1633-.54757l-.01315-.02272a1.94414,1.94414,0,0,1-.14466-1.0294q.09683-2.2202.19128-4.438a1.94131,1.94131,0,0,1,1.027-1.73,1.80458,1.80458,0,0,1,.89549-.16619,1.72322,1.72322,0,0,1,1.29244.7305,2.14353,2.14353,0,0,1,.2989.6528,5.80694,5.80694,0,0,1,.16617,1.2159C31.55826,42.07118,31.58577,42.51,31.587,42.94634Z"/><path fill="url(#xMp8n7sS6yS4y4lMrhw_vD)" d="M23.256,9.28406a5.97953,5.97953,0,0,1,2.05692.49393l1.16062.42993a.83629.83629,0,0,1,.36087.208.79739.79739,0,0,1,.05437.70977c-.07475.30794-.2.66875-.51521.74789a.93407.93407,0,0,1-.51458-.06948l-2.86252-.96041-.70308-.23589a1.8492,1.8492,0,0,1-.61965-.23042c-.27734-.25988.1109-.59579.32627-.73776A2.22564,2.22564,0,0,1,23.256,9.28406Z"/><path fill="url(#xMp8n7sS6yS4y4lMrhw_vE)" d="M27.0246,12.84626c-.17455.74127-.60019,1.85795-1.05093,3.246-.275.84765-.55953,1.79815-.801,2.82516-.006.0251-.01077.05022-.01674.07532A23.6012,23.6012,0,0,0,24.649,22.02a18.55759,18.55759,0,0,0-.04424,3.24843c-3.31895.53083-6.9004.81692-9.79132-.85211.02869-1.90815,1.8287-13.7221,5.32579-14.4C23.6375,9.33841,27.50284,10.81376,27.0246,12.84626Z"/><path fill="url(#xMp8n7sS6yS4y4lMrhw_vF)" d="M27.0246,12.84626c-.17455.74127-.60019,1.85795-1.05093,3.246-.275.84765-.55953,1.79815-.801,2.82516-.006.0251-.01077.05022-.01674.07532A23.6012,23.6012,0,0,0,24.649,22.02a18.55759,18.55759,0,0,0-.04424,3.24843c-3.31895.53083-6.9004.81692-9.79132-.85211.02869-1.90815,1.8287-13.7221,5.32579-14.4C23.6375,9.33841,27.50284,10.81376,27.0246,12.84626Z"/><g><path fill="#b32929" d="M21.33391,11.87011c-.177.67952-.43712,2.489-4.45858,2.61665.10816-.30706.22147-.60308.34011-.885a11.6672,11.6672,0,0,1,.95921-1.95423l3.13815.21726Z" opacity=".003"/><path fill="#b32929" d="M21.33252,11.87433c-.177.67037-.445,2.43618-4.43968,2.56474.12068-.33674.24805-.65856.38252-.95943a10.94489,10.94489,0,0,1,.89979-1.83291l3.13908.2181Z" opacity=".006"/><path fill="#b32929" d="M21.33113,11.87856c-.177.66123-.45291,2.38336-4.42077,2.51283.13319-.36642.27463-.71405.42492-1.03384a10.22258,10.22258,0,0,1,.84036-1.7116l3.14.219C21.31418,11.86892,21.33261,11.87413,21.33113,11.87856Z" opacity=".009"/><path fill="#b32929" d="M21.32974,11.88278c-.177.65209-.4608,2.33053-4.40187,2.46093a11.73091,11.73091,0,0,1,.46733-1.10824,9.50026,9.50026,0,0,1,.78093-1.59028l3.14095.2198C21.31511,11.87034,21.33171,11.87688,21.32974,11.88278Z" opacity=".012"/><path fill="#b32929" d="M21.32836,11.887c-.177.64294-.4687,2.27771-4.383,2.409a11.33908,11.33908,0,0,1,.50974-1.18265,8.778,8.778,0,0,1,.7215-1.469l3.14188.22065C21.316,11.87175,21.33081,11.87962,21.32836,11.887Z" opacity=".015"/><path fill="#b32929" d="M21.327,11.89123c-.177.6338-.47659,2.22489-4.36407,2.35711a11.126,11.126,0,0,1,.55215-1.25706,8.05565,8.05565,0,0,1,.66207-1.34764l3.14281.2215C21.317,11.87316,21.32992,11.88237,21.327,11.89123Z" opacity=".018"/><path fill="#b32929" d="M21.32558,11.89546c-.177.62466-.48448,2.17207-4.34517,2.30521a11.03018,11.03018,0,0,1,.59456-1.33147,7.33334,7.33334,0,0,1,.60264-1.22632l3.14374.22234C21.3179,11.87457,21.329,11.88512,21.32558,11.89546Z" opacity=".021"/><path fill="#b32929" d="M21.32419,11.89968c-.177.61551-.49238,2.11925-4.32627,2.2533a11.01552,11.01552,0,0,1,.637-1.40588,6.611,6.611,0,0,1,.54322-1.105l3.14468.22319C21.31884,11.876,21.32812,11.88787,21.32419,11.89968Z" opacity=".024"/><path fill="#b32929" d="M21.3228,11.9039c-.177.60637-.50027,2.06643-4.30736,2.20139a11.05929,11.05929,0,0,1,.67938-1.48029,5.88874,5.88874,0,0,1,.48379-.98368l3.14561.224C21.31977,11.8774,21.32722,11.89061,21.3228,11.9039Z" opacity=".026"/><path fill="#b32929" d="M21.32141,11.90813c-.177.59723-.50817,2.01361-4.28846,2.14948a11.14655,11.14655,0,0,1,.72178-1.55469,5.16644,5.16644,0,0,1,.42436-.86237l3.14654.22489C21.3207,11.87881,21.32632,11.89336,21.32141,11.90813Z" opacity=".029"/><path fill="#b32929" d="M21.32,11.91235c-.17695.58809-.51606,1.96079-4.26956,2.09758a11.267,11.267,0,0,1,.76419-1.6291,4.44415,4.44415,0,0,1,.36493-.741l3.14747.22574C21.32163,11.88022,21.32543,11.89611,21.32,11.91235Z" opacity=".032"/><path fill="#b32929" d="M21.31863,11.91658c-.17695.57894-.524,1.908-4.25066,2.04567a11.41349,11.41349,0,0,1,.8066-1.70351,3.72187,3.72187,0,0,1,.3055-.61973l3.14841.22658C21.32256,11.88163,21.32453,11.89886,21.31863,11.91658Z" opacity=".035"/><path fill="#b32929" d="M21.31724,11.9208c-.17695.5698-.53185,1.85515-4.23176,1.99376a11.58061,11.58061,0,0,1,.849-1.77792,2.99961,2.99961,0,0,1,.24608-.49841l3.14934.22743C21.32349,11.883,21.32363,11.90161,21.31724,11.9208Z" opacity=".038"/><path fill="#b32929" d="M21.31585,11.925c-.17695.56066-.53974,1.80233-4.21286,1.94185a11.76445,11.76445,0,0,1,.89142-1.85233,2.27739,2.27739,0,0,1,.18665-.37709l3.15027.22828C21.32442,11.88446,21.32273,11.90435,21.31585,11.925Z" opacity=".041"/><path fill="#b32929" d="M21.31446,11.92925c-.17695.55151-.54763,1.7495-4.194,1.88995a11.962,11.962,0,0,1,.93383-1.92673,1.55525,1.55525,0,0,1,.12722-.25577l3.1512.22913C21.32536,11.88587,21.32183,11.9071,21.31446,11.92925Z" opacity=".044"/><path fill="#b32929" d="M21.31307,11.93348c-.17695.54237-.55553,1.69668-4.17505,1.838a12.171,12.171,0,0,1,.97623-2.00114.83345.83345,0,0,1,.06779-.13445l3.15213.23C21.32629,11.88728,21.32094,11.90985,21.31307,11.93348Z" opacity=".047"/><path fill="#b32929" d="M21.3356,11.866c-.00838.02272-.01556.04663-.02392.07173-.17694.53323-.56342,1.64386-4.15615,1.78613a12.38951,12.38951,0,0,1,1.01864-2.07555l.00836-.01314Z" opacity=".05"/></g><g><path fill="url(#xMp8n7sS6yS4y4lMrhw_vG)" d="M15.56685,1.7361h0a.374.374,0,0,1,.374.374V3.22189a.374.374,0,0,1-.374.374h0a.374.374,0,0,1-.374-.374V2.11011a.374.374,0,0,1,.374-.374Z" transform="rotate(11.491 15.567 2.666)"/><path fill="url(#xMp8n7sS6yS4y4lMrhw_vH)" d="M16.295,1.91406h0a.374.374,0,0,1,.374.374V3.39985a.374.374,0,0,1-.374.374h0a.374.374,0,0,1-.374-.374V2.28807a.374.374,0,0,1,.374-.374Z" transform="rotate(11.491 16.295 2.844)"/><path fill="url(#xMp8n7sS6yS4y4lMrhw_vI)" d="M16.93181,2.08261h0a.374.374,0,0,1,.374.374V3.2313a.374.374,0,0,1-.374.374h0a.374.374,0,0,1-.374-.374V2.45662a.374.374,0,0,1,.374-.374Z" transform="rotate(29.311 16.932 2.844)"/></g><path fill="url(#xMp8n7sS6yS4y4lMrhw_vJ)" d="M31.587,42.94634a6.11069,6.11069,0,0,1-.275,1.999,2.79309,2.79309,0,0,1-2.33139,2.02772,1.28409,1.28409,0,0,1-1.1633-.54757,2.36736,2.36736,0,0,1,.33715-1.50406c.24151-.40052.58466-.73288.82735-1.13341a2.763,2.763,0,0,0,.33476-1.98587,11.89687,11.89687,0,0,0-.40888-1.20993,2.15457,2.15457,0,0,1-.02989-1.38688,1.80458,1.80458,0,0,1,.89549-.16619,1.72322,1.72322,0,0,1,1.29244.7305,2.14353,2.14353,0,0,1,.2989.6528,2.59056,2.59056,0,0,0-.336,1.082,3.50786,3.50786,0,0,0,.55236,1.42992Z"/><g><path fill="url(#xMp8n7sS6yS4y4lMrhw_vK)" d="M21.30849,11.8599A1.73,1.73,0,0,1,19.71,13.28267l-.5416.03227-.26661.01554-.269.0012-.532.00359-.53085-.0275a12.25038,12.25038,0,0,1-1.565-.19847c-.16381-.03228-.32759-.06814-.489-.1088a10.90848,10.90848,0,0,1-1.91414-.65279,9.42223,9.42223,0,0,1-.89669-.45553l-.22118-.12912c-.07293-.04424-.14825-.09326-.22118-.14109-.14705-.09683-.2989-.202-.47345-.33835a.81043.81043,0,0,1,.391-1.44426l.62768-.08131c.24866-.03227.51529-.0263.77354-.04184l.75321-.02869c.49019-.01913.95647-.043,1.41437-.06935.45912-.02391.90626-.06814,1.36417-.07172.11359,0,.22836-.0012.34313-.0012a5.91738,5.91738,0,0,1,1.11669.07291l1.33785.23792A1.727,1.727,0,0,1,21.30849,11.8599Z"/><path fill="url(#xMp8n7sS6yS4y4lMrhw_vL)" d="M11.31961,10.29212V4.29631A.91066.91066,0,0,1,13.109,4.05759l.06435.23872c.1352.49964.24506.9993.33867,1.49895.051.24983.09122.49966.13423.74947.04517.24983.08.49966.11684.74949.03786.24982.07382.49964.10229.74947.02992.24983.0633.49964.09035.74947a4.45477,4.45477,0,0,1,.01608.74947,2.78237,2.78237,0,0,1-.1329.74947l-.13663.39782a1.22457,1.22457,0,0,1-2.38272-.39782Z"/><path fill="url(#xMp8n7sS6yS4y4lMrhw_vM)" d="M15.13839,1.60924a.37375.37375,0,0,0-.4396.2874.37356.37356,0,0,0-.73209-.14884.37355.37355,0,0,0-.73208-.14881.37378.37378,0,0,0-.73351-.14422l-.22585,1.11088S10.87507,3.77851,11.29341,4.59c0,0-.16293.71691,0,.80334a4.05379,4.05379,0,0,0,2.18845.24367c.1721-.03942-.10129-.47964-.124-.5933a1.98391,1.98391,0,0,0,1.451-1.12435l.62151-1.86913A.374.374,0,0,0,15.13839,1.60924Z"/><path fill="url(#xMp8n7sS6yS4y4lMrhw_vh)" d="M13.48187,5.637c.1721-.03942-.10129-.47964-.124-.5933A2.63562,2.63562,0,0,1,11.29341,4.59s-.16293.71691,0,.80334A4.05379,4.05379,0,0,0,13.48187,5.637Z"/><path fill="url(#xMp8n7sS6yS4y4lMrhw_vN)" d="M13.23709,1.58264l-.00239.01674-.23553,1.28885-.72332-.32282.22477-1.11069a.37442.37442,0,0,1,.73886.03347A.35816.35816,0,0,1,13.23709,1.58264Z"/><path fill="url(#xMp8n7sS6yS4y4lMrhw_vO)" d="M13.96641,1.74764,13.73088,3.015l-.73171-.12672.24031-1.4a.35816.35816,0,0,1-.00239.09446l-.00239.01674a.37331.37331,0,0,1,.73171.14825Z"/><path fill="url(#xMp8n7sS6yS4y4lMrhw_vP)" d="M14.73277,1.805,14.2916,3.125l-.56072-.11.24748-1.31036a.37409.37409,0,0,1,.72093.19249A.35437.35437,0,0,1,14.73277,1.805Z"/><path fill="url(#xMp8n7sS6yS4y4lMrhw_vQ)" d="M15.431,2.05012l-.434,1.30559L14.2916,3.125,14.73277,1.805l.0012-.00239a.37344.37344,0,0,1,.697.24748Z"/><path fill="url(#xMp8n7sS6yS4y4lMrhw_vR)" d="M14.69072.97919h0a.374.374,0,0,1,.374.374v.50027a.374.374,0,0,1-.374.374h0a.374.374,0,0,1-.374-.374V1.3532a.374.374,0,0,1,.374-.374Z" transform="rotate(-23.59 14.69 1.603)"/></g><path fill="url(#xMp8n7sS6yS4y4lMrhw_vS)" d="M21.38532,11.866a1.755,1.755,0,0,1-1.62158,1.44332l-.54943.03273-.27047.01577L18.671,13.359l-.53973.00364-.53852-.02789a12.67954,12.67954,0,0,1-1.403-.16669.2409.2409,0,0,1-.19609-.23092,4.36747,4.36747,0,0,1,.522-2.187,4.47758,4.47758,0,0,1,.89292-1.16936.23828.23828,0,0,1,.16219-.06335,5.67837,5.67837,0,0,1,1.0395.07442l1.35718.24136A1.75191,1.75191,0,0,1,21.38532,11.866Z"/><g><path fill="#b52a2a" d="M25.95433,16.10607c-.02427.07514-.04854.1503-.07281.22659-.04048.12724-.0821.25789-.12258.38968-.02325.0744-.04735.14933-.06975.22549a6.765,6.765,0,0,1-2.11218,1.03c-.21552.08126-.439.16244-.66636.24178-.37885.13239-.76823.25969-1.14886.3738a14.61259,14.61259,0,0,1-1.67836.41211c.617-.22156,1.238-.44822,1.85523-.69457.36747-.14671.73355-.30021,1.09514-.46378q.25416-.115.50505-.23691c.38663-.1883.7663-.39027,1.13512-.61011q.19724-.11763.39011-.24214A10.36969,10.36969,0,0,0,25.95433,16.10607Z" opacity=".003"/><path fill="#b52a2a" d="M25.9499,16.11985c-.02343.07257-.04686.14517-.0703.21884-.03912.123-.07931.24916-.11843.37645-.02259.07229-.046.14509-.06776.219a6.72193,6.72193,0,0,1-2.03839.99676c-.20817.07934-.42391.15859-.64323.23607-.36663.12985-.74315.25475-1.111.36679a14.17181,14.17181,0,0,1-1.61671.40432c.59075-.21357,1.19075-.43614,1.78915-.679.354-.14324.70709-.29324,1.05606-.45284q.24523-.11213.48739-.23088c.37319-.18336.73972-.37956,1.09544-.5922q.19117-.11439.37787-.235A10.22614,10.22614,0,0,0,25.9499,16.11985Z" opacity=".006"/><path fill="#b52a2a" d="M25.94547,16.13364c-.02259.07-.04519.14-.06779.21109-.03776.11869-.07652.24043-.11428.36323-.02193.07018-.0446.14084-.06577.21258a6.68933,6.68933,0,0,1-1.96461.96353c-.20082.07741-.40878.15474-.62009.23037-.35441.12731-.71807.2498-1.07314.35979a13.733,13.733,0,0,1-1.55505.39653c.56451-.20558,1.1435-.42406,1.72308-.66335.34048-.13976.68064-.28628,1.017-.44191q.23629-.1093.46973-.22485c.35975-.17842.71314-.36884,1.05577-.57428q.18511-.11115.36564-.228A10.09451,10.09451,0,0,0,25.94547,16.13364Z" opacity=".009"/><path fill="#b52a2a" d="M25.941,16.14742c-.02175.06742-.04351.13491-.06528.20335-.0364.11441-.07373.2317-.11013.35-.02127.06807-.04323.13659-.06378.20613a6.74977,6.74977,0,0,1-1.89083.93029c-.19364.075-.39366.15089-.597.22466-.3422.12476-.693.24486-1.03529.35279a13.29639,13.29639,0,0,1-1.4934.38874c.53827-.19759,1.09625-.412,1.657-.64774.327-.13628.65418-.27931.97791-.431q.22736-.10647.45206-.21882c.34632-.17347.68656-.35812,1.01609-.55637q.179-.10791.35341-.22086C25.42428,16.54583,25.688,16.34922,25.941,16.14742Z" opacity=".012"/><path fill="#b52a2a" d="M25.93661,16.16121c-.0209.06485-.04183.12978-.06277.1956-.035.11014-.07094.223-.106.33677-.02061.066-.04186.13234-.06179.19968a6.76919,6.76919,0,0,1-1.817.89706c-.18633.073-.37853.147-.57383.219-.33.12222-.66791.23991-.99743.34578a12.86235,12.86235,0,0,1-1.43174.381c.512-.18961,1.04852-.401,1.59092-.63214.31322-.13346.62773-.27235.93884-.42q.21843-.10364.4344-.21279c.33288-.16853.66-.34741.97641-.53846q.173-.10467.34118-.21376C25.44011,16.54235,25.69409,16.35368,25.93661,16.16121Z" opacity=".015"/><path fill="#b52a2a" d="M25.93218,16.175c-.02006.06228-.04016.12465-.06026.18785-.03367.10586-.06816.21425-.10183.32354-.02.06384-.04048.12809-.0598.19322a6.8105,6.8105,0,0,1-1.74326.86383c-.179.071-.36341.1432-.55069.21325-.31776.11967-.64282.235-.95957.33878a12.43127,12.43127,0,0,1-1.37009.37316c.48579-.18162,1.00116-.38916,1.52485-.61653.29966-.1301.60127-.26538.89976-.4091q.20949-.10081.41673-.20676c.31944-.16358.6334-.33669.93674-.52054q.1669-.10143.32895-.20667C25.45594,16.53886,25.70022,16.35813,25.93218,16.175Z" opacity=".018"/><path fill="#b52a2a" d="M25.92775,16.18878c-.01922.05971-.03848.11952-.05775.18011-.03231.10159-.06537.20552-.09768.31031-.0193.06173-.03911.12385-.05781.18677a6.87986,6.87986,0,0,1-1.66948.8306c-.17169.069-.34828.13935-.52756.20754-.30554.11713-.61774.23-.92172.33178a12.00364,12.00364,0,0,1-1.30844.36537c.45956-.17363.95382-.37727,1.45877-.60092.28612-.12672.57482-.25842.86069-.39816q.20056-.098.39907-.20073c.306-.15864.60682-.326.89706-.50263q.16083-.09819.31672-.19957C25.47177,16.53538,25.70635,16.36259,25.92775,16.18878Z" opacity=".021"/><path fill="#b52a2a" d="M25.92332,16.20256c-.01838.05714-.0368.11439-.05524.17236-.03095.09731-.06258.19679-.09353.29708-.01864.05961-.03773.1196-.05582.18032a6.986,6.986,0,0,1-1.59569.79737c-.16437.067-.33316.1355-.50443.20183-.29332.11458-.59266.22508-.88386.32477a11.58008,11.58008,0,0,1-1.24678.35758c.43332-.16564.90648-.36534,1.39269-.58531.27258-.12332.54836-.25145.82161-.38723q.19162-.09515.3814-.19471c.29257-.1537.58024-.31526.85739-.48472q.15476-.095.30449-.19248C25.4876,16.5319,25.71248,16.367,25.92332,16.20256Z" opacity=".024"/><path fill="#b52a2a" d="M25.91889,16.21635c-.01754.05456-.03513.10926-.05273.16461-.02958.093-.05979.18806-.08938.28385-.018.0575-.03636.11535-.05383.17386a7.1416,7.1416,0,0,1-1.52191.76414c-.157.065-.318.13166-.48129.19613-.28111.112-.56758.22013-.846.31777a11.16134,11.16134,0,0,1-1.18513.34979c.40708-.15765.85917-.35336,1.32662-.5697.25905-.11989.52191-.24449.78253-.37629q.18269-.09232.36374-.18868c.27913-.14875.55366-.30454.81771-.4668q.14869-.09172.29226-.18538C25.50343,16.52841,25.7186,16.3715,25.91889,16.21635Z" opacity=".026"/><path fill="#b52a2a" d="M25.91446,16.23013l-.05022.15687c-.02822.08876-.057.17934-.08523.27062-.01732.05539-.035.1111-.05184.16741a7.36608,7.36608,0,0,1-1.44813.73091c-.14971.06309-.30291.12781-.45816.19042-.26889.10949-.5425.21519-.80815.31076a10.74838,10.74838,0,0,1-1.12347.342c.38084-.14966.81187-.34133,1.26054-.55409.24554-.11643.49545-.23752.74346-.36535q.17376-.08949.34607-.18265c.2657-.14381.52708-.29383.778-.44889q.14262-.08848.28-.17828C25.51926,16.52493,25.72473,16.376,25.91446,16.23013Z" opacity=".029"/><path fill="#b52a2a" d="M25.91,16.24392l-.04771.14912c-.02686.08448-.05421.17061-.08108.25739-.01666.05327-.03361.10685-.04985.161a7.69048,7.69048,0,0,1-1.37435.69768c-.14237.06116-.28778.124-.435.18471-.25667.10695-.51742.21024-.77029.30376a10.34245,10.34245,0,0,1-1.06182.33422c.3546-.14167.7646-.32925,1.19446-.53849.232-.11294.469-.23056.70438-.35442q.16482-.08666.32841-.17662c.25226-.13887.5005-.28311.73836-.431q.13656-.08524.26779-.17119C25.53509,16.52145,25.73086,16.38041,25.91,16.24392Z" opacity=".032"/><path fill="#b52a2a" d="M25.9056,16.2577l-.0452.14137c-.0255.08021-.05142.16188-.07693.24417-.016.05116-.03223.1026-.04786.1545a8.16776,8.16776,0,0,1-1.30056.66445c-.135.05925-.27266.12011-.41189.179-.24445.1044-.49233.20529-.73244.29676a9.94515,9.94515,0,0,1-1.00016.32643c.32836-.13368.71735-.3171,1.12838-.52288.21855-.10941.44254-.22359.66531-.34348q.15589-.08383.31075-.17059c.23882-.13392.47392-.2724.69869-.41306q.13049-.082.25556-.16409C25.55092,16.518,25.737,16.38487,25.9056,16.2577Z" opacity=".035"/><path fill="#b52a2a" d="M25.90117,16.27149l-.04269.13363c-.02414.07593-.04864.15315-.07278.23094-.01534.049-.03086.09836-.04587.148a8.8964,8.8964,0,0,1-1.22678.63121c-.12765.05738-.25753.11626-.38876.1733-.23223.10186-.46725.20035-.69458.28975a9.55864,9.55864,0,0,1-.93851.31864c.30213-.12569.67015-.30488,1.06231-.50727.20509-.10585.41609-.21663.62623-.33255q.147-.081.29308-.16456c.22539-.129.44734-.26168.659-.39515q.12442-.07876.24333-.157C25.56675,16.51448,25.74312,16.38932,25.90117,16.27149Z" opacity=".038"/><path fill="#b52a2a" d="M25.89674,16.28527l-.04018.12588c-.02277.07166-.04585.14442-.06863.21771-.01468.04693-.02948.09411-.04388.1416a10.08258,10.08258,0,0,1-1.153.598c-.12026.05554-.2424.11242-.36563.16759-.22.09931-.44217.1954-.65672.28275a9.18588,9.18588,0,0,1-.87686.31085c.27589-.1177.623-.29256.99623-.49166.19165-.10223.38963-.20967.58716-.32161q.138-.07817.27542-.15853c.212-.124.42076-.251.61934-.37724q.11835-.07552.2311-.1499C25.58258,16.511,25.74925,16.39378,25.89674,16.28527Z" opacity=".041"/><path fill="#b52a2a" d="M25.89231,16.29905l-.03767.11813c-.02141.06738-.04306.1357-.06448.20448-.014.04482-.02811.08986-.04189.13514-.23627.14781-.63793.35451-1.07921.56475-.11285.05377-.22728.10857-.34249.16189-.2078.09677-.41709.19046-.61887.27574-.29758.12481-.57912.23146-.8152.30306.24965-.10971.57591-.28014.93015-.47605.17824-.09857.36318-.2027.54808-.31067q.12909-.07534.25775-.1525c.19851-.11909.39417-.24025.57966-.35932q.11228-.07228.21887-.14281C25.59841,16.50752,25.75537,16.39823,25.89231,16.29905Z" opacity=".044"/><path fill="#b52a2a" d="M25.88788,16.31284l-.03516.11039q-.03007.09466-.06033.19125-.02.06406-.0399.12869c-.24859.146-.61335.33786-1.00543.53152-.1054.05206-.21215.10472-.31936.15618-.19558.09423-.392.18551-.581.26874-.27541.12072-.53522.2244-.75355.29527.22341-.10172.52925-.267.86408-.46044.165-.09456.33672-.19574.509-.29974q.12015-.07251.24009-.14647c.18508-.11415.36759-.22953.54-.34141q.10621-.069.20664-.13571C25.61424,16.504,25.7615,16.40269,25.88788,16.31284Z" opacity=".047"/><path fill="#b52a2a" d="M25.88345,16.32662c-.04186.13151-.0849.26661-.12674.4029-.33537.18532-.781.42534-1.22788.64876a11.62938,11.62938,0,0,1-1.235.54922c.29173-.13868.77535-.425,1.26793-.73364.24629-.1543.49482-.31418.72273-.46394S25.71965,16.4405,25.88345,16.32662Z" opacity=".05"/></g><g><path fill="#b52a2a" d="M25.64146,17.111c-.00149.0052-.07452.25416-.11875.41023q-.1615.56423-.31028,1.16772v.00117c-.01758.07146-.034.14181-.05161.21449a18.49925,18.49925,0,0,1-1.84056.89278q-.34852.14588-.70413.2781-.38194.142-.77128.26777a18.82428,18.82428,0,0,1-1.82587.489l-.0887.017a11.90359,11.90359,0,0,0,1.80131-.894q.12709-.07463.25451-.15182c.55859-.33845,1.116-.70865,1.62124-1.06346l.05554-.03915A11.61318,11.61318,0,0,0,25.64146,17.111Z" opacity=".003"/><path fill="#b52a2a" d="M25.63432,17.13563c-.003.0104-.073.24937-.116.40131q-.158.55279-.30373,1.14344l0,.00115c-.01724.07-.03341.139-.05062.21019a18.45873,18.45873,0,0,1-1.79451.86978q-.33815.14194-.68444.27162-.37129.13894-.75113.26329-.87024.28389-1.77712.486l-.07972.0141a11.916,11.916,0,0,0,1.75388-.87756q.12379-.07307.24774-.14852c.54567-.3324,1.08763-.69426,1.578-1.04068l.05444-.03867A11.3676,11.3676,0,0,0,25.63432,17.13563Z" opacity=".006"/><path fill="#b52a2a" d="M25.62717,17.16028c-.00447.0156-.07152.24459-.11333.39239q-.15453.54135-.29718,1.11916l0,.00112c-.01689.06853-.03277.1361-.04963.20589a18.44129,18.44129,0,0,1-1.74846.84677q-.32777.138-.66476.26514-.36063.13591-.731.25882-.84355.27849-1.72837.48293l-.07074.01117a11.93807,11.93807,0,0,0,1.70645-.86112q.12049-.0715.241-.14522c.53275-.32634,1.05924-.67988,1.53474-1.0179l.05334-.03819A11.13148,11.13148,0,0,0,25.62717,17.16028Z" opacity=".009"/><path fill="#b52a2a" d="M25.62,17.18494c-.006.0208-.07.2398-.11062.38347q-.151.52991-.29063,1.09489l0,.0011c-.01654.06706-.03214.13325-.04864.20158a18.451,18.451,0,0,1-1.70242.82377q-.3174.13407-.64508.25866-.35.13289-.71083.25434-.81686.27309-1.67962.47988l-.06175.00823a11.97085,11.97085,0,0,0,1.659-.84469q.11719-.06994.2342-.14191c.51983-.32028,1.03085-.6655,1.4915-.99512l.05224-.0377A10.90577,10.90577,0,0,0,25.62,17.18494Z" opacity=".012"/><path fill="#b52a2a" d="M25.61288,17.2096c-.00745.026-.06851.235-.10791.37455q-.14755.51847-.28408,1.07061l-.00006.00107c-.01619.06559-.03151.13039-.04765.19728q-.75691.416-1.65637.80076-.307.13013-.6254.25218-.33931.12987-.69067.24987-.79018.26769-1.63087.47682l-.05277.0053a12.01536,12.01536,0,0,0,1.61159-.82825q.11389-.06837.22744-.13861c.50691-.31422,1.00246-.65111,1.44825-.97233l.05115-.03722A10.90386,10.90386,0,0,0,25.61288,17.2096Z" opacity=".015"/><path fill="#b52a2a" d="M25.60574,17.23425c-.00894.03121-.067.23023-.10521.36563q-.14406.507-.27753,1.04633l-.00007.001c-.01584.06413-.03088.12754-.04666.193q-.725.397-1.61033.77776-.29666.12619-.60572.2457-.32866.12685-.67052.24539-.76349.26228-1.58212.47377l-.04378.00236A12.07276,12.07276,0,0,0,22.228,19.7734q.11059-.06681.22067-.13531c.494-.30816.9747-.63586,1.405-.94955l.05-.03674A10.73217,10.73217,0,0,0,25.60574,17.23425Z" opacity=".018"/><path fill="#b52a2a" d="M25.59859,17.25891c-.01043.03641-.06551.22545-.1025.35671q-.14058.49559-.271,1.022l-.00008.001c-.01549.06266-.03024.12469-.04566.18868-.46205.252-.98195.50428-1.56428.75476q-.28628.12225-.586.23922-.318.12382-.65037.24092-.7368.25688-1.53338.47072l-.0348-.00058a12.14433,12.14433,0,0,0,1.51672-.79538q.10729-.06524.2139-.132c.48107-.3021.94637-.62141,1.36176-.92677l.049-.03625A10.57041,10.57041,0,0,0,25.59859,17.25891Z" opacity=".021"/><path fill="#b52a2a" d="M25.59145,17.28356c-.01193.04161-.064.22066-.09979.34779q-.13709.48415-.26443.99777l-.00009.001c-.01514.06119-.02961.12183-.04467.18438-.44077.23939-.9449.484-1.51823.73175q-.27591.11831-.56635.23274-.30734.1208-.63022.23644-.71011.25148-1.48463.46766l-.02582-.00351a12.23137,12.23137,0,0,0,1.46929-.779q.104-.06367.20713-.1287c.46815-.296.918-.607,1.31851-.904L24,18.63217A10.42039,10.42039,0,0,0,25.59145,17.28356Z" opacity=".024"/><path fill="#b52a2a" d="M25.5843,17.30822c-.01342.04681-.06251.21588-.09708.33887q-.1336.47271-.25787.97349l-.0001.001c-.01479.05972-.029.119-.04368.18007-.4195.22674-.90786.46368-1.47219.70875q-.26554.11437-.54667.22626-.29668.11778-.61007.232-.68343.24607-1.43588.46461l-.01683-.00645a12.33529,12.33529,0,0,0,1.42186-.76252q.10069-.06211.20037-.1254c.45523-.29.88964-.59258,1.27527-.8812l.04675-.03528A10.28448,10.28448,0,0,0,25.5843,17.30822Z" opacity=".026"/><path fill="#b52a2a" d="M25.57716,17.33288c-.01491.052-.061.21109-.09438.32995q-.13011.46127-.25132.94921l-.00011.00095c-.01444.05826-.02834.11612-.04269.17577-.39822.21409-.87082.44338-1.42614.68574q-.25517.11043-.527.21978-.286.11475-.58992.22749-.65674.24067-1.38713.46156l-.00785-.00938a12.45742,12.45742,0,0,0,1.37443-.74608q.09739-.06054.1936-.1221c.44231-.28392.86125-.57821,1.232-.85842l.04566-.0348A10.16564,10.16564,0,0,0,25.57716,17.33288Z" opacity=".029"/><path fill="#b52a2a" d="M25.57,17.35753c-.0164.05721-.0595.2063-.09167.321q-.12662.44983-.24477.92493l-.00008.00075c-.01413.057-.02775.11343-.04174.17164-.37694.20144-.83378.42308-1.38009.66274q-.24479.10649-.50731.2133-.27537.11173-.56976.223-.63.23527-1.33838.4585l.00114-.01232a12.599,12.599,0,0,0,1.327-.72965q.09409-.059.18683-.11879c.42939-.27786.83284-.56387,1.18877-.83564l.04456-.03432A10.06775,10.06775,0,0,0,25.57,17.35753Z" opacity=".032"/><path fill="#b52a2a" d="M25.56287,17.38219c-.01789.06241-.058.20152-.089.3121q-.12314.43839-.23822.90066l-.00014.0009c-.01374.05532-.02708.11041-.04071.16717-.35566.18879-.79674.40278-1.334.63973q-.23442.10255-.48763.20682-.26471.10871-.54961.21854-.60336.22986-1.28963.45545l.01012-.01525a12.76091,12.76091,0,0,0,1.27956-.71321q.09079-.05741.18007-.11549c.41647-.2718.8044-.54955,1.14553-.81286l.04346-.03383A9.996,9.996,0,0,0,25.56287,17.38219Z" opacity=".035"/><path fill="#b52a2a" d="M25.55573,17.40685c-.01938.06761-.0565.19673-.08625.30318q-.11965.42695-.23167.87638l-.0001.00067c-.01344.05405-.02649.10776-.03976.16306-.33439.17614-.7597.38248-1.288.61673q-.224.09861-.46795.20034-.25405.10568-.52946.21406-.57667.22446-1.24088.4524l.01911-.01819a12.9434,12.9434,0,0,0,1.23213-.69678q.08749-.05585.1733-.11219c.40355-.26574.77594-.53528,1.10228-.79007l.04236-.03335A9.95733,9.95733,0,0,0,25.55573,17.40685Z" opacity=".038"/><path fill="#b52a2a" d="M25.54858,17.4315c-.02087.07281-.055.19195-.08355.29426q-.11616.41551-.22512.8521l-.00016.00085c-.013.05239-.02581.1047-.03872.15857-.31311.16349-.72266.36218-1.242.59373q-.21368.09467-.44826.19386-.2434.10266-.50931.20959-.55.21906-1.19213.44934l.02809-.02113a13.14555,13.14555,0,0,0,1.1847-.68034q.08419-.05428.16653-.10889c.39063-.25968.74745-.521,1.059-.76729l.04127-.03286A9.96155,9.96155,0,0,0,25.54858,17.4315Z" opacity=".041"/><path fill="#b52a2a" d="M25.54144,17.45616c-.02236.078-.0535.18716-.08084.28534q-.11267.40407-.21857.82782l-.00011.00059c-.01275.05115-.02524.10208-.03779.15449-.29183.15084-.68562.34188-1.19591.57072q-.2033.09073-.42858.18738-.23274.09964-.48916.20511-.5233.21366-1.14338.44629l.03707-.02406c.39886-.20612.78129-.43272,1.13726-.66391q.08088-.05271.15976-.10558c.37771-.25362.71856-.50728,1.01579-.74451l.04017-.03238A10.02266,10.02266,0,0,0,25.54144,17.45616Z" opacity=".044"/><path fill="#b52a2a" d="M25.53429,17.48081c-.02385.08321-.052.18238-.07813.27642q-.10918.39262-.212.80354l-.00018.0008c-.01235.04945-.02455.099-.03674.15-.27055.13819-.64858.32159-1.14986.54772q-.19293.0868-.4089.1809-.22208.09662-.469.20064-.49661.20825-1.09463.44324l.04606-.027c.38891-.20666.7539-.42646,1.08983-.64747q.07758-.05115.153-.10228c.36479-.24756.69017-.4929.97254-.72173l.03907-.0319A10.04085,10.04085,0,0,0,25.53429,17.48081Z" opacity=".047"/><path fill="#b52a2a" d="M25.52715,17.50547q-.165.57567-.31683,1.192v.0012c-.24928.12554-.61153.30129-1.10382.52471-.24614.11171-.52479.23535-.83807.37058s-.6612.28207-1.04588.44018a13.81,13.81,0,0,0,1.24367-.76c.36865-.253.69123-.5011.96727-.73036A10.41126,10.41126,0,0,0,25.52715,17.50547Z" opacity=".05"/></g><g><path fill="#b52a2a" d="M25.131,19.03891q-.08717.37674-.16511.76613c-.127.63616-.2243,1.29864-.30593,1.97987-.00842.07031-.01641.14153-.02346.21284-.05775.05829-.11772.11545-.17883.17149A5.13674,5.13674,0,0,1,20.974,23.40555,5.10922,5.10922,0,0,0,24.46077,21.187a13.45626,13.45626,0,0,1-6.64128,1.27139,13.53739,13.53739,0,0,0,4.18334-.78384A5.98511,5.98511,0,0,0,25.131,19.03891Z" opacity=".003"/><path fill="#b52a2a" d="M25.121,19.085q-.08467.3679-.16043.74794c-.12362.62192-.21888,1.26913-.29862,1.93443-.00824.06876-.01606.13838-.023.20809-.05452.058-.11112.11491-.16876.1708A5.07844,5.07844,0,0,1,21.11354,23.366a5.14942,5.14942,0,0,0,3.35806-2.19411,13.4,13.4,0,0,1-6.39717,1.25156,13.17562,13.17562,0,0,0,4.02909-.78935A5.84176,5.84176,0,0,0,25.121,19.085Z" opacity=".006"/><path fill="#b52a2a" d="M25.111,19.13118q-.08217.35906-.15576.72975c-.12028.60769-.21346,1.23961-.29132,1.889-.00806.06721-.01572.13523-.02254.20335-.05129.05768-.10451.11438-.15868.17012a5.02658,5.02658,0,0,1-3.22964,1.203,5.19658,5.19658,0,0,0,3.22936-2.16971,13.36622,13.36622,0,0,1-6.15306,1.23173,12.89476,12.89476,0,0,0,3.87483-.79487A5.7152,5.7152,0,0,0,25.111,19.13118Z" opacity=".009"/><path fill="#b52a2a" d="M25.101,19.17732q-.07966.35022-.15109.71157c-.11693.59345-.208,1.2101-.284,1.84354-.00788.06566-.01537.13208-.02208.1986-.04806.05737-.0979.11385-.14861.16944a4.98237,4.98237,0,0,1-3.10263,1.18631,5.25044,5.25044,0,0,0,3.10066-2.14531,13.35953,13.35953,0,0,1-5.90895,1.2119,12.619,12.619,0,0,0,3.72058-.80038A5.59151,5.59151,0,0,0,25.101,19.17732Z" opacity=".012"/><path fill="#b52a2a" d="M25.091,19.22345q-.07716.34138-.14642.69338c-.11358.57922-.20262,1.18058-.27672,1.79809-.00769.06411-.015.12893-.02162.19385-.04484.05706-.09129.11331-.13854.16875a4.94738,4.94738,0,0,1-2.97561,1.16964,5.31024,5.31024,0,0,0,2.972-2.1209,13.38559,13.38559,0,0,1-5.66484,1.19207,12.34875,12.34875,0,0,0,3.56633-.80589A5.47121,5.47121,0,0,0,25.091,19.22345Z" opacity=".015"/><path fill="#b52a2a" d="M25.08106,19.26959q-.07466.33254-.14175.67519c-.11024.565-.19719,1.15106-.26941,1.75265-.00751.06256-.01468.12579-.02116.1891-.04161.05676-.08468.11278-.12847.16807a4.92361,4.92361,0,0,1-2.8486,1.153,5.37449,5.37449,0,0,0,2.84326-2.0965,13.45181,13.45181,0,0,1-5.42073,1.17224,12.08451,12.08451,0,0,0,3.41208-.8114A5.355,5.355,0,0,0,25.08106,19.26959Z" opacity=".018"/><path fill="#b52a2a" d="M25.07107,19.31573q-.07216.3237-.13707.657c-.10689.55075-.19177,1.12155-.26211,1.7072-.00733.061-.01433.12264-.0207.18436-.03838.05645-.07808.11224-.1184.16738A4.91372,4.91372,0,0,1,21.81119,23.168a5.4405,5.4405,0,0,0,2.71455-2.07209,13.568,13.568,0,0,1-5.17661,1.1524,11.82669,11.82669,0,0,0,3.25783-.81692A5.24375,5.24375,0,0,0,25.07107,19.31573Z" opacity=".021"/><path fill="#b52a2a" d="M25.06108,19.36186q-.06966.31487-.1324.63882c-.10355.53652-.18635,1.092-.25481,1.66176-.00715.05947-.014.11949-.02024.17961-.03515.05614-.07147.11171-.10833.1667a4.92122,4.92122,0,0,1-2.59458,1.11964,5.50385,5.50385,0,0,0,2.58585-2.04769,13.74744,13.74744,0,0,1-4.9325,1.13257,11.57567,11.57567,0,0,0,3.10357-.82243A5.13861,5.13861,0,0,0,25.06108,19.36186Z" opacity=".024"/><path fill="#b52a2a" d="M25.05109,19.408q-.06716.306-.12773.62064c-.1002.52228-.18092,1.06251-.24751,1.61631-.007.05792-.01364.11634-.01978.17486-.03192.05584-.06486.11117-.09826.166a4.951,4.951,0,0,1-2.46756,1.103,5.55765,5.55765,0,0,0,2.45715-2.02329A14.00834,14.00834,0,0,1,19.859,22.17824a11.33165,11.33165,0,0,0,2.94932-.82794A5.04112,5.04112,0,0,0,25.05109,19.408Z" opacity=".026"/><path fill="#b52a2a" d="M25.04111,19.45413q-.06466.29719-.12306.60245c-.09685.508-.1755,1.033-.2402,1.57087-.00678.05637-.0133.11319-.01932.17011-.02869.05553-.05825.11064-.08819.16533a5.00973,5.00973,0,0,1-2.34055,1.0863,5.59155,5.59155,0,0,0,2.32845-1.99888A14.37659,14.37659,0,0,1,20.114,22.14322a11.09452,11.09452,0,0,0,2.79507-.83345A4.95337,4.95337,0,0,0,25.04111,19.45413Z" opacity=".029"/><path fill="#b52a2a" d="M25.03112,19.50027q-.06216.28835-.11839.58426c-.09351.49381-.17007,1.00348-.2329,1.52542-.0066.05482-.013.11-.01886.16536-.02547.05523-.05164.11011-.07812.16465a5.10739,5.10739,0,0,1-2.21354,1.06963,5.59079,5.59079,0,0,0,2.19975-1.97448A14.89,14.89,0,0,1,20.3689,22.1082a10.86363,10.86363,0,0,0,2.64082-.839A4.87829,4.87829,0,0,0,25.03112,19.50027Z" opacity=".032"/><path fill="#b52a2a" d="M25.02113,19.5464q-.05965.27951-.11372.56608c-.09016.47958-.16464.974-.2256,1.48q-.00963.07991-.0184.16062-.03336.08238-.068.164a5.25881,5.25881,0,0,1-2.08652,1.053,5.53561,5.53561,0,0,0,2.071-1.95008,15.60572,15.60572,0,0,1-3.95606,1.05325,10.63735,10.63735,0,0,0,2.48656-.84448A4.82014,4.82014,0,0,0,25.02113,19.5464Z" opacity=".035"/><path fill="#b52a2a" d="M25.01115,19.59254q-.05715.27067-.109.54789c-.08681.46534-.15921.94444-.21829,1.43453q-.00935.07759-.01794.15587-.02851.08192-.058.16328a5.4875,5.4875,0,0,1-1.95951,1.03629,5.40185,5.40185,0,0,0,1.94234-1.92567,16.61418,16.61418,0,0,1-3.71195,1.03342,10.41242,10.41242,0,0,0,2.33231-.85A4.78528,4.78528,0,0,0,25.01115,19.59254Z" opacity=".038"/><path fill="#b52a2a" d="M25.00116,19.63868q-.05465.26183-.10437.5297-.1252.67667-.211,1.38909-.00908.07526-.01748.15112-.02367.08146-.0479.16259a5.83286,5.83286,0,0,1-1.8325,1.01962,5.16409,5.16409,0,0,0,1.81364-1.90127,18.06545,18.06545,0,0,1-3.46784,1.01358,10.18284,10.18284,0,0,0,2.17806-.8555A4.78373,4.78373,0,0,0,25.00116,19.63868Z" opacity=".041"/><path fill="#b52a2a" d="M24.99117,19.68481q-.05215.253-.0997.51152-.12018.65531-.20369,1.34364-.00881.07294-.017.14637l-.03783.16191a6.36643,6.36643,0,0,1-1.70548,1.003,4.8025,4.8025,0,0,0,1.68494-1.87686,20.22413,20.22413,0,0,1-3.22372.99375,9.93819,9.93819,0,0,0,2.02381-.861A4.83222,4.83222,0,0,0,24.99117,19.68481Z" opacity=".044"/><path fill="#b52a2a" d="M24.98119,19.73095q-.04965.24415-.095.49333c-.07678.42264-.14346.85582-.19639,1.2982q-.00862.07061-.01656.14163l-.02776.16123a7.2327,7.2327,0,0,1-1.57847.98629,4.313,4.313,0,0,0,1.55624-1.85246,23.58908,23.58908,0,0,1-2.97961.97392,9.66111,9.66111,0,0,0,1.86955-.86653A4.96079,4.96079,0,0,0,24.98119,19.73095Z" opacity=".047"/><path fill="#b52a2a" d="M24.9712,19.77708c-.13031.65039-.23912,1.3271-.31323,2.02532a8.77358,8.77358,0,0,1-1.45146.96962A3.7169,3.7169,0,0,0,24.634,20.944s-1.45025.59541-2.7355.95409A6.63963,6.63963,0,0,0,24.9712,19.77708Z" opacity=".05"/></g><path fill="url(#xMp8n7sS6yS4y4lMrhw_vT)" d="M24.70259,30.04812q-.0407-.41439-.07335-.83242l-.0433.00969a6.98449,6.98449,0,0,1-3.75328,1.086A12.5419,12.5419,0,0,0,24.70259,30.04812Z"/></svg>