<svg xmlns="http://www.w3.org/2000/svg"  viewBox="0 0 48 48" width="48px" height="48px"><linearGradient id="YuvqNC_l5EIjH0O4_M2~Ma" x1="23.998" x2="23.998" y1="40.998" y2="7.344" gradientUnits="userSpaceOnUse"><stop offset=".395" stop-color="#cff3ff"/><stop offset=".544" stop-color="#b6e0f7"/><stop offset=".859" stop-color="#77b1e3"/><stop offset="1" stop-color="#599ad9"/></linearGradient><path fill="url(#YuvqNC_l5EIjH0O4_M2~Ma)" d="M37.905,40.998H10.091c-1.707,0-3.09-1.384-3.09-2.849V10.335 c0-1.948,1.384-3.332,3.09-3.332h27.814c1.707,0,3.09,1.384,3.09,3.09v27.814C40.996,39.614,39.612,40.998,37.905,40.998z"/><polygon fill="#4c88bd" points="31.792,37.756 39.047,37.756 39.047,16.996 31.792,13.671"/><polygon fill="#4c88bd" points="30.305,25.588 21.991,25.588 21.991,25.663 20.958,25.663 20.958,40.981 29.423,40.981 29.423,26.57 30.305,26.57"/><path fill="#4c88bd" d="M13.702,18.911l-2.57-1.814l-2.645,1.814v21.637c0.469,0.277,1.014,0.45,1.604,0.45h6.257V29.19 h-2.645V18.911z"/><path fill="#22496e" d="M36.503,24.227v5.417h-8.572v11.354h9.975c1.707,0,3.09-1.384,3.09-3.09v-13.68H36.503z"/><polygon fill="#22496e" points="21.078,22.539 21.078,20.688 20.12,20.688 20.12,18.708 19.062,18.708 19.062,14.93 18.306,14.93 18.306,18.708 17.248,18.708 17.248,20.688 16.291,20.688 16.291,22.539 14.905,22.539 14.905,41 22.463,41 22.463,22.539"/><rect width="1.233" height="2.116" x="16.631" y="24.202" fill="#78b2e6"/><rect width="1.233" height="2.116" x="19.518" y="24.202" fill="#b5ddff"/><rect width=".892" height="1.531" x="29.001" y="31.209" fill="#b5ddff"/><rect width=".892" height="1.531" x="31.09" y="31.209" fill="#b5ddff"/><rect width=".892" height="1.531" x="32.894" y="18.247" fill="#91c2ed"/><rect width=".892" height="1.531" x="34.982" y="18.247" fill="#66a2d9"/><rect width=".892" height="1.531" x="37.05" y="18.302" fill="#91c2ed"/><rect width=".892" height="1.531" x="34.982" y="21.157" fill="#91c2ed"/><rect width=".892" height="1.531" x="37.05" y="21.212" fill="#66a2d9"/><rect width=".892" height="1.531" x="32.894" y="24.067" fill="#91c2ed"/><rect width=".892" height="1.531" x="32.894" y="26.977" fill="#66a2d9"/><rect width=".892" height="1.531" x="34.982" y="26.977" fill="#91c2ed"/><rect width=".892" height="1.531" x="23.937" y="27.544" fill="#66a2d9"/><rect width=".892" height="1.531" x="26.026" y="27.544" fill="#91c2ed"/><rect width=".892" height="1.531" x="9.652" y="20.25" fill="#66a2d9"/><rect width=".892" height="1.531" x="11.741" y="20.25" fill="#91c2ed"/><rect width=".892" height="1.531" x="11.741" y="23.424" fill="#91c2ed"/><rect width=".892" height="1.531" x="23.937" y="33.061" fill="#91c2ed"/><rect width=".892" height="1.531" x="26.026" y="33.061" fill="#91c2ed"/><rect width=".892" height="1.531" x="26.026" y="35.82" fill="#66a2d9"/><rect width=".892" height="1.531" x="37.362" y="31.209" fill="#78b2e6"/><rect width=".892" height="1.531" x="39.45" y="31.209" fill="#b5ddff"/><rect width=".892" height="1.531" x="33.157" y="34.438" fill="#78b2e6"/><rect width=".892" height="1.531" x="35.246" y="34.438" fill="#b5ddff"/><rect width=".892" height="1.531" x="37.362" y="34.384" fill="#b5ddff"/><rect width=".892" height="1.531" x="29.001" y="37.558" fill="#78b2e6"/><rect width=".892" height="1.531" x="31.09" y="37.558" fill="#b5ddff"/><rect width=".892" height="1.531" x="35.246" y="37.613" fill="#b5ddff"/><rect width=".892" height="1.531" x="37.362" y="37.558" fill="#78b2e6"/><rect width=".892" height="1.531" x="37.362" y="28.11" fill="#b5ddff"/><rect width=".892" height="1.531" x="37.362" y="25.289" fill="#78b2e6"/><rect width=".892" height="1.531" x="39.45" y="25.289" fill="#b5ddff"/><rect width="1.233" height="2.116" x="16.631" y="27.868" fill="#b5ddff"/><rect width="1.233" height="2.116" x="16.631" y="31.533" fill="#b5ddff"/><rect width="1.233" height="2.116" x="19.518" y="31.533" fill="#78b2e6"/><rect width="1.233" height="2.116" x="19.518" y="35.199" fill="#b5ddff"/><path fill="#22496e" d="M12.285,26.469H9.923v-2.167H7.001v13.846c0,1.465,1.384,2.849,3.09,2.849h2.194V26.469z"/><rect width="3.918" height=".705" x="6.988" y="27.905" fill="#b5ddff"/><rect width="3.918" height=".705" x="6.988" y="29.694" fill="#b5ddff"/><rect width="3.918" height=".705" x="6.988" y="31.483" fill="#b5ddff"/><rect width="3.918" height=".705" x="6.988" y="33.272" fill="#b5ddff"/><rect width="3.918" height=".705" x="6.988" y="35.061" fill="#b5ddff"/><rect width="3.918" height=".705" x="6.988" y="36.849" fill="#b5ddff"/><path fill="#b5ddff" d="M7.321,39.344h3.585v-0.705H7.057C7.108,38.883,7.201,39.118,7.321,39.344z"/></svg>