<svg xmlns="http://www.w3.org/2000/svg"  viewBox="0 0 48 48" width="48px" height="48px"><radialGradient id="mDbZfuTi679D48vDqrhHma" cx="23.731" cy="33.837" r="21.364" gradientTransform="matrix(1 0 0 .3549 0 21.83)" gradientUnits="userSpaceOnUse"><stop offset=".117" stop-color="#adf5ff"/><stop offset=".247" stop-color="#a7f2ff"/><stop offset=".427" stop-color="#95eaff"/><stop offset=".636" stop-color="#7df"/><stop offset=".867" stop-color="#4ecbff"/><stop offset="1" stop-color="#33bfff"/></radialGradient><ellipse cx="24.149" cy="36.397" fill="url(#mDbZfuTi679D48vDqrhHma)" rx="18.755" ry="6.175"/><path fill="#e3fcff" d="M9.96,32.351c0,0-2.088,0.619-2.088,1.661c0,1.612,2.191,1.793,5.534,1.793 c0.769,0,1.293,0.268,1.957,0.607c0.854,0.437,1.917,0.98,3.692,0.98c2.454,0,3.688-0.412,4.777-0.776 c1.007-0.336,1.878-0.627,3.677-0.627c1.472,0,2.358,0.103,3.295,0.212c1.086,0.126,2.318,0.268,4.605,0.268 c4.335,0,4.672-2.013,4.672-2.629c0-0.877-1.291-1.304-1.291-1.304s-7.995-2.314-14.641-2.314 C17.23,30.222,9.96,32.351,9.96,32.351z"/><radialGradient id="mDbZfuTi679D48vDqrhHmb" cx="16.962" cy="32.291" r="18.08" gradientTransform="matrix(1 0 0 .2884 0 22.978)" gradientUnits="userSpaceOnUse"><stop offset="0" stop-color="#dee06e"/><stop offset=".542" stop-color="#f2c202"/><stop offset="1" stop-color="#d18801"/></radialGradient><path fill="url(#mDbZfuTi679D48vDqrhHmb)" d="M19.054,36.572c4.504,0,4.467-1.403,8.454-1.403c3.249,0,3.692,0.48,7.901,0.48 c2.437,0,3.852-0.701,3.852-1.809c0-2.8-6.842-5.981-15.284-5.981c-7.064,0-15.284,2.954-15.284,5.981 c0,0.738,0.615,1.145,4.713,1.145C15.51,34.984,16.138,36.572,19.054,36.572z"/><linearGradient id="mDbZfuTi679D48vDqrhHmc" x1="29.479" x2="32.418" y1="33.625" y2="23.284" gradientUnits="userSpaceOnUse"><stop offset=".289" stop-color="#401b01"/><stop offset=".335" stop-color="#4a2501" stop-opacity=".887"/><stop offset=".413" stop-color="#663f01" stop-opacity=".694"/><stop offset=".515" stop-color="#936901" stop-opacity=".442"/><stop offset=".636" stop-color="#d1a302" stop-opacity=".144"/><stop offset=".695" stop-color="#f2c202" stop-opacity="0"/></linearGradient><path fill="url(#mDbZfuTi679D48vDqrhHmc)" d="M23.977,27.859c-0.022,0-0.045,0.002-0.067,0.002 c0.814,0.742,2.798,1.528,5.474,2.173l-4.369,1.546l1.479,0.348l4.214-1.595c0.701,0.143,1.521,0.298,2.277,0.413 c1.568,0.239,3.058,0.383,4.393,0.441C34.78,29.349,29.754,27.859,23.977,27.859z" opacity=".57"/><radialGradient id="mDbZfuTi679D48vDqrhHmd" cx="26.189" cy="29.298" r="3.191" gradientTransform="matrix(.9951 .0988 -.2057 2.0725 6.156 -34.008)" gradientUnits="userSpaceOnUse"><stop offset="0" stop-color="#b55a2b"/><stop offset=".111" stop-color="#a65328"/><stop offset=".516" stop-color="#763b1c"/><stop offset=".825" stop-color="#582c15"/><stop offset="1" stop-color="#4d2612"/></radialGradient><path fill="url(#mDbZfuTi679D48vDqrhHmd)" d="M26.617,18.919l-1.621,12.935H25c0,0.002-0.004,0.004-0.004,0.006 c0,0.142,0.349,0.257,0.78,0.257c0.431,0,0.78-0.115,0.78-0.257l1.6-12.747L26.617,18.919z"/><path fill="#ff3d00" d="M27.24,10.021c0.452-0.637,0.944-1.263,1.483-1.865C28.184,8.758,27.691,9.385,27.24,10.021z"/><path fill="#ff3d00" d="M28.769,8.092c-10.139-1.212-15.841,7.634-15.841,7.634s1.101-0.036,1.998,0.722 c1.064,0.899,1.226,1.949,1.226,1.949S20.7,9.142,28.769,8.092z"/><path fill="#ff3d00" d="M28.775,8.096c0.409,0.779,0.759,1.573,1.059,2.365c0.001,0.001,0.001,0.002,0.002,0.003 C29.536,9.671,29.185,8.876,28.775,8.096z"/><path fill="#ff3d00" d="M28.769,8.092c7.559,3.013,9.674,13.106,9.674,13.106s0.417-0.977,1.67-1.585 c1.057-0.513,2.115-0.205,2.115-0.205S38.892,9.427,28.769,8.092z"/><path fill="#e4e7ed" d="M31.519,21.704c0,0.001,0.004,0.008,0.004,0.008s0.004-0.003,0.005-0.003 C31.525,21.707,31.524,21.707,31.519,21.704z"/><path fill="#f3f6fc" d="M28.769,8.092c0,0.004,0,0.007-0.001,0.011c0.002-0.003,0.005-0.005,0.007-0.008 c3.27,6.225,2.779,13.37,2.762,13.607c0.075-0.052,1.41-0.969,3.647-1.031c2.01-0.056,3.259,0.527,3.259,0.527 S36.328,11.106,28.769,8.092z"/><path fill="#f3f6fc" d="M28.769,8.092C20.7,9.142,16.153,18.398,16.153,18.398s1.354-0.256,3.288,0.295 c2.216,0.631,3.29,1.914,3.29,1.914s1.255-7.191,6.035-12.501C28.767,8.102,28.768,8.097,28.769,8.092z"/><path fill="#ff3d00" d="M28.775,8.096c-4.788,5.311-6.045,12.512-6.045,12.512s1.869-0.511,4.495-0.181 s4.311,1.287,4.311,1.287S32.1,14.426,28.775,8.096z"/><radialGradient id="mDbZfuTi679D48vDqrhHme" cx="22.019" cy="13.824" r="17.782" gradientTransform="matrix(-.9999 -.0166 .0119 -.7155 43.87 24.082)" gradientUnits="userSpaceOnUse"><stop offset="0" stop-color="#fff" stop-opacity="0"/><stop offset=".41" stop-color="#bba091" stop-opacity=".41"/><stop offset=".819" stop-color="#7a4629" stop-opacity=".819"/><stop offset="1" stop-color="#612300"/></radialGradient><path fill="url(#mDbZfuTi679D48vDqrhHme)" d="M28.769,8.092c0,0.004,0,0.007-0.001,0.011 c0.002-0.003,0.005-0.005,0.007-0.008c0.205,0.39,0.205,0.39,0,0c0.206,0.392,0.206,0.392,0,0 c-0.076,0.085-0.082,0.092-0.009,0.011C28.767,8.102,28.768,8.097,28.769,8.092c-10.139-1.212-15.841,7.634-15.841,7.634 s1.101-0.036,1.998,0.722c1.064,0.899,1.226,1.949,1.226,1.949s1.354-0.256,3.288,0.295c2.215,0.631,3.29,1.914,3.29,1.914v0h0 l0,0l0,0c0,0,1.869-0.51,4.495-0.18c2.553,0.321,4.202,1.227,4.293,1.278c0.001,0.001,0.004,0.008,0.004,0.008 s0.004-0.003,0.005-0.003c0.001,0,0.009,0.005,0.009,0.005s0.002-0.027,0.003-0.041c0,0.007-0.002,0.026-0.002,0.03 c0.075-0.052,1.41-0.969,3.647-1.031c2.01-0.056,3.259,0.527,3.259,0.527s0.417-0.977,1.67-1.585 c1.057-0.513,2.115-0.205,2.115-0.205S38.892,9.427,28.769,8.092z" opacity=".54"/><radialGradient id="mDbZfuTi679D48vDqrhHmf" cx="24.188" cy="4.406" r=".517" gradientTransform="matrix(1.764 .2217 -.2234 1.7775 -13.007 -6.066)" gradientUnits="userSpaceOnUse"><stop offset="0" stop-color="#b55a2b"/><stop offset=".368" stop-color="#944a23"/><stop offset=".768" stop-color="#763b1c"/><stop offset=".994" stop-color="#6b3519"/></radialGradient><path fill="url(#mDbZfuTi679D48vDqrhHmf)" d="M29.502,7.261c0.033-0.259-0.195-0.706-0.741-0.774c-0.552-0.069-0.897,0.305-0.929,0.565 c0,0-0.136,1.159-0.136,1.16c-0.011,0.085,0.35,0.244,0.811,0.302c0.461,0.058,0.848-0.006,0.859-0.092 C29.367,8.42,29.502,7.261,29.502,7.261z"/></svg>